<?xml version="1.0" encoding="UTF-8" standalone="no"?>
<!-- Created with Inkscape (http://www.inkscape.org/) -->

<svg
   xmlns:ns0="http://www.iki.fi/pav/software/textext/"
   xmlns:dc="http://purl.org/dc/elements/1.1/"
   xmlns:cc="http://creativecommons.org/ns#"
   xmlns:rdf="http://www.w3.org/1999/02/22-rdf-syntax-ns#"
   xmlns:svg="http://www.w3.org/2000/svg"
   xmlns="http://www.w3.org/2000/svg"
   xmlns:xlink="http://www.w3.org/1999/xlink"
   xmlns:sodipodi="http://sodipodi.sourceforge.net/DTD/sodipodi-0.dtd"
   xmlns:inkscape="http://www.inkscape.org/namespaces/inkscape"
   width="102.46088mm"
   height="99.517296mm"
   id="svg2"
   version="1.1"
   inkscape:version="0.91 r"
   sodipodi:docname="motion_equation.svg"
   inkscape:export-filename="/home/hadim/Documents/phd/thesis/figures/intro/motion_equation.png"
   inkscape:export-xdpi="199.93387"
   inkscape:export-ydpi="199.93387">
  <sodipodi:namedview
     id="base"
     pagecolor="#ffffff"
     bordercolor="#666666"
     borderopacity="1.0"
     inkscape:pageopacity="1"
     inkscape:pageshadow="2"
     inkscape:zoom="1"
     inkscape:cx="-35.153618"
     inkscape:cy="46.565671"
     inkscape:document-units="px"
     inkscape:current-layer="layer1"
     showgrid="false"
     showborder="true"
     inkscape:showpageshadow="false"
     fit-margin-top="3"
     fit-margin-left="3"
     fit-margin-right="3"
     fit-margin-bottom="3"
     inkscape:window-width="1598"
     inkscape:window-height="905"
     inkscape:window-x="0"
     inkscape:window-y="123"
     inkscape:window-maximized="0"
     inkscape:object-nodes="false"
     inkscape:snap-smooth-nodes="true"
     inkscape:snap-nodes="false"
     inkscape:snap-bbox="true"
     units="mm" />
  <defs
     style="stroke-linecap:square;stroke-linejoin:round"
     id="defs4">
    <marker
       inkscape:stockid="TriangleOutL"
       orient="auto"
       refY="0"
       refX="0"
       id="marker6060"
       style="overflow:visible;stroke-linecap:square;stroke-linejoin:round"
       inkscape:isstock="true">
      <path
         inkscape:connector-curvature="0"
         id="path6062"
         d="m 5.77,0 -8.65,5 0,-10 8.65,5 z"
         style="fill:#000000;fill-opacity:1;fill-rule:evenodd;stroke:#000000;stroke-width:1pt;stroke-linecap:square;stroke-linejoin:round;stroke-opacity:1"
         transform="scale(0.8,0.8)" />
    </marker>
    <style
       type="text/css"
       id="style6">
*{stroke-linecap:square;stroke-linejoin:round;}
  </style>
  </defs>
  <metadata
     id="metadata7">
    <rdf:RDF>
      <cc:Work
         rdf:about="">
        <dc:format>image/svg+xml</dc:format>
        <dc:type
           rdf:resource="http://purl.org/dc/dcmitype/StillImage" />
        <dc:title></dc:title>
      </cc:Work>
    </rdf:RDF>
  </metadata>
  <g
     style="stroke-linecap:square;stroke-linejoin:round"
     transform="translate(506.77811,-161.39985)"
     id="layer1"
     inkscape:groupmode="layer"
     inkscape:label="Main">
    <flowRoot
       style="font-style:normal;font-variant:normal;font-weight:normal;font-stretch:normal;font-size:20px;line-height:125%;font-family:Arial;-inkscape-font-specification:Arial;letter-spacing:0px;word-spacing:0px;fill:#000000;fill-opacity:1;stroke:none;stroke-linecap:square;stroke-linejoin:round"
       id="flowRoot6280"
       xml:space="preserve"><flowRegion
         style="stroke-linecap:square;stroke-linejoin:round"
         id="flowRegion6282"><rect
           style="stroke-linecap:square;stroke-linejoin:round"
           y="846.40576"
           x="1107.1272"
           height="125.25892"
           width="175.76654"
           id="rect6284" /></flowRegion><flowPara
         style="stroke-linecap:square;stroke-linejoin:round"
         id="flowPara6286" /></flowRoot>    <text
       sodipodi:linespacing="100%"
       id="text4420"
       y="188.13573"
       x="-375.89185"
       style="color:#000000;font-style:normal;font-variant:normal;font-weight:normal;font-stretch:normal;font-size:22.5px;line-height:100%;font-family:arial;-inkscape-font-specification:arial;text-indent:0;text-align:center;text-decoration:none;text-decoration-line:none;letter-spacing:0px;word-spacing:0px;text-transform:none;direction:ltr;block-progression:tb;writing-mode:lr-tb;baseline-shift:baseline;text-anchor:middle;display:inline;overflow:visible;visibility:visible;fill:#000000;fill-opacity:1;fill-rule:nonzero;stroke:none;stroke-width:1px;stroke-linecap:butt;stroke-linejoin:miter;stroke-opacity:1;marker:none;enable-background:accumulate"
       xml:space="preserve"><tspan
         y="188.13573"
         x="-375.89185"
         style="font-style:normal;font-variant:normal;font-weight:normal;font-stretch:normal;font-size:22.5px;font-family:arial;-inkscape-font-specification:arial;stroke-linecap:square;stroke-linejoin:round"
         id="tspan4422"
         sodipodi:role="line">Equation du mouvement</tspan><tspan
         y="210.63573"
         x="-375.89185"
         style="font-style:normal;font-variant:normal;font-weight:normal;font-stretch:normal;font-size:22.5px;font-family:arial;-inkscape-font-specification:arial;stroke-linecap:square;stroke-linejoin:round"
         sodipodi:role="line"
         id="tspan4346" /></text>
    <rect
       style="color:#000000;clip-rule:nonzero;display:inline;overflow:visible;visibility:visible;opacity:1;isolation:auto;mix-blend-mode:normal;color-interpolation:sRGB;color-interpolation-filters:linearRGB;solid-color:#000000;solid-opacity:1;fill:#f7a0ff;fill-opacity:1;fill-rule:evenodd;stroke:#f04aff;stroke-width:2;stroke-linecap:butt;stroke-linejoin:miter;stroke-miterlimit:4;stroke-dasharray:none;stroke-dashoffset:0;stroke-opacity:1;marker:none;color-rendering:auto;image-rendering:auto;shape-rendering:auto;text-rendering:auto;enable-background:accumulate"
       id="rect6306"
       width="40.734921"
       height="58.803818"
       x="-308.87622"
       y="231.10088"
       rx="0.514633"
       ry="0.486927" />
    <rect
       ry="0.486927"
       rx="0.514633"
       y="231.10088"
       x="-394.41101"
       height="58.803818"
       width="60.069443"
       id="rect6304"
       style="color:#000000;clip-rule:nonzero;display:inline;overflow:visible;visibility:visible;opacity:1;isolation:auto;mix-blend-mode:normal;color-interpolation:sRGB;color-interpolation-filters:linearRGB;solid-color:#000000;solid-opacity:1;fill:#96e0ff;fill-opacity:1;fill-rule:evenodd;stroke:#31c2ff;stroke-width:2;stroke-linecap:butt;stroke-linejoin:miter;stroke-miterlimit:4;stroke-dasharray:none;stroke-dashoffset:0;stroke-opacity:1;marker:none;color-rendering:auto;image-rendering:auto;shape-rendering:auto;text-rendering:auto;enable-background:accumulate" />
    <rect
       style="color:#000000;clip-rule:nonzero;display:inline;overflow:visible;visibility:visible;opacity:1;isolation:auto;mix-blend-mode:normal;color-interpolation:sRGB;color-interpolation-filters:linearRGB;solid-color:#000000;solid-opacity:1;fill:#ffbda4;fill-opacity:1;fill-rule:evenodd;stroke:#ff8759;stroke-width:2;stroke-linecap:butt;stroke-linejoin:miter;stroke-miterlimit:4;stroke-dasharray:none;stroke-dashoffset:0;stroke-opacity:1;marker:none;color-rendering:auto;image-rendering:auto;shape-rendering:auto;text-rendering:auto;enable-background:accumulate"
       id="rect6302"
       width="79.095459"
       height="58.803818"
       x="-234.45311"
       y="231.10088"
       rx="0.514633"
       ry="0.486927" />
    <text
       xml:space="preserve"
       style="color:#000000;font-style:normal;font-variant:normal;font-weight:normal;font-stretch:normal;font-size:16.25px;line-height:100%;font-family:arial;-inkscape-font-specification:arial;text-indent:0;text-align:center;text-decoration:none;text-decoration-line:none;letter-spacing:0px;word-spacing:0px;text-transform:none;direction:ltr;block-progression:tb;writing-mode:lr-tb;baseline-shift:baseline;text-anchor:middle;display:inline;overflow:visible;visibility:visible;fill:#ff8759;fill-opacity:1;fill-rule:nonzero;stroke:none;stroke-width:1px;stroke-linecap:butt;stroke-linejoin:miter;stroke-opacity:1;marker:none;enable-background:accumulate"
       x="-194.86967"
       y="310.22885"
       id="text6312"
       sodipodi:linespacing="100%"><tspan
         sodipodi:role="line"
         id="tspan6314"
         style="font-style:normal;font-variant:normal;font-weight:normal;font-stretch:normal;font-size:16.25px;font-family:arial;-inkscape-font-specification:arial;text-align:center;text-anchor:middle;fill:#ff8759;fill-opacity:1;stroke-linecap:square;stroke-linejoin:round"
         x="-194.86967"
         y="310.22885">terme</tspan><tspan
         sodipodi:role="line"
         style="font-style:normal;font-variant:normal;font-weight:normal;font-stretch:normal;font-size:16.25px;font-family:arial;-inkscape-font-specification:arial;text-align:center;text-anchor:middle;fill:#ff8759;fill-opacity:1;stroke-linecap:square;stroke-linejoin:round"
         x="-194.86967"
         y="326.47885"
         id="tspan6322">inertiel</tspan></text>
    <text
       sodipodi:linespacing="100%"
       id="text6316"
       y="307.18991"
       x="-364.13824"
       style="color:#000000;font-style:normal;font-variant:normal;font-weight:normal;font-stretch:normal;font-size:16.25px;line-height:100%;font-family:arial;-inkscape-font-specification:arial;text-indent:0;text-align:center;text-decoration:none;text-decoration-line:none;letter-spacing:0px;word-spacing:0px;text-transform:none;direction:ltr;block-progression:tb;writing-mode:lr-tb;baseline-shift:baseline;text-anchor:middle;display:inline;overflow:visible;visibility:visible;fill:#31c2ff;fill-opacity:1;fill-rule:nonzero;stroke:none;stroke-width:1px;stroke-linecap:butt;stroke-linejoin:miter;stroke-opacity:1;marker:none;enable-background:accumulate"
       xml:space="preserve"><tspan
         y="307.18991"
         x="-364.13824"
         style="font-style:normal;font-variant:normal;font-weight:normal;font-stretch:normal;font-size:16.25px;font-family:arial;-inkscape-font-specification:arial;text-align:center;text-anchor:middle;fill:#31c2ff;fill-opacity:1;stroke-linecap:square;stroke-linejoin:round"
         id="tspan6318"
         sodipodi:role="line">force</tspan><tspan
         y="323.43991"
         x="-364.13824"
         style="font-style:normal;font-variant:normal;font-weight:normal;font-stretch:normal;font-size:16.25px;font-family:arial;-inkscape-font-specification:arial;text-align:center;text-anchor:middle;fill:#31c2ff;fill-opacity:1;stroke-linecap:square;stroke-linejoin:round"
         sodipodi:role="line"
         id="tspan6320">visqueuse</tspan></text>
    <text
       xml:space="preserve"
       style="color:#000000;font-style:normal;font-variant:normal;font-weight:normal;font-stretch:normal;font-size:16.25px;line-height:100%;font-family:arial;-inkscape-font-specification:arial;text-indent:0;text-align:center;text-decoration:none;text-decoration-line:none;letter-spacing:0px;word-spacing:0px;text-transform:none;direction:ltr;block-progression:tb;writing-mode:lr-tb;baseline-shift:baseline;text-anchor:middle;display:inline;overflow:visible;visibility:visible;fill:#f04aff;fill-opacity:1;fill-rule:nonzero;stroke:none;stroke-width:1px;stroke-linecap:butt;stroke-linejoin:miter;stroke-opacity:1;marker:none;enable-background:accumulate"
       x="-288.46512"
       y="307.18991"
       id="text6324"
       sodipodi:linespacing="100%"><tspan
         sodipodi:role="line"
         id="tspan6326"
         style="font-style:normal;font-variant:normal;font-weight:normal;font-stretch:normal;font-size:16.25px;font-family:arial;-inkscape-font-specification:arial;text-align:center;text-anchor:middle;fill:#f04aff;fill-opacity:1;stroke-linecap:square;stroke-linejoin:round"
         x="-288.46512"
         y="307.18991">force</tspan><tspan
         id="tspan6328"
         sodipodi:role="line"
         style="font-style:normal;font-variant:normal;font-weight:normal;font-stretch:normal;font-size:16.25px;font-family:arial;-inkscape-font-specification:arial;text-align:center;text-anchor:middle;fill:#f04aff;fill-opacity:1;stroke-linecap:square;stroke-linejoin:round"
         x="-288.46512"
         y="323.43991">élastique</tspan></text>
    <g
       id="g6808"
       transform="translate(-16.18944,0)"
       style="stroke-linecap:square;stroke-linejoin:round">
      <rect
         style="color:#000000;clip-rule:nonzero;display:inline;overflow:visible;visibility:visible;opacity:1;isolation:auto;mix-blend-mode:normal;color-interpolation:sRGB;color-interpolation-filters:linearRGB;solid-color:#000000;solid-opacity:1;fill:#96e0ff;fill-opacity:1;fill-rule:evenodd;stroke:#31c2ff;stroke-width:2;stroke-linecap:butt;stroke-linejoin:miter;stroke-miterlimit:4;stroke-dasharray:none;stroke-dashoffset:0;stroke-opacity:1;marker:none;color-rendering:auto;image-rendering:auto;shape-rendering:auto;text-rendering:auto;enable-background:accumulate"
         id="rect6345"
         width="41.17688"
         height="20.796814"
         x="-394.24588"
         y="381.67804"
         rx="0.514633"
         ry="0.486927" />
      <rect
         ry="0.486927"
         rx="0.514633"
         y="357.72479"
         x="-394.24588"
         height="20.796814"
         width="41.17688"
         id="rect6302-6"
         style="color:#000000;clip-rule:nonzero;display:inline;overflow:visible;visibility:visible;opacity:1;isolation:auto;mix-blend-mode:normal;color-interpolation:sRGB;color-interpolation-filters:linearRGB;solid-color:#000000;solid-opacity:1;fill:#ffbda4;fill-opacity:1;fill-rule:evenodd;stroke:#ff8759;stroke-width:2;stroke-linecap:butt;stroke-linejoin:miter;stroke-miterlimit:4;stroke-dasharray:none;stroke-dashoffset:0;stroke-opacity:1;marker:none;color-rendering:auto;image-rendering:auto;shape-rendering:auto;text-rendering:auto;enable-background:accumulate" />
      <g
         ns0:text="$Re = \\frac{\\rho Lv}{\\eta}$"
         ns0:preamble=""
         transform="matrix(2.7339181,0,0,2.7339181,-1076.7204,18.51983)"
         style="stroke-linecap:square;stroke-linejoin:round"
         id="g5063">
        <defs
           id="defs5065">
          <g
             style="stroke-linecap:square;stroke-linejoin:round"
             id="g5067">
            <symbol
               style="overflow:visible;stroke-linecap:square;stroke-linejoin:round"
               overflow="visible"
               id="textext-1236beca-0">
              <path
                 inkscape:connector-curvature="0"
                 style="stroke:none;stroke-linecap:square;stroke-linejoin:round"
                 d=""
                 id="path5070" />
            </symbol>
            <symbol
               style="overflow:visible;stroke-linecap:square;stroke-linejoin:round"
               overflow="visible"
               id="textext-1236beca-1">
              <path
                 inkscape:connector-curvature="0"
                 style="stroke:none;stroke-linecap:square;stroke-linejoin:round"
                 d="m 3.734375,-6.125 c 0.0625,-0.234375 0.09375,-0.328125 0.28125,-0.359375 C 4.109375,-6.5 4.421875,-6.5 4.625,-6.5 c 0.703125,0 1.8125,0 1.8125,0.984375 0,0.34375 -0.15625,1.03125 -0.546875,1.421875 -0.265625,0.25 -0.78125,0.578125 -1.6875,0.578125 l -1.109375,0 z m 1.4375,2.734375 c 1.015625,-0.21875 2.1875,-0.921875 2.1875,-1.921875 0,-0.859375 -0.890625,-1.5 -2.203125,-1.5 l -2.828125,0 c -0.203125,0 -0.296875,0 -0.296875,0.203125 C 2.03125,-6.5 2.125,-6.5 2.3125,-6.5 c 0.015625,0 0.203125,0 0.375,0.015625 0.1875,0.03125 0.265625,0.03125 0.265625,0.171875 0,0.03125 0,0.0625 -0.03125,0.1875 l -1.34375,5.34375 C 1.484375,-0.390625 1.46875,-0.3125 0.671875,-0.3125 0.5,-0.3125 0.40625,-0.3125 0.40625,-0.109375 0.40625,0 0.53125,0 0.546875,0 c 0.28125,0 0.984375,-0.03125 1.25,-0.03125 0.28125,0 1,0.03125 1.28125,0.03125 0.078125,0 0.1875,0 0.1875,-0.203125 0,-0.109375 -0.078125,-0.109375 -0.28125,-0.109375 -0.359375,0 -0.640625,0 -0.640625,-0.171875 0,-0.0625 0.015625,-0.109375 0.03125,-0.171875 l 0.65625,-2.640625 1.1875,0 c 0.90625,0 1.078125,0.5625 1.078125,0.90625 0,0.140625 -0.078125,0.453125 -0.140625,0.6875 C 5.09375,-1.421875 5,-1.0625 5,-0.859375 5,0.21875 6.203125,0.21875 6.328125,0.21875 c 0.84375,0 1.203125,-1 1.203125,-1.140625 0,-0.125 -0.109375,-0.125 -0.125,-0.125 -0.09375,0 -0.109375,0.0625 -0.125,0.140625 C 7.03125,-0.171875 6.59375,0 6.375,0 6.046875,0 5.96875,-0.21875 5.96875,-0.609375 c 0,-0.3125 0.0625,-0.8125 0.109375,-1.140625 0.015625,-0.140625 0.03125,-0.328125 0.03125,-0.46875 0,-0.765625 -0.671875,-1.078125 -0.9375,-1.171875 z m 0,0"
                 id="path5073" />
            </symbol>
            <symbol
               style="overflow:visible;stroke-linecap:square;stroke-linejoin:round"
               overflow="visible"
               id="textext-1236beca-2">
              <path
                 inkscape:connector-curvature="0"
                 style="stroke:none;stroke-linecap:square;stroke-linejoin:round"
                 d="m 1.859375,-2.296875 c 0.296875,0 1.03125,-0.03125 1.53125,-0.234375 0.703125,-0.296875 0.75,-0.890625 0.75,-1.03125 0,-0.4375 -0.375,-0.84375 -1.0625,-0.84375 -1.109375,0 -2.625,0.96875 -2.625,2.71875 0,1.015625 0.59375,1.796875 1.578125,1.796875 1.421875,0 2.25,-1.0625 2.25,-1.171875 0,-0.0625 -0.046875,-0.140625 -0.109375,-0.140625 -0.0625,0 -0.078125,0.03125 -0.140625,0.109375 -0.78125,0.984375 -1.875,0.984375 -1.984375,0.984375 -0.78125,0 -0.875,-0.84375 -0.875,-1.15625 0,-0.125 0.015625,-0.421875 0.15625,-1.03125 z m -0.46875,-0.21875 C 1.78125,-4.03125 2.8125,-4.1875 3.078125,-4.1875 c 0.453125,0 0.734375,0.296875 0.734375,0.625 0,1.046875 -1.59375,1.046875 -2.015625,1.046875 z m 0,0"
                 id="path5076" />
            </symbol>
            <symbol
               style="overflow:visible;stroke-linecap:square;stroke-linejoin:round"
               overflow="visible"
               id="textext-1236beca-3">
              <path
                 inkscape:connector-curvature="0"
                 style="stroke:none;stroke-linecap:square;stroke-linejoin:round"
                 d=""
                 id="path5079" />
            </symbol>
            <symbol
               style="overflow:visible;stroke-linecap:square;stroke-linejoin:round"
               overflow="visible"
               id="textext-1236beca-4">
              <path
                 inkscape:connector-curvature="0"
                 style="stroke:none;stroke-linecap:square;stroke-linejoin:round"
                 d="m 6.84375,-3.265625 c 0.15625,0 0.34375,0 0.34375,-0.1875 C 7.1875,-3.65625 7,-3.65625 6.859375,-3.65625 l -5.96875,0 c -0.140625,0 -0.328125,0 -0.328125,0.203125 0,0.1875 0.1875,0.1875 0.328125,0.1875 z m 0.015625,1.9375 c 0.140625,0 0.328125,0 0.328125,-0.203125 0,-0.1875 -0.1875,-0.1875 -0.34375,-0.1875 l -5.953125,0 c -0.140625,0 -0.328125,0 -0.328125,0.1875 0,0.203125 0.1875,0.203125 0.328125,0.203125 z m 0,0"
                 id="path5082" />
            </symbol>
            <symbol
               style="overflow:visible;stroke-linecap:square;stroke-linejoin:round"
               overflow="visible"
               id="textext-1236beca-5">
              <path
                 inkscape:connector-curvature="0"
                 style="stroke:none;stroke-linecap:square;stroke-linejoin:round"
                 d=""
                 id="path5085" />
            </symbol>
            <symbol
               style="overflow:visible;stroke-linecap:square;stroke-linejoin:round"
               overflow="visible"
               id="textext-1236beca-6">
              <path
                 inkscape:connector-curvature="0"
                 style="stroke:none;stroke-linecap:square;stroke-linejoin:round"
                 d="M 0.375,1.125 C 0.34375,1.21875 0.34375,1.265625 0.34375,1.265625 c 0,0.15625 0.125,0.21875 0.234375,0.21875 0.265625,0 0.3125,-0.203125 0.359375,-0.421875 0.09375,-0.359375 0.296875,-1.15625 0.359375,-1.421875 0.0625,0.09375 0.296875,0.421875 0.765625,0.421875 0.90625,0 1.84375,-0.9375 1.84375,-1.953125 0,-0.75 -0.484375,-1.1875 -1.109375,-1.1875 -0.671875,0 -1.515625,0.609375 -1.765625,1.59375 z m 1.6875,-1.25 c -0.515625,0 -0.671875,-0.515625 -0.671875,-0.609375 0,-0.015625 0.046875,-0.171875 0.0625,-0.25 C 1.671875,-1.84375 1.703125,-2 1.90625,-2.3125 c 0.25,-0.359375 0.609375,-0.5625 0.875,-0.5625 0.296875,0 0.5625,0.203125 0.5625,0.703125 0,0.3125 -0.1875,1.09375 -0.390625,1.4375 C 2.625,-0.234375 2.28125,-0.125 2.0625,-0.125 Z m 0,0"
                 id="path5088" />
            </symbol>
            <symbol
               style="overflow:visible;stroke-linecap:square;stroke-linejoin:round"
               overflow="visible"
               id="textext-1236beca-7">
              <path
                 inkscape:connector-curvature="0"
                 style="stroke:none;stroke-linecap:square;stroke-linejoin:round"
                 d="m 2.875,-4.1875 c 0.0625,-0.25 0.078125,-0.328125 0.71875,-0.328125 0.21875,0 0.28125,0 0.28125,-0.140625 0,-0.015625 0,-0.109375 -0.109375,-0.109375 -0.15625,0 -0.34375,0.015625 -0.515625,0.03125 -0.171875,0 -0.390625,0 -0.5625,0 -0.140625,0 -0.328125,0 -0.484375,0 -0.140625,0 -0.3125,-0.03125 -0.453125,-0.03125 -0.03125,0 -0.140625,0 -0.140625,0.15625 0,0.09375 0.078125,0.09375 0.21875,0.09375 0.015625,0 0.140625,0 0.265625,0.015625 0.15625,0.015625 0.171875,0.03125 0.171875,0.109375 0,0 0,0.046875 -0.03125,0.140625 l -0.9375,3.703125 C 1.234375,-0.3125 1.21875,-0.25 0.6875,-0.25 c -0.109375,0 -0.203125,0 -0.203125,0.140625 C 0.484375,0 0.5625,0 0.6875,0 l 3.5,0 c 0.1875,0 0.1875,0 0.25,-0.140625 0.0625,-0.1875 0.59375,-1.53125 0.59375,-1.59375 0,-0.015625 -0.015625,-0.09375 -0.125,-0.09375 -0.078125,0 -0.09375,0.03125 -0.140625,0.140625 C 4.5,-1.03125 4.1875,-0.25 2.921875,-0.25 l -0.796875,0 c -0.203125,0 -0.21875,-0.015625 -0.21875,-0.078125 0,0 0,-0.03125 0.03125,-0.140625 z m 0,0"
                 id="path5091" />
            </symbol>
            <symbol
               style="overflow:visible;stroke-linecap:square;stroke-linejoin:round"
               overflow="visible"
               id="textext-1236beca-8">
              <path
                 inkscape:connector-curvature="0"
                 style="stroke:none;stroke-linecap:square;stroke-linejoin:round"
                 d="m 3.71875,-2.53125 c 0,-0.546875 -0.328125,-0.546875 -0.34375,-0.546875 -0.1875,0 -0.375,0.1875 -0.375,0.375 0,0.109375 0.0625,0.171875 0.109375,0.203125 0.125,0.109375 0.265625,0.28125 0.265625,0.5625 0,0.3125 -0.46875,1.8125 -1.296875,1.8125 -0.5625,0 -0.5625,-0.5 -0.5625,-0.625 0,-0.3125 0.125,-0.703125 0.390625,-1.359375 C 1.953125,-2.25 2,-2.359375 2,-2.46875 2,-2.84375 1.6875,-3.078125 1.34375,-3.078125 0.640625,-3.078125 0.328125,-2.125 0.328125,-2 c 0,0.078125 0.09375,0.078125 0.125,0.078125 0.09375,0 0.09375,-0.03125 0.125,-0.109375 C 0.734375,-2.59375 1.03125,-2.875 1.3125,-2.875 c 0.125,0 0.171875,0.078125 0.171875,0.234375 0,0.171875 -0.046875,0.3125 -0.125,0.46875 -0.296875,0.78125 -0.375,1.078125 -0.375,1.328125 0,0.6875 0.546875,0.90625 1.078125,0.90625 1.171875,0 1.65625,-2.015625 1.65625,-2.59375 z m 0,0"
                 id="path5094" />
            </symbol>
            <symbol
               style="overflow:visible;stroke-linecap:square;stroke-linejoin:round"
               overflow="visible"
               id="textext-1236beca-9">
              <path
                 inkscape:connector-curvature="0"
                 style="stroke:none;stroke-linecap:square;stroke-linejoin:round"
                 d="M 3.890625,-1.890625 C 3.9375,-2.09375 3.953125,-2.125 3.953125,-2.28125 c 0,-0.109375 0,-0.40625 -0.265625,-0.609375 -0.109375,-0.078125 -0.3125,-0.1875 -0.640625,-0.1875 -0.296875,0 -0.71875,0.078125 -1.171875,0.625 -0.0625,-0.515625 -0.53125,-0.625 -0.75,-0.625 -0.265625,0 -0.4375,0.1875 -0.546875,0.375 -0.140625,0.234375 -0.25,0.65625 -0.25,0.703125 0,0.078125 0.09375,0.078125 0.125,0.078125 0.09375,0 0.09375,-0.015625 0.140625,-0.203125 0.109375,-0.40625 0.25,-0.75 0.515625,-0.75 0.1875,0 0.234375,0.15625 0.234375,0.34375 0,0.125 -0.0625,0.390625 -0.125,0.578125 -0.046875,0.1875 -0.109375,0.46875 -0.140625,0.625 L 0.84375,-0.4375 c -0.015625,0.09375 -0.0625,0.265625 -0.0625,0.28125 0,0.15625 0.125,0.21875 0.234375,0.21875 0.125,0 0.234375,-0.078125 0.28125,-0.140625 0.03125,-0.0625 0.078125,-0.296875 0.125,-0.4375 0.03125,-0.125 0.109375,-0.453125 0.140625,-0.625 0.046875,-0.15625 0.09375,-0.3125 0.125,-0.46875 0.078125,-0.296875 0.078125,-0.3125 0.21875,-0.53125 C 2.125,-2.484375 2.46875,-2.875 3.015625,-2.875 c 0.390625,0 0.40625,0.3125 0.40625,0.484375 0,0.1875 0,0.25 -0.046875,0.390625 L 2.59375,1.125 C 2.5625,1.21875 2.5625,1.265625 2.5625,1.265625 c 0,0.15625 0.125,0.21875 0.234375,0.21875 0.25,0 0.3125,-0.234375 0.34375,-0.328125 z m 0,0"
                 id="path5097" />
            </symbol>
          </g>
        </defs>
        <g
           style="stroke-linecap:square;stroke-linejoin:round"
           id="textext-1236beca-10">
          <g
             style="fill:#000000;fill-opacity:1;stroke-linecap:square;stroke-linejoin:round"
             id="g5100">
            <use
               height="100%"
               width="100%"
               style="stroke-linecap:square;stroke-linejoin:round"
               xlink:href="#textext-1236beca-1"
               x="223.43201"
               y="134.765"
               id="use5102" />
          </g>
          <g
             style="fill:#000000;fill-opacity:1;stroke-linecap:square;stroke-linejoin:round"
             id="g5104">
            <use
               height="100%"
               width="100%"
               style="stroke-linecap:square;stroke-linejoin:round"
               xlink:href="#textext-1236beca-2"
               x="231.07631"
               y="134.765"
               id="use5106" />
          </g>
          <g
             style="fill:#000000;fill-opacity:1;stroke-linecap:square;stroke-linejoin:round"
             id="g5108">
            <use
               height="100%"
               width="100%"
               style="stroke-linecap:square;stroke-linejoin:round"
               xlink:href="#textext-1236beca-4"
               x="238.48"
               y="134.765"
               id="use5110" />
          </g>
          <g
             style="fill:#000000;fill-opacity:1;stroke-linecap:square;stroke-linejoin:round"
             id="g5112">
            <use
               height="100%"
               width="100%"
               style="stroke-linecap:square;stroke-linejoin:round"
               xlink:href="#textext-1236beca-6"
               x="250.19099"
               y="130.32001"
               id="use5114" />
            <use
               height="100%"
               width="100%"
               style="stroke-linecap:square;stroke-linejoin:round"
               xlink:href="#textext-1236beca-7"
               x="254.32437"
               y="130.32001"
               id="use5116" />
            <use
               height="100%"
               width="100%"
               style="stroke-linecap:square;stroke-linejoin:round"
               xlink:href="#textext-1236beca-8"
               x="259.78973"
               y="130.32001"
               id="use5118" />
          </g>
          <path
             inkscape:connector-curvature="0"
             style="fill:none;stroke:#000000;stroke-width:0.398;stroke-linecap:butt;stroke-linejoin:miter;stroke-miterlimit:10;stroke-opacity:1"
             d="m 4.0625e-4,5.625e-4 13.83203075,0"
             transform="matrix(1,0,0,-1,250.191,132.274)"
             id="path5120" />
          <g
             style="fill:#000000;fill-opacity:1;stroke-linecap:square;stroke-linejoin:round"
             id="g5122">
            <use
               height="100%"
               width="100%"
               style="stroke-linecap:square;stroke-linejoin:round"
               xlink:href="#textext-1236beca-9"
               x="254.931"
               y="138.2"
               id="use5124" />
          </g>
        </g>
      </g>
      <text
         sodipodi:linespacing="100%"
         id="text6384"
         y="390.97314"
         x="-314.03949"
         style="color:#000000;font-style:normal;font-variant:normal;font-weight:normal;font-stretch:normal;font-size:27.5px;line-height:100%;font-family:arial;-inkscape-font-specification:arial;text-indent:0;text-align:center;text-decoration:none;text-decoration-line:none;letter-spacing:0px;word-spacing:0px;text-transform:none;direction:ltr;block-progression:tb;writing-mode:lr-tb;baseline-shift:baseline;text-anchor:middle;display:inline;overflow:visible;visibility:visible;fill:#000000;fill-opacity:1;fill-rule:nonzero;stroke:none;stroke-width:1px;stroke-linecap:butt;stroke-linejoin:miter;stroke-opacity:1;marker:none;enable-background:accumulate"
         xml:space="preserve"><tspan
           y="390.97314"
           x="-314.03949"
           style="font-style:normal;font-variant:normal;font-weight:normal;font-stretch:normal;font-size:27.5px;font-family:arial;-inkscape-font-specification:arial;stroke-linecap:square;stroke-linejoin:round"
           id="tspan6386"
           sodipodi:role="line">&lt;&lt; 1</tspan></text>
    </g>
    <rect
       ry="0.486927"
       rx="0.514633"
       y="443.58646"
       x="-319.58951"
       height="58.803818"
       width="40.734921"
       id="rect6308"
       style="color:#000000;clip-rule:nonzero;display:inline;overflow:visible;visibility:visible;opacity:1;isolation:auto;mix-blend-mode:normal;color-interpolation:sRGB;color-interpolation-filters:linearRGB;solid-color:#000000;solid-opacity:1;fill:#f7a0ff;fill-opacity:1;fill-rule:evenodd;stroke:#f04aff;stroke-width:2;stroke-linecap:butt;stroke-linejoin:miter;stroke-miterlimit:4;stroke-dasharray:none;stroke-dashoffset:0;stroke-opacity:1;marker:none;color-rendering:auto;image-rendering:auto;shape-rendering:auto;text-rendering:auto;enable-background:accumulate" />
    <rect
       style="color:#000000;clip-rule:nonzero;display:inline;overflow:visible;visibility:visible;opacity:1;isolation:auto;mix-blend-mode:normal;color-interpolation:sRGB;color-interpolation-filters:linearRGB;solid-color:#000000;solid-opacity:1;fill:#96e0ff;fill-opacity:1;fill-rule:evenodd;stroke:#31c2ff;stroke-width:2;stroke-linecap:butt;stroke-linejoin:miter;stroke-miterlimit:4;stroke-dasharray:none;stroke-dashoffset:0;stroke-opacity:1;marker:none;color-rendering:auto;image-rendering:auto;shape-rendering:auto;text-rendering:auto;enable-background:accumulate"
       id="rect6310"
       width="55.119678"
       height="58.803802"
       x="-398.05325"
       y="443.58646"
       rx="0.514633"
       ry="0.486927" />
    <rect
       style="color:#000000;clip-rule:nonzero;display:inline;overflow:visible;visibility:visible;opacity:1;isolation:auto;mix-blend-mode:normal;color-interpolation:sRGB;color-interpolation-filters:linearRGB;solid-color:#000000;solid-opacity:1;fill:#f7a0ff;fill-opacity:1;fill-rule:evenodd;stroke:#f04aff;stroke-width:2;stroke-linecap:butt;stroke-linejoin:miter;stroke-miterlimit:4;stroke-dasharray:none;stroke-dashoffset:0;stroke-opacity:1;marker:none;color-rendering:auto;image-rendering:auto;shape-rendering:auto;text-rendering:auto;enable-background:accumulate"
       id="rect6388"
       width="40.734921"
       height="58.803818"
       x="-319.58951"
       y="443.58646"
       rx="0.514633"
       ry="0.486927" />
    <rect
       ry="0.486927"
       rx="0.514633"
       y="443.58646"
       x="-398.05325"
       height="58.803802"
       width="55.119678"
       id="rect6390"
       style="color:#000000;clip-rule:nonzero;display:inline;overflow:visible;visibility:visible;opacity:1;isolation:auto;mix-blend-mode:normal;color-interpolation:sRGB;color-interpolation-filters:linearRGB;solid-color:#000000;solid-opacity:1;fill:#96e0ff;fill-opacity:1;fill-rule:evenodd;stroke:#31c2ff;stroke-width:2;stroke-linecap:butt;stroke-linejoin:miter;stroke-miterlimit:4;stroke-dasharray:none;stroke-dashoffset:0;stroke-opacity:1;marker:none;color-rendering:auto;image-rendering:auto;shape-rendering:auto;text-rendering:auto;enable-background:accumulate" />
    <path
       style="fill:none;fill-rule:evenodd;stroke:#000000;stroke-width:1.70315552;stroke-linecap:butt;stroke-linejoin:miter;stroke-miterlimit:4;stroke-dasharray:none;stroke-opacity:1;marker-end:url(#marker6060)"
       d="m -294.01739,380.84093 c 0,0 20.92386,11.70171 21.59364,24.56373 0.67011,12.86839 -10.83495,21.60405 -10.83495,21.60405"
       id="path6668"
       inkscape:connector-curvature="0"
       sodipodi:nodetypes="csc" />
    <text
       xml:space="preserve"
       style="color:#000000;font-style:normal;font-variant:normal;font-weight:normal;font-stretch:normal;font-size:17.5px;line-height:100%;font-family:arial;-inkscape-font-specification:arial;text-indent:0;text-align:center;text-decoration:none;text-decoration-line:none;letter-spacing:0px;word-spacing:0px;text-transform:none;direction:ltr;block-progression:tb;writing-mode:lr-tb;baseline-shift:baseline;text-anchor:middle;display:inline;overflow:visible;visibility:visible;fill:#000000;fill-opacity:1;fill-rule:nonzero;stroke:none;stroke-width:1px;stroke-linecap:butt;stroke-linejoin:miter;stroke-opacity:1;marker:none;enable-background:accumulate"
       x="-375.89185"
       y="209.34892"
       id="text4348"
       sodipodi:linespacing="100%"><tspan
         id="tspan4352"
         sodipodi:role="line"
         style="font-style:normal;font-variant:normal;font-weight:normal;font-stretch:normal;font-size:17.5px;font-family:arial;-inkscape-font-specification:arial;stroke-linecap:square;stroke-linejoin:round"
         x="-375.89185"
         y="209.34892">(en milieu très visqueux)</tspan></text>
    <g
       id="content"
       transform="matrix(2.9328932,0,0,-2.9328932,-1137.8931,2341.1018)"
       xml:space="preserve"
       stroke-miterlimit="10.433"
       font-style="normal"
       font-variant="normal"
       font-weight="normal"
       font-stretch="normal"
       font-size-adjust="none"
       letter-spacing="normal"
       word-spacing="normal"
       ns0:text="$\\sum F  - \\gamma\\frac{dx}{dt} - \\kappa x = m\\frac{dx^2}{dt^2}$"
       ns0:preamble=""
       style="font-style:normal;font-variant:normal;font-weight:normal;font-stretch:normal;letter-spacing:normal;word-spacing:normal;text-anchor:start;fill:none;fill-opacity:1;fill-rule:evenodd;stroke:#000000;stroke-linecap:square;stroke-linejoin:round;stroke-miterlimit:10.43299961;stroke-dasharray:none;stroke-dashoffset:0;stroke-opacity:1"><path
         style="fill:#000000;stroke-width:0;stroke-linecap:square;stroke-linejoin:round"
         inkscape:connector-curvature="0"
         d="m 227.62,709.12 -3.53,-4.36 c -0.08,-0.1 -0.09,-0.12 -0.09,-0.16 0,-0.11 0.09,-0.11 0.27,-0.11 l 8.25,0 0.85,2.47 -0.25,0 c -0.25,-0.74 -0.91,-1.35 -1.76,-1.64 -0.16,-0.05 -0.84,-0.29 -2.31,-0.29 l -4.23,0 3.46,4.26 c 0.07,0.1 0.09,0.12 0.09,0.16 0,0.04 -0.01,0.05 -0.07,0.14 l -3.24,4.43 3.94,0 c 1.14,0 3.43,-0.07 4.12,-1.92 l 0.25,0 -0.85,2.32 -8.25,0 c -0.27,0 -0.28,-0.01 -0.28,-0.32 z"
         id="path4540" /><path
         style="fill:#000000;stroke-width:0;stroke-linecap:square;stroke-linejoin:round"
         inkscape:connector-curvature="0"
         d="m 238.62,710.18 0.97,0 c 0.75,0 0.82,-0.16 0.82,-0.45 0,-0.07 0,-0.19 -0.06,-0.49 -0.03,-0.05 -0.03,-0.09 -0.03,-0.11 0,-0.08 0.06,-0.12 0.11,-0.12 0.1,0 0.1,0.03 0.15,0.21 l 0.55,2.16 c 0.03,0.11 0.03,0.13 0.03,0.16 0,0.02 -0.02,0.11 -0.12,0.11 -0.1,0 -0.11,-0.05 -0.15,-0.21 -0.21,-0.78 -0.44,-0.96 -1.28,-0.96 l -0.91,0 0.64,2.53 c 0.09,0.34 0.1,0.39 0.54,0.39 l 1.31,0 c 1.22,0 1.45,-0.33 1.45,-1.1 0,-0.23 0,-0.27 -0.03,-0.53 -0.02,-0.13 -0.02,-0.15 -0.02,-0.18 0,-0.05 0.03,-0.12 0.12,-0.12 0.11,0 0.12,0.06 0.14,0.25 l 0.2,1.71 c 0.03,0.27 -0.02,0.27 -0.27,0.27 l -4.87,0 c -0.2,0 -0.3,0 -0.3,-0.2 0,-0.1 0.09,-0.1 0.28,-0.1 0.37,0 0.64,0 0.64,-0.18 0,-0.04 0,-0.06 -0.05,-0.24 l -1.31,-5.26 c -0.1,-0.38 -0.12,-0.46 -0.9,-0.46 -0.17,0 -0.28,0 -0.28,-0.19 0,-0.12 0.12,-0.12 0.15,-0.12 0.29,0 1.02,0.03 1.31,0.03 0.33,0 1.15,-0.03 1.48,-0.03 0.09,0 0.21,0 0.21,0.19 0,0.08 -0.06,0.1 -0.06,0.11 -0.03,0.01 -0.05,0.01 -0.28,0.01 -0.22,0 -0.27,0 -0.51,0.02 -0.29,0.03 -0.32,0.06 -0.32,0.19 0,0.02 0,0.08 0.04,0.23 z"
         id="path4542" /><path
         style="fill:#000000;stroke-width:0;stroke-linecap:square;stroke-linejoin:round"
         inkscape:connector-curvature="0"
         d="m 252.17,709.23 0.03,0 0.03,0 0.03,0 0.02,0.01 0.02,0 0.01,0 0.02,0 0.01,0 0.01,0 0.02,0.01 0.01,0 0.01,0 0.02,0.01 0.01,0 0.01,0.01 0.01,0 0.01,0.01 0.01,0.01 0.01,0.01 0.01,0.01 0.01,0.01 0,0 0,0.01 0.01,0 0,0.01 0,0.01 0.01,0 0,0.01 0,0.01 0,0 0,0.01 0,0.01 0.01,0.01 0,0 0,0.01 0,0.01 0,0.01 c 0,0.2 -0.18,0.2 -0.35,0.2 l -5.38,0 c -0.17,0 -0.35,0 -0.35,-0.2 0,-0.2 0.18,-0.2 0.35,-0.2 z"
         id="path4544" /><path
         style="fill:#000000;stroke-width:0;stroke-linecap:square;stroke-linejoin:round"
         inkscape:connector-curvature="0"
         d="m 255.98,709.47 0.02,0.05 0.02,0.05 0.02,0.05 0.02,0.05 0.03,0.05 0.02,0.04 0.02,0.05 0.03,0.04 0.02,0.04 0.03,0.04 0.03,0.04 0.02,0.03 0.06,0.07 0.06,0.06 0.06,0.06 0.06,0.05 0.06,0.05 0.07,0.05 0.06,0.04 0.06,0.03 0.07,0.04 0.06,0.03 0.06,0.02 0.06,0.02 0.06,0.02 0.06,0.02 0.05,0.01 0.06,0.02 0.05,0.01 0.05,0 0.04,0.01 0.04,0.01 0.04,0 0.03,0 0.03,0 0.02,0 0.02,0 0.02,0 c 1.5,0 1.61,-1.73 1.61,-2.52 0,-0.61 -0.05,-0.77 -0.12,-0.97 -0.22,-0.73 -0.52,-1.88 -0.52,-2.14 0,-0.11 0.05,-0.18 0.13,-0.18 0.13,0 0.21,0.22 0.32,0.6 0.23,0.83 0.33,1.4 0.37,1.71 0.02,0.13 0.04,0.26 0.07,0.38 0.32,0.99 0.96,2.47 1.36,3.25 0.07,0.12 0.19,0.34 0.19,0.38 0,0.1 -0.1,0.1 -0.12,0.1 -0.03,0 -0.09,0 -0.12,-0.07 -0.52,-0.94 -0.92,-1.94 -1.32,-2.94 0,0.31 -0.02,1.06 -0.4,2.03 -0.24,0.6 -0.64,1.09 -1.33,1.09 -1.24,0 -1.94,-1.51 -1.94,-1.82 0,-0.1 0.09,-0.1 0.19,-0.1 z"
         id="path4546" /><path
         style="fill:#000000;stroke-width:0;stroke-linecap:square;stroke-linejoin:round"
         inkscape:connector-curvature="0"
         d="m 266.46,715.49 0,0 0,0 0,0 0,0 0,0 0,0 0,0.01 0,0 0,0 0,0 0.01,0.01 0,0 0,0 0,0.01 0,0 0,0.01 0,0 0,0.01 0.01,0.01 0,0 0,0.01 0,0 0,0 0,0.01 0,0 0,0.01 0,0 0,0 0.01,0.01 0,0 0,0 0,0 0,0 0,0 0,0.01 0,0 0,0 0,0 0,0 0,0 0,0 c 0,0.03 -0.03,0.1 -0.11,0.1 -0.14,0 -0.72,-0.06 -0.9,-0.07 -0.05,-0.01 -0.15,-0.02 -0.15,-0.16 0,-0.1 0.1,-0.1 0.18,-0.1 0.34,0 0.34,-0.05 0.34,-0.1 0,-0.05 -0.02,-0.1 -0.03,-0.16 l -0.4,-1.58 c -0.15,0.23 -0.38,0.41 -0.72,0.41 l 0,-0.2 c 0.49,0 0.62,-0.53 0.62,-0.6 0,-0.03 -0.01,-0.08 -0.02,-0.1 l -0.32,-1.3 c -0.05,-0.19 -0.21,-0.33 -0.36,-0.47 -0.06,-0.05 -0.34,-0.27 -0.64,-0.27 -0.26,0 -0.51,0.18 -0.51,0.67 0,0.37 0.2,1.13 0.36,1.41 0.32,0.56 0.68,0.66 0.87,0.66 l 0,0.2 c -0.89,0 -1.79,-0.98 -1.79,-1.98 0,-0.68 0.45,-1.16 1.05,-1.16 0.37,0 0.71,0.22 0.99,0.49 0.13,-0.42 0.53,-0.49 0.72,-0.49 0.25,0 0.42,0.15 0.54,0.37 0.16,0.27 0.25,0.67 0.25,0.69 0,0.1 -0.09,0.1 -0.11,0.1 -0.1,0 -0.11,-0.03 -0.16,-0.22 -0.08,-0.33 -0.21,-0.74 -0.5,-0.74 -0.18,0 -0.23,0.15 -0.23,0.34 0,0.13 0.01,0.19 0.03,0.28 z"
         id="path4548" /><path
         style="fill:#000000;stroke-width:0;stroke-linecap:square;stroke-linejoin:round"
         inkscape:connector-curvature="0"
         d="m 268.36,711.61 0,-0.02 -0.01,-0.03 -0.01,-0.02 -0.01,-0.03 -0.01,-0.02 -0.01,-0.03 -0.02,-0.02 -0.01,-0.03 -0.01,-0.02 -0.02,-0.03 -0.01,-0.02 -0.02,-0.03 -0.02,-0.02 -0.02,-0.03 -0.02,-0.02 -0.02,-0.03 -0.02,-0.02 -0.02,-0.02 -0.02,-0.02 -0.03,-0.02 -0.02,-0.02 -0.03,-0.02 -0.02,-0.02 -0.03,-0.01 -0.03,-0.02 -0.02,-0.01 -0.03,-0.01 -0.03,-0.01 -0.03,0 -0.04,-0.01 -0.03,0 -0.03,0 c -0.02,0 -0.23,0 -0.38,0.09 0.29,0.09 0.31,0.34 0.31,0.39 0,0.15 -0.12,0.25 -0.28,0.25 -0.19,0 -0.4,-0.16 -0.4,-0.42 0,-0.35 0.39,-0.51 0.74,-0.51 0.32,0 0.6,0.2 0.78,0.49 0.16,-0.36 0.54,-0.49 0.82,-0.49 0.81,0 1.23,0.87 1.23,1.06 0,0.1 -0.09,0.1 -0.11,0.1 -0.1,0 -0.11,-0.04 -0.13,-0.12 -0.15,-0.48 -0.57,-0.84 -0.96,-0.84 -0.28,0 -0.42,0.18 -0.42,0.45 0,0.18 0.16,0.81 0.36,1.58 0.14,0.54 0.45,0.71 0.68,0.71 0.01,0 0.23,0 0.38,-0.09 -0.22,-0.07 -0.31,-0.26 -0.31,-0.39 0,-0.15 0.12,-0.25 0.28,-0.25 0.16,0 0.39,0.13 0.39,0.42 0,0.39 -0.45,0.51 -0.73,0.51 -0.34,0 -0.62,-0.23 -0.78,-0.5 -0.12,0.29 -0.44,0.5 -0.83,0.5 -0.78,0 -1.23,-0.86 -1.23,-1.07 0,-0.09 0.1,-0.09 0.12,-0.09 0.09,0 0.1,0.03 0.14,0.12 0.17,0.54 0.61,0.84 0.95,0.84 0.23,0 0.42,-0.12 0.42,-0.46 0,-0.13 -0.09,-0.48 -0.15,-0.72 z"
         id="path4550" /><line
         style="stroke-width:0.398;stroke-linecap:square;stroke-linejoin:round"
         x1="262.48001"
         y1="709.44"
         x2="271.14999"
         y2="709.44"
         id="line4552" /><path
         style="fill:#000000;stroke-width:0;stroke-linecap:square;stroke-linejoin:round"
         inkscape:connector-curvature="0"
         d="m 267.21,708.13 0,0 0,0 0,0 0,0 0,0 0.01,0.01 0,0 0,0 0,0 0,0 0,0.01 0,0 0,0.01 0,0 0,0.01 0,0 0.01,0 0,0.01 0,0.01 0,0.01 0,0 0,0.01 0,0 0.01,0.01 0,0 0,0 0,0.01 0,0 0,0 0,0 0,0 0,0.01 0,0 0,0 0,0 0,0 0,0 0,0 0,0 0,0 c 0,0.04 -0.03,0.1 -0.11,0.1 -0.14,0 -0.72,-0.06 -0.89,-0.07 -0.06,-0.01 -0.16,-0.01 -0.16,-0.16 0,-0.1 0.1,-0.1 0.19,-0.1 0.33,0 0.33,-0.05 0.33,-0.1 0,-0.05 -0.01,-0.09 -0.03,-0.15 l -0.4,-1.59 c -0.14,0.23 -0.38,0.41 -0.71,0.41 l 0,-0.19 c 0.49,0 0.62,-0.53 0.62,-0.61 0,-0.03 -0.02,-0.08 -0.02,-0.1 l -0.33,-1.3 c -0.05,-0.19 -0.2,-0.33 -0.36,-0.46 -0.06,-0.06 -0.34,-0.28 -0.64,-0.28 -0.25,0 -0.5,0.18 -0.5,0.67 0,0.37 0.2,1.14 0.36,1.41 0.32,0.56 0.67,0.67 0.87,0.67 l 0,0.19 c -0.89,0 -1.8,-0.98 -1.8,-1.98 0,-0.68 0.45,-1.16 1.05,-1.16 0.38,0 0.71,0.22 0.99,0.49 0.13,-0.42 0.54,-0.49 0.72,-0.49 0.25,0 0.42,0.16 0.55,0.37 0.15,0.27 0.24,0.67 0.24,0.7 0,0.09 -0.09,0.09 -0.11,0.09 -0.1,0 -0.1,-0.03 -0.15,-0.22 -0.09,-0.33 -0.22,-0.74 -0.51,-0.74 -0.18,0 -0.23,0.15 -0.23,0.34 0,0.13 0.01,0.19 0.03,0.28 z"
         id="path4554" /><path
         style="fill:#000000;stroke-width:0;stroke-linecap:square;stroke-linejoin:round"
         inkscape:connector-curvature="0"
         d="m 269.1,706.26 0.71,0 c 0.13,0 0.22,0 0.22,0.15 0,0.1 -0.09,0.1 -0.21,0.1 l -0.66,0 0.26,1.03 c 0,0.03 0.02,0.07 0.02,0.1 0,0.12 -0.1,0.22 -0.24,0.22 -0.17,0 -0.28,-0.12 -0.33,-0.3 -0.04,-0.17 0.05,0.16 -0.26,-1.05 l -0.71,0 c -0.13,0 -0.22,0 -0.22,-0.15 0,-0.1 0.08,-0.1 0.21,-0.1 l 0.66,0 -0.41,-1.64 c -0.05,-0.17 -0.11,-0.43 -0.11,-0.52 0,-0.41 0.35,-0.66 0.75,-0.66 0.77,0 1.21,0.98 1.21,1.07 0,0.09 -0.09,0.09 -0.11,0.09 -0.09,0 -0.09,-0.02 -0.15,-0.13 -0.19,-0.44 -0.55,-0.83 -0.93,-0.83 -0.15,0 -0.25,0.09 -0.25,0.34 0,0.07 0.03,0.21 0.05,0.28 z"
         id="path4556" /><path
         style="fill:#000000;stroke-width:0;stroke-linecap:square;stroke-linejoin:round"
         inkscape:connector-curvature="0"
         d="m 281.11,709.23 0.04,0 0.03,0 0.03,0 0.01,0.01 0.02,0 0.01,0 0.02,0 0.01,0 0.02,0 0.01,0.01 0.02,0 0.01,0 0.01,0.01 0.01,0 0.02,0.01 0.01,0 0.01,0.01 0.01,0.01 0.01,0.01 0,0.01 0.01,0.01 0,0 0.01,0.01 0,0 0,0.01 0.01,0.01 0,0 0,0.01 0,0.01 0.01,0 0,0.01 0,0.01 0,0.01 0,0 0,0.01 0,0.01 0,0.01 c 0,0.2 -0.18,0.2 -0.35,0.2 l -5.38,0 c -0.17,0 -0.35,0 -0.35,-0.2 0,-0.2 0.18,-0.2 0.35,-0.2 z"
         id="path4558" /><path
         style="fill:#000000;stroke-width:0;stroke-linecap:square;stroke-linejoin:round"
         inkscape:connector-curvature="0"
         d="m 285.11,707.34 -0.01,-0.01 0,-0.01 0,0 0,-0.01 0,-0.01 -0.01,-0.01 0,-0.01 0,-0.01 0,-0.01 -0.01,-0.01 0,-0.01 0,-0.01 0,0 0,-0.01 -0.01,-0.01 0,0 0,-0.01 0,0 0,-0.01 0,-0.01 0,-0.01 0,-0.01 0,-0.01 0,-0.01 0,0 0,-0.01 0,0 0,-0.01 0,-0.01 0,0 c 0,-0.18 0.14,-0.27 0.29,-0.27 0.29,0 0.35,0.24 0.43,0.56 0.1,0.35 0.04,0.16 0.47,1.83 0.84,-0.03 1.7,-0.2 1.7,-0.84 0,-0.07 0,-0.12 -0.02,-0.22 -0.04,-0.16 -0.05,-0.27 -0.05,-0.35 0,-0.58 0.4,-0.98 0.92,-0.98 0.32,0 0.57,0.18 0.77,0.51 0.25,0.42 0.37,1 0.37,1.02 0,0.1 -0.09,0.1 -0.12,0.1 -0.1,0 -0.11,-0.04 -0.14,-0.18 -0.19,-0.69 -0.42,-1.23 -0.86,-1.23 -0.21,0 -0.32,0.13 -0.32,0.47 0,0.15 0.04,0.39 0.08,0.56 0.02,0.09 0.05,0.22 0.05,0.33 0,0.93 -1.37,1 -1.93,1.02 0.33,0.18 0.64,0.45 0.91,0.68 0.46,0.38 0.75,0.62 1.15,0.79 -0.02,-0.05 -0.05,-0.17 -0.05,-0.22 0,-0.12 0.07,-0.35 0.38,-0.35 0.31,0 0.53,0.29 0.53,0.54 0,0.09 -0.04,0.35 -0.4,0.35 -0.6,0 -1.19,-0.5 -1.63,-0.87 -0.67,-0.57 -0.91,-0.72 -1.27,-0.84 0.03,0.11 0.15,0.61 0.2,0.78 0.06,0.25 0.18,0.72 0.18,0.77 0,0.17 -0.12,0.27 -0.29,0.27 -0.03,0 -0.31,0 -0.4,-0.36 z"
         id="path4560" /><path
         style="fill:#000000;stroke-width:0;stroke-linecap:square;stroke-linejoin:round"
         inkscape:connector-curvature="0"
         d="m 293.58,709.95 0.01,0.02 0.01,0.03 0,0.04 0.01,0.03 0.01,0.04 0.02,0.04 0.01,0.05 0.01,0.04 0.02,0.05 0.02,0.04 0.02,0.05 0.02,0.05 0.02,0.05 0.02,0.05 0.03,0.05 0.03,0.05 0.03,0.05 0.03,0.05 0.03,0.04 0.04,0.05 0.03,0.04 0.04,0.04 0.04,0.04 0.05,0.03 0.04,0.04 0.05,0.02 0.03,0.02 0.02,0.01 0.03,0.01 0.03,0.01 0.03,0.01 0.02,0.01 0.03,0 0.03,0.01 0.03,0 0.03,0.01 0.04,0 0.03,0 c 0.05,0 0.29,0 0.5,-0.13 -0.28,-0.05 -0.48,-0.3 -0.48,-0.53 0,-0.16 0.11,-0.35 0.37,-0.35 0.22,0 0.54,0.18 0.54,0.57 0,0.52 -0.58,0.66 -0.92,0.66 -0.58,0 -0.93,-0.53 -1.05,-0.76 -0.25,0.66 -0.78,0.76 -1.07,0.76 -1.04,0 -1.6,-1.28 -1.6,-1.53 0,-0.1 0.1,-0.1 0.12,-0.1 0.07,0 0.1,0.02 0.13,0.11 0.33,1.05 0.99,1.3 1.33,1.3 0.19,0 0.54,-0.09 0.54,-0.66 0,-0.31 -0.17,-0.98 -0.54,-2.37 -0.16,-0.62 -0.51,-1.03 -0.95,-1.03 -0.06,0 -0.29,0 -0.49,0.13 0.24,0.05 0.46,0.26 0.46,0.53 0,0.27 -0.22,0.35 -0.36,0.35 -0.3,0 -0.55,-0.26 -0.55,-0.58 0,-0.45 0.5,-0.65 0.93,-0.65 0.66,0 1.02,0.69 1.05,0.75 0.12,-0.36 0.48,-0.75 1.07,-0.75 1.03,0 1.59,1.28 1.59,1.53 0,0.1 -0.08,0.1 -0.11,0.1 -0.1,0 -0.12,-0.04 -0.13,-0.11 -0.33,-1.06 -1.01,-1.3 -1.33,-1.3 -0.39,0 -0.54,0.32 -0.54,0.65 0,0.22 0.06,0.44 0.16,0.88 z"
         id="path4562" /><path
         style="fill:#000000;stroke-width:0;stroke-linecap:square;stroke-linejoin:round"
         inkscape:connector-curvature="0"
         d="m 305.56,710.2 0.02,0 0.03,0 0.03,0 0.02,0 0.01,0 0.02,0 0.01,0 0.01,0 0.02,0.01 0.01,0 0.02,0 0.01,0.01 0.01,0 0.01,0.01 0.01,0 0.02,0.01 0.01,0 0.01,0.01 0.01,0.01 0,0.01 0.01,0.01 0.01,0.01 0,0 0,0.01 0.01,0 0,0.01 0,0.01 0,0 0.01,0.01 0,0.01 0,0 0,0.01 0,0.01 0,0.01 0,0.01 0,0.01 0,0.01 c 0,0.19 -0.19,0.19 -0.32,0.19 l -5.96,0 c -0.14,0 -0.33,0 -0.33,-0.19 0,-0.2 0.19,-0.2 0.34,-0.2 z"
         id="path4564" /><path
         style="fill:#000000;stroke-width:0;stroke-linecap:square;stroke-linejoin:round"
         inkscape:connector-curvature="0"
         d="m 305.57,708.27 0.01,0 0.01,0 0.03,0 0.03,0 0.01,0 0.02,0 0.01,0 0.01,0.01 0.02,0 0.01,0 0.01,0 0.02,0.01 0.01,0 0.01,0 0.01,0.01 0.02,0 0.01,0.01 0.01,0.01 0.01,0.01 0.01,0 0,0.01 0.01,0.01 0,0 0.01,0.01 0,0 0,0.01 0.01,0.01 0,0 0,0.01 0,0.01 0.01,0 0,0.01 0,0.01 0,0 0,0.01 0,0.01 0,0.01 0,0.01 0,0.01 c 0,0.2 -0.19,0.2 -0.33,0.2 l -5.94,0 c -0.15,0 -0.34,0 -0.34,-0.2 0,-0.2 0.19,-0.2 0.33,-0.2 z"
         id="path4566" /><path
         style="fill:#000000;stroke-width:0;stroke-linecap:square;stroke-linejoin:round"
         inkscape:connector-curvature="0"
         d="m 310.11,707.53 0,-0.01 0,-0.01 -0.01,-0.02 0,-0.02 -0.01,-0.03 0,-0.03 -0.01,-0.03 -0.01,-0.03 -0.01,-0.04 0,-0.03 -0.01,-0.01 0,-0.02 0,-0.01 -0.01,-0.02 0,-0.01 0,-0.01 0,-0.01 -0.01,-0.02 0,-0.01 0,-0.01 0,-0.01 0,-0.01 -0.01,0 0,-0.01 0,-0.01 0,0 c 0,-0.18 0.14,-0.27 0.29,-0.27 0.12,0 0.3,0.08 0.37,0.28 0.01,0.02 0.13,0.48 0.19,0.73 l 0.22,0.9 c 0.06,0.22 0.12,0.43 0.17,0.66 0.04,0.17 0.12,0.46 0.13,0.5 0.15,0.31 0.67,1.21 1.62,1.21 0.45,0 0.54,-0.37 0.54,-0.7 0,-0.24 -0.07,-0.52 -0.15,-0.82 l -0.28,-1.15 -0.2,-0.76 c -0.04,-0.2 -0.13,-0.53 -0.13,-0.58 0,-0.18 0.14,-0.27 0.29,-0.27 0.31,0 0.37,0.25 0.44,0.57 0.14,0.55 0.51,2 0.6,2.39 0.03,0.13 0.56,1.32 1.64,1.32 0.43,0 0.54,-0.34 0.54,-0.7 0,-0.56 -0.42,-1.69 -0.62,-2.22 -0.08,-0.24 -0.13,-0.35 -0.13,-0.55 0,-0.46 0.35,-0.81 0.82,-0.81 0.94,0 1.3,1.45 1.3,1.53 0,0.1 -0.09,0.1 -0.12,0.1 -0.1,0 -0.1,-0.03 -0.15,-0.18 -0.14,-0.53 -0.46,-1.23 -1.01,-1.23 -0.17,0 -0.24,0.1 -0.24,0.33 0,0.24 0.09,0.48 0.18,0.7 0.19,0.52 0.61,1.62 0.61,2.19 0,0.64 -0.4,1.06 -1.15,1.06 -0.74,0 -1.25,-0.44 -1.62,-0.96 -0.01,0.12 -0.04,0.46 -0.32,0.7 -0.24,0.21 -0.56,0.26 -0.81,0.26 -0.9,0 -1.39,-0.64 -1.56,-0.87 -0.04,0.57 -0.46,0.87 -0.91,0.87 -0.46,0 -0.65,-0.39 -0.74,-0.57 -0.18,-0.35 -0.3,-0.93 -0.3,-0.96 0,-0.1 0.09,-0.1 0.11,-0.1 0.1,0 0.11,0.01 0.17,0.23 0.17,0.7 0.37,1.18 0.73,1.18 0.16,0 0.31,-0.08 0.31,-0.46 0,-0.2 -0.03,-0.32 -0.16,-0.83 z"
         id="path4568" /><path
         style="fill:#000000;stroke-width:0;stroke-linecap:square;stroke-linejoin:round"
         inkscape:connector-curvature="0"
         d="m 323.16,715.49 0,0 0,0 0,0 0,0 0,0 0,0 0,0.01 0,0 0,0 0,0 0,0.01 0,0 0.01,0 0,0.01 0,0 0,0.01 0,0 0,0.01 0,0.01 0,0 0.01,0.01 0,0 0,0 0,0.01 0,0 0,0.01 0,0 0,0 0,0.01 0,0 0,0 0,0 0,0 0,0 0,0.01 0,0 0,0 0,0 0,0 0,0 0,0 c 0,0.03 -0.02,0.1 -0.11,0.1 -0.14,0 -0.71,-0.06 -0.89,-0.07 -0.05,-0.01 -0.15,-0.02 -0.15,-0.16 0,-0.1 0.1,-0.1 0.18,-0.1 0.33,0 0.33,-0.05 0.33,-0.1 0,-0.05 -0.01,-0.1 -0.02,-0.16 l -0.4,-1.58 c -0.15,0.23 -0.38,0.41 -0.72,0.41 l 0,-0.2 c 0.49,0 0.62,-0.53 0.62,-0.6 0,-0.03 -0.01,-0.08 -0.02,-0.1 l -0.33,-1.3 c -0.05,-0.19 -0.2,-0.33 -0.35,-0.47 -0.06,-0.05 -0.34,-0.27 -0.64,-0.27 -0.26,0 -0.51,0.18 -0.51,0.67 0,0.37 0.2,1.13 0.36,1.41 0.32,0.56 0.68,0.66 0.87,0.66 l 0,0.2 c -0.89,0 -1.79,-0.98 -1.79,-1.98 0,-0.68 0.45,-1.16 1.05,-1.16 0.37,0 0.71,0.22 0.98,0.49 0.14,-0.42 0.54,-0.49 0.72,-0.49 0.25,0 0.43,0.15 0.55,0.37 0.16,0.27 0.25,0.67 0.25,0.69 0,0.1 -0.09,0.1 -0.11,0.1 -0.1,0 -0.11,-0.03 -0.16,-0.22 -0.08,-0.33 -0.21,-0.74 -0.51,-0.74 -0.18,0 -0.23,0.15 -0.23,0.34 0,0.13 0.02,0.19 0.04,0.28 z"
         id="path4570" /><path
         style="fill:#000000;stroke-width:0;stroke-linecap:square;stroke-linejoin:round"
         inkscape:connector-curvature="0"
         d="m 325.06,711.61 -0.01,-0.02 0,-0.03 -0.01,-0.02 -0.01,-0.03 -0.01,-0.02 -0.01,-0.03 -0.02,-0.02 -0.01,-0.03 -0.01,-0.02 -0.02,-0.03 -0.02,-0.02 -0.01,-0.03 -0.02,-0.02 -0.02,-0.03 -0.02,-0.02 -0.02,-0.03 -0.02,-0.02 -0.02,-0.02 -0.02,-0.02 -0.03,-0.02 -0.02,-0.02 -0.03,-0.02 -0.02,-0.02 -0.03,-0.01 -0.03,-0.02 -0.03,-0.01 -0.03,-0.01 -0.03,-0.01 -0.03,0 -0.03,-0.01 -0.03,0 -0.03,0 c -0.02,0 -0.23,0 -0.38,0.09 0.29,0.09 0.31,0.34 0.31,0.39 0,0.15 -0.12,0.25 -0.28,0.25 -0.2,0 -0.4,-0.16 -0.4,-0.42 0,-0.35 0.39,-0.51 0.73,-0.51 0.32,0 0.61,0.2 0.78,0.49 0.17,-0.36 0.55,-0.49 0.83,-0.49 0.8,0 1.23,0.87 1.23,1.06 0,0.1 -0.09,0.1 -0.11,0.1 -0.1,0 -0.11,-0.04 -0.14,-0.12 -0.14,-0.48 -0.56,-0.84 -0.95,-0.84 -0.28,0 -0.42,0.18 -0.42,0.45 0,0.18 0.16,0.81 0.36,1.58 0.14,0.54 0.45,0.71 0.68,0.71 0.01,0 0.23,0 0.37,-0.09 -0.22,-0.07 -0.3,-0.26 -0.3,-0.39 0,-0.15 0.12,-0.25 0.28,-0.25 0.16,0 0.39,0.13 0.39,0.42 0,0.39 -0.45,0.51 -0.73,0.51 -0.34,0 -0.62,-0.23 -0.78,-0.5 -0.12,0.29 -0.44,0.5 -0.83,0.5 -0.78,0 -1.23,-0.86 -1.23,-1.07 0,-0.09 0.1,-0.09 0.12,-0.09 0.09,0 0.1,0.03 0.13,0.12 0.18,0.54 0.61,0.84 0.96,0.84 0.23,0 0.42,-0.12 0.42,-0.46 0,-0.13 -0.09,-0.48 -0.15,-0.72 z"
         id="path4572" /><path
         style="fill:#000000;stroke-width:0;stroke-linecap:square;stroke-linejoin:round"
         inkscape:connector-curvature="0"
         d="m 330.77,714.84 -0.2,0 c -0.02,-0.1 -0.07,-0.41 -0.15,-0.45 -0.04,-0.04 -0.46,-0.04 -0.53,-0.04 l -0.97,0 c 0.32,0.25 0.69,0.53 0.99,0.73 0.45,0.3 0.86,0.59 0.86,1.12 0,0.63 -0.6,0.99 -1.31,0.99 -0.67,0 -1.16,-0.39 -1.16,-0.88 0,-0.26 0.22,-0.3 0.29,-0.3 0.13,0 0.29,0.09 0.29,0.29 0,0.18 -0.13,0.28 -0.28,0.29 0.14,0.23 0.42,0.38 0.76,0.38 0.48,0 0.88,-0.29 0.88,-0.78 0,-0.41 -0.29,-0.73 -0.67,-1.05 l -1.21,-1.03 c -0.05,-0.05 -0.06,-0.05 -0.06,-0.08 l 0,-0.15 2.31,0 z"
         id="path4574" /><line
         style="stroke-width:0.398;stroke-linecap:square;stroke-linejoin:round"
         x1="319.17999"
         y1="709.44"
         x2="331.73001"
         y2="709.44"
         id="line4576" /><path
         style="fill:#000000;stroke-width:0;stroke-linecap:square;stroke-linejoin:round"
         inkscape:connector-curvature="0"
         d="m 323.91,708.13 0,0 0,0 0,0 0,0 0,0 0,0.01 0,0 0,0 0.01,0 0,0 0,0.01 0,0 0,0.01 0,0 0,0.01 0,0 0,0 0.01,0.01 0,0.01 0,0.01 0,0 0,0.01 0,0 0,0.01 0,0 0.01,0 0,0.01 0,0 0,0 0,0 0,0 0,0.01 0,0 0,0 0,0 0,0 0,0 0,0 0,0 0,0 c 0,0.04 -0.03,0.1 -0.11,0.1 -0.14,0 -0.72,-0.06 -0.89,-0.07 -0.06,-0.01 -0.16,-0.01 -0.16,-0.16 0,-0.1 0.1,-0.1 0.18,-0.1 0.34,0 0.34,-0.05 0.34,-0.1 0,-0.05 -0.02,-0.09 -0.03,-0.15 l -0.4,-1.59 c -0.14,0.23 -0.38,0.41 -0.71,0.41 l 0,-0.19 c 0.48,0 0.61,-0.53 0.61,-0.61 0,-0.03 -0.01,-0.08 -0.01,-0.1 l -0.33,-1.3 c -0.05,-0.19 -0.2,-0.33 -0.36,-0.46 -0.06,-0.06 -0.34,-0.28 -0.64,-0.28 -0.26,0 -0.51,0.18 -0.51,0.67 0,0.37 0.2,1.14 0.37,1.41 0.32,0.56 0.67,0.67 0.87,0.67 l 0,0.19 c -0.9,0 -1.8,-0.98 -1.8,-1.98 0,-0.68 0.45,-1.16 1.05,-1.16 0.38,0 0.71,0.22 0.99,0.49 0.13,-0.42 0.54,-0.49 0.72,-0.49 0.25,0 0.42,0.16 0.55,0.37 0.15,0.27 0.24,0.67 0.24,0.7 0,0.09 -0.09,0.09 -0.11,0.09 -0.1,0 -0.1,-0.03 -0.15,-0.22 -0.09,-0.33 -0.22,-0.74 -0.51,-0.74 -0.18,0 -0.23,0.15 -0.23,0.34 0,0.13 0.01,0.19 0.03,0.28 z"
         id="path4578" /><path
         style="fill:#000000;stroke-width:0;stroke-linecap:square;stroke-linejoin:round"
         inkscape:connector-curvature="0"
         d="m 325.8,706.26 0.71,0 c 0.13,0 0.22,0 0.22,0.15 0,0.1 -0.09,0.1 -0.21,0.1 l -0.66,0 0.25,1.03 c 0.01,0.03 0.03,0.07 0.03,0.1 0,0.12 -0.1,0.22 -0.24,0.22 -0.17,0 -0.28,-0.12 -0.33,-0.3 -0.05,-0.17 0.04,0.16 -0.26,-1.05 l -0.71,0 c -0.14,0 -0.23,0 -0.23,-0.15 0,-0.1 0.09,-0.1 0.21,-0.1 l 0.66,0 -0.41,-1.64 c -0.04,-0.17 -0.1,-0.43 -0.1,-0.52 0,-0.41 0.35,-0.66 0.74,-0.66 0.78,0 1.22,0.98 1.22,1.07 0,0.09 -0.09,0.09 -0.11,0.09 -0.09,0 -0.1,-0.02 -0.15,-0.13 -0.2,-0.44 -0.55,-0.83 -0.94,-0.83 -0.14,0 -0.24,0.09 -0.24,0.34 0,0.07 0.03,0.21 0.04,0.28 z"
         id="path4580" /><path
         style="fill:#000000;stroke-width:0;stroke-linecap:square;stroke-linejoin:round"
         inkscape:connector-curvature="0"
         d="m 330.02,706.46 -0.21,0 c -0.01,-0.09 -0.06,-0.4 -0.14,-0.45 -0.04,-0.03 -0.46,-0.03 -0.53,-0.03 l -0.98,0 c 0.33,0.24 0.7,0.52 0.99,0.72 0.45,0.31 0.87,0.6 0.87,1.13 0,0.63 -0.6,0.98 -1.31,0.98 -0.67,0 -1.17,-0.38 -1.17,-0.87 0,-0.26 0.22,-0.3 0.29,-0.3 0.14,0 0.3,0.08 0.3,0.29 0,0.18 -0.13,0.28 -0.29,0.29 0.14,0.23 0.43,0.37 0.76,0.37 0.49,0 0.89,-0.28 0.89,-0.77 0,-0.42 -0.29,-0.74 -0.67,-1.06 l -1.22,-1.03 c -0.05,-0.04 -0.05,-0.04 -0.06,-0.08 l 0,-0.14 2.32,0 z"
         id="path4582" /></g>    <g
       style="font-style:normal;font-variant:normal;font-weight:normal;font-stretch:normal;letter-spacing:normal;word-spacing:normal;text-anchor:start;fill:none;fill-opacity:1;fill-rule:evenodd;stroke:#000000;stroke-linecap:square;stroke-linejoin:round;stroke-miterlimit:10.43299961;stroke-dasharray:none;stroke-dashoffset:0;stroke-opacity:1"
       ns0:preamble=""
       ns0:text="$\\sum F - \xce\xb3\\gamma \\frac{dx}{dt} - \\kappa x = 0$"
       word-spacing="normal"
       letter-spacing="normal"
       font-size-adjust="none"
       font-stretch="normal"
       font-weight="normal"
       font-variant="normal"
       font-style="normal"
       stroke-miterlimit="10.433"
       xml:space="preserve"
       transform="matrix(2.7339181,0,0,-2.7339181,-1093.3247,2412.3065)"
       id="g4920"><path
         id="path4922"
         d="m 227.62,709.29 -3.53,-4.36 c -0.08,-0.1 -0.09,-0.12 -0.09,-0.16 0,-0.11 0.09,-0.11 0.27,-0.11 l 8.25,0 0.85,2.48 -0.25,0 c -0.25,-0.75 -0.91,-1.35 -1.76,-1.64 -0.16,-0.05 -0.84,-0.29 -2.31,-0.29 l -4.23,0 3.46,4.26 c 0.07,0.09 0.09,0.12 0.09,0.16 0,0.04 -0.01,0.05 -0.07,0.14 l -3.24,4.43 3.94,0 c 1.14,0 3.43,-0.07 4.12,-1.93 l 0.25,0 -0.85,2.33 -8.25,0 c -0.27,0 -0.28,-0.01 -0.28,-0.32 z"
         inkscape:connector-curvature="0"
         style="fill:#000000;stroke-width:0;stroke-linecap:square;stroke-linejoin:round" /><path
         id="path4924"
         d="m 238.62,710.35 0.97,0 c 0.75,0 0.82,-0.15 0.82,-0.44 0,-0.07 0,-0.19 -0.06,-0.49 -0.03,-0.05 -0.03,-0.09 -0.03,-0.11 0,-0.08 0.06,-0.12 0.11,-0.12 0.1,0 0.1,0.03 0.15,0.21 l 0.55,2.15 c 0.03,0.11 0.03,0.13 0.03,0.16 0,0.02 -0.02,0.11 -0.12,0.11 -0.1,0 -0.11,-0.05 -0.15,-0.21 -0.21,-0.77 -0.44,-0.95 -1.28,-0.95 l -0.91,0 0.64,2.52 c 0.09,0.35 0.1,0.39 0.54,0.39 l 1.31,0 c 1.22,0 1.45,-0.33 1.45,-1.09 0,-0.23 0,-0.27 -0.03,-0.54 -0.02,-0.13 -0.02,-0.15 -0.02,-0.18 0,-0.05 0.03,-0.11 0.12,-0.11 0.11,0 0.12,0.06 0.14,0.24 l 0.2,1.72 c 0.03,0.27 -0.02,0.27 -0.27,0.27 l -4.87,0 c -0.2,0 -0.3,0 -0.3,-0.2 0,-0.11 0.09,-0.11 0.28,-0.11 0.37,0 0.64,0 0.64,-0.18 0,-0.04 0,-0.06 -0.05,-0.23 l -1.31,-5.26 c -0.1,-0.39 -0.12,-0.47 -0.9,-0.47 -0.17,0 -0.28,0 -0.28,-0.19 0,-0.12 0.12,-0.12 0.15,-0.12 0.29,0 1.02,0.04 1.31,0.04 0.33,0 1.15,-0.04 1.48,-0.04 0.09,0 0.21,0 0.21,0.19 0,0.08 -0.06,0.1 -0.06,0.11 -0.03,0.01 -0.05,0.01 -0.28,0.01 -0.22,0 -0.27,0 -0.51,0.02 -0.29,0.03 -0.32,0.07 -0.32,0.2 0,0.02 0,0.08 0.04,0.23 z"
         inkscape:connector-curvature="0"
         style="fill:#000000;stroke-width:0;stroke-linecap:square;stroke-linejoin:round" /><path
         id="path4926"
         d="m 252.17,709.41 0.03,0 0.03,0 0.03,0 0.02,0 0.02,0 0.01,0 0.02,0.01 0.01,0 0.01,0 0.02,0 0.01,0.01 0.01,0 0.02,0 0.01,0.01 0.01,0.01 0.01,0 0.01,0.01 0.01,0.01 0.01,0 0.01,0.01 0.01,0.01 0,0.01 0,0 0.01,0.01 0,0.01 0,0 0.01,0.01 0,0.01 0,0 0,0.01 0,0.01 0,0.01 0.01,0 0,0.01 0,0.01 0,0.01 0,0.01 c 0,0.2 -0.18,0.2 -0.35,0.2 l -5.38,0 c -0.17,0 -0.35,0 -0.35,-0.2 0,-0.2 0.18,-0.2 0.35,-0.2 z"
         inkscape:connector-curvature="0"
         style="fill:#000000;stroke-width:0;stroke-linecap:square;stroke-linejoin:round" /><path
         id="path4928"
         d="m 255.98,709.65 0.02,0.05 0.02,0.05 0.02,0.05 0.02,0.05 0.03,0.05 0.02,0.04 0.02,0.04 0.03,0.05 0.02,0.04 0.03,0.04 0.03,0.03 0.02,0.04 0.06,0.07 0.06,0.06 0.06,0.06 0.06,0.05 0.06,0.05 0.07,0.05 0.06,0.04 0.06,0.03 0.07,0.03 0.06,0.03 0.06,0.03 0.06,0.02 0.06,0.02 0.06,0.02 0.05,0.01 0.06,0.01 0.05,0.01 0.05,0.01 0.04,0.01 0.04,0 0.04,0.01 0.03,0 0.03,0 0.02,0 0.02,0 0.02,0 c 1.5,0 1.61,-1.74 1.61,-2.52 0,-0.61 -0.05,-0.78 -0.12,-0.98 -0.22,-0.72 -0.52,-1.87 -0.52,-2.13 0,-0.11 0.05,-0.18 0.13,-0.18 0.13,0 0.21,0.22 0.32,0.6 0.23,0.83 0.33,1.4 0.37,1.7 0.02,0.13 0.04,0.26 0.07,0.39 0.32,0.98 0.96,2.47 1.36,3.25 0.07,0.12 0.19,0.34 0.19,0.38 0,0.1 -0.1,0.1 -0.12,0.1 -0.03,0 -0.09,0 -0.12,-0.07 -0.52,-0.95 -0.92,-1.94 -1.32,-2.94 0,0.3 -0.02,1.06 -0.4,2.02 -0.24,0.61 -0.64,1.1 -1.33,1.1 -1.24,0 -1.94,-1.51 -1.94,-1.82 0,-0.1 0.09,-0.1 0.19,-0.1 z"
         inkscape:connector-curvature="0"
         style="fill:#000000;stroke-width:0;stroke-linecap:square;stroke-linejoin:round" /><path
         id="path4930"
         d="m 266.46,715.66 0,0.01 0,0 0,0 0,0 0,0 0,0 0,0 0,0 0,0.01 0,0 0.01,0 0,0.01 0,0 0,0.01 0,0 0,0 0,0.01 0,0 0.01,0.01 0,0.01 0,0 0,0.01 0,0 0,0.01 0,0 0,0 0,0.01 0,0 0.01,0 0,0.01 0,0 0,0 0,0 0,0 0,0 0,0 0,0 0,0 0,0.01 0,0 0,0 c 0,0.03 -0.03,0.09 -0.11,0.09 -0.14,0 -0.72,-0.05 -0.9,-0.07 -0.05,0 -0.15,-0.01 -0.15,-0.16 0,-0.09 0.1,-0.09 0.18,-0.09 0.34,0 0.34,-0.05 0.34,-0.11 0,-0.05 -0.02,-0.09 -0.03,-0.15 l -0.4,-1.59 c -0.15,0.23 -0.38,0.41 -0.72,0.41 l 0,-0.19 c 0.49,0 0.62,-0.53 0.62,-0.6 0,-0.03 -0.01,-0.08 -0.02,-0.1 l -0.32,-1.3 c -0.05,-0.2 -0.21,-0.34 -0.36,-0.47 -0.06,-0.05 -0.34,-0.28 -0.64,-0.28 -0.26,0 -0.51,0.18 -0.51,0.68 0,0.37 0.2,1.13 0.36,1.41 0.32,0.56 0.68,0.66 0.87,0.66 l 0,0.19 c -0.89,0 -1.79,-0.98 -1.79,-1.98 0,-0.67 0.45,-1.15 1.05,-1.15 0.37,0 0.71,0.21 0.99,0.49 0.13,-0.42 0.53,-0.49 0.72,-0.49 0.25,0 0.42,0.15 0.54,0.37 0.16,0.27 0.25,0.67 0.25,0.69 0,0.09 -0.09,0.09 -0.11,0.09 -0.1,0 -0.11,-0.03 -0.16,-0.21 -0.08,-0.34 -0.21,-0.75 -0.5,-0.75 -0.18,0 -0.23,0.16 -0.23,0.34 0,0.14 0.01,0.2 0.03,0.29 z"
         inkscape:connector-curvature="0"
         style="fill:#000000;stroke-width:0;stroke-linecap:square;stroke-linejoin:round" /><path
         id="path4932"
         d="m 268.36,711.78 0,-0.02 -0.01,-0.02 -0.01,-0.02 -0.01,-0.03 -0.01,-0.02 -0.01,-0.03 -0.02,-0.02 -0.01,-0.03 -0.01,-0.03 -0.02,-0.02 -0.01,-0.03 -0.02,-0.02 -0.02,-0.03 -0.02,-0.02 -0.02,-0.03 -0.02,-0.02 -0.02,-0.02 -0.02,-0.02 -0.02,-0.03 -0.03,-0.02 -0.02,-0.01 -0.03,-0.02 -0.02,-0.02 -0.03,-0.01 -0.03,-0.02 -0.02,-0.01 -0.03,-0.01 -0.03,-0.01 -0.03,-0.01 -0.04,0 -0.03,-0.01 -0.03,0 c -0.02,0 -0.23,0 -0.38,0.1 0.29,0.09 0.31,0.34 0.31,0.38 0,0.16 -0.12,0.26 -0.28,0.26 -0.19,0 -0.4,-0.17 -0.4,-0.42 0,-0.35 0.39,-0.51 0.74,-0.51 0.32,0 0.6,0.2 0.78,0.49 0.16,-0.37 0.54,-0.49 0.82,-0.49 0.81,0 1.23,0.87 1.23,1.06 0,0.09 -0.09,0.09 -0.11,0.09 -0.1,0 -0.11,-0.03 -0.13,-0.11 -0.15,-0.49 -0.57,-0.85 -0.96,-0.85 -0.28,0 -0.42,0.19 -0.42,0.45 0,0.19 0.16,0.82 0.36,1.59 0.14,0.54 0.45,0.71 0.68,0.71 0.01,0 0.23,0 0.38,-0.1 -0.22,-0.06 -0.31,-0.25 -0.31,-0.38 0,-0.15 0.12,-0.26 0.28,-0.26 0.16,0 0.39,0.14 0.39,0.43 0,0.39 -0.45,0.5 -0.73,0.5 -0.34,0 -0.62,-0.22 -0.78,-0.49 -0.12,0.29 -0.44,0.49 -0.83,0.49 -0.78,0 -1.23,-0.85 -1.23,-1.06 0,-0.09 0.1,-0.09 0.12,-0.09 0.09,0 0.1,0.03 0.14,0.12 0.17,0.54 0.61,0.84 0.95,0.84 0.23,0 0.42,-0.13 0.42,-0.46 0,-0.14 -0.09,-0.49 -0.15,-0.72 z"
         inkscape:connector-curvature="0"
         style="fill:#000000;stroke-width:0;stroke-linecap:square;stroke-linejoin:round" /><line
         id="line4934"
         y2="709.62"
         x2="271.14999"
         y1="709.62"
         x1="262.48001"
         style="stroke-width:0.398;stroke-linecap:square;stroke-linejoin:round" /><path
         id="path4936"
         d="m 267.21,708.31 0,0 0,0 0,0 0,0 0,0 0.01,0 0,0 0,0.01 0,0 0,0 0,0.01 0,0 0,0 0,0.01 0,0 0,0.01 0.01,0 0,0.01 0,0.01 0,0.01 0,0 0,0 0,0.01 0.01,0 0,0.01 0,0 0,0 0,0.01 0,0 0,0 0,0 0,0 0,0 0,0 0,0.01 0,0 0,0 0,0 0,0 0,0 c 0,0.03 -0.03,0.1 -0.11,0.1 -0.14,0 -0.72,-0.06 -0.89,-0.07 -0.06,-0.01 -0.16,-0.02 -0.16,-0.16 0,-0.1 0.1,-0.1 0.19,-0.1 0.33,0 0.33,-0.05 0.33,-0.1 0,-0.05 -0.01,-0.1 -0.03,-0.16 l -0.4,-1.58 c -0.14,0.23 -0.38,0.41 -0.71,0.41 l 0,-0.2 c 0.49,0 0.62,-0.53 0.62,-0.6 0,-0.03 -0.02,-0.08 -0.02,-0.1 l -0.33,-1.3 c -0.05,-0.2 -0.2,-0.34 -0.36,-0.47 -0.06,-0.05 -0.34,-0.27 -0.64,-0.27 -0.25,0 -0.5,0.18 -0.5,0.67 0,0.37 0.2,1.13 0.36,1.41 0.32,0.56 0.67,0.66 0.87,0.66 l 0,0.2 c -0.89,0 -1.8,-0.98 -1.8,-1.98 0,-0.68 0.45,-1.16 1.05,-1.16 0.38,0 0.71,0.22 0.99,0.49 0.13,-0.42 0.54,-0.49 0.72,-0.49 0.25,0 0.42,0.15 0.55,0.37 0.15,0.27 0.24,0.67 0.24,0.69 0,0.1 -0.09,0.1 -0.11,0.1 -0.1,0 -0.1,-0.03 -0.15,-0.22 -0.09,-0.34 -0.22,-0.74 -0.51,-0.74 -0.18,0 -0.23,0.15 -0.23,0.34 0,0.13 0.01,0.19 0.03,0.28 z"
         inkscape:connector-curvature="0"
         style="fill:#000000;stroke-width:0;stroke-linecap:square;stroke-linejoin:round" /><path
         id="path4938"
         d="m 269.1,706.44 0.71,0 c 0.13,0 0.22,0 0.22,0.15 0,0.1 -0.09,0.1 -0.21,0.1 l -0.66,0 0.26,1.03 c 0,0.03 0.02,0.07 0.02,0.09 0,0.13 -0.1,0.23 -0.24,0.23 -0.17,0 -0.28,-0.12 -0.33,-0.3 -0.04,-0.18 0.05,0.16 -0.26,-1.05 l -0.71,0 c -0.13,0 -0.22,0 -0.22,-0.16 0,-0.09 0.08,-0.09 0.21,-0.09 l 0.66,0 -0.41,-1.64 c -0.05,-0.18 -0.11,-0.43 -0.11,-0.52 0,-0.41 0.35,-0.66 0.75,-0.66 0.77,0 1.21,0.97 1.21,1.06 0,0.1 -0.09,0.1 -0.11,0.1 -0.09,0 -0.09,-0.02 -0.15,-0.14 -0.19,-0.43 -0.55,-0.82 -0.93,-0.82 -0.15,0 -0.25,0.09 -0.25,0.34 0,0.06 0.03,0.21 0.05,0.28 z"
         inkscape:connector-curvature="0"
         style="fill:#000000;stroke-width:0;stroke-linecap:square;stroke-linejoin:round" /><path
         id="path4940"
         d="m 281.11,709.41 0.04,0 0.03,0 0.03,0 0.01,0 0.02,0 0.01,0 0.02,0.01 0.01,0 0.02,0 0.01,0 0.02,0.01 0.01,0 0.01,0 0.01,0.01 0.02,0.01 0.01,0 0.01,0.01 0.01,0.01 0.01,0 0,0.01 0.01,0.01 0,0.01 0.01,0 0,0.01 0,0.01 0.01,0 0,0.01 0,0.01 0,0 0.01,0.01 0,0.01 0,0.01 0,0 0,0.01 0,0.01 0,0.01 0,0.01 c 0,0.2 -0.18,0.2 -0.35,0.2 l -5.38,0 c -0.17,0 -0.35,0 -0.35,-0.2 0,-0.2 0.18,-0.2 0.35,-0.2 z"
         inkscape:connector-curvature="0"
         style="fill:#000000;stroke-width:0;stroke-linecap:square;stroke-linejoin:round" /><path
         id="path4942"
         d="m 285.11,707.51 -0.01,0 0,-0.01 0,-0.01 0,0 0,-0.01 -0.01,-0.01 0,-0.02 0,0 0,-0.01 -0.01,-0.01 0,-0.01 0,-0.01 0,-0.01 0,0 -0.01,-0.01 0,-0.01 0,0 0,-0.01 0,0 0,-0.01 0,-0.01 0,-0.01 0,-0.01 0,-0.01 0,-0.01 0,0 0,-0.01 0,0 0,-0.01 0,-0.01 c 0,-0.18 0.14,-0.26 0.29,-0.26 0.29,0 0.35,0.23 0.43,0.55 0.1,0.36 0.04,0.17 0.47,1.84 0.84,-0.03 1.7,-0.2 1.7,-0.84 0,-0.07 0,-0.12 -0.02,-0.22 -0.04,-0.16 -0.05,-0.27 -0.05,-0.35 0,-0.59 0.4,-0.98 0.92,-0.98 0.32,0 0.57,0.17 0.77,0.51 0.25,0.42 0.37,1 0.37,1.02 0,0.1 -0.09,0.1 -0.12,0.1 -0.1,0 -0.11,-0.05 -0.14,-0.18 -0.19,-0.69 -0.42,-1.24 -0.86,-1.24 -0.21,0 -0.32,0.13 -0.32,0.48 0,0.15 0.04,0.39 0.08,0.56 0.02,0.09 0.05,0.22 0.05,0.32 0,0.94 -1.37,1.01 -1.93,1.03 0.33,0.18 0.64,0.45 0.91,0.67 0.46,0.39 0.75,0.63 1.15,0.8 -0.02,-0.05 -0.05,-0.17 -0.05,-0.22 0,-0.12 0.07,-0.35 0.38,-0.35 0.31,0 0.53,0.29 0.53,0.54 0,0.09 -0.04,0.35 -0.4,0.35 -0.6,0 -1.19,-0.5 -1.63,-0.87 -0.67,-0.57 -0.91,-0.72 -1.27,-0.84 0.03,0.11 0.15,0.6 0.2,0.77 0.06,0.26 0.18,0.73 0.18,0.78 0,0.17 -0.12,0.27 -0.29,0.27 -0.03,0 -0.31,0 -0.4,-0.36 z"
         inkscape:connector-curvature="0"
         style="fill:#000000;stroke-width:0;stroke-linecap:square;stroke-linejoin:round" /><path
         id="path4944"
         d="m 293.58,710.12 0.01,0.03 0.01,0.03 0,0.03 0.01,0.04 0.01,0.04 0.02,0.04 0.01,0.04 0.01,0.05 0.02,0.04 0.02,0.05 0.02,0.05 0.02,0.05 0.02,0.05 0.02,0.05 0.03,0.05 0.03,0.05 0.03,0.05 0.03,0.04 0.03,0.05 0.04,0.04 0.03,0.05 0.04,0.04 0.04,0.04 0.05,0.03 0.04,0.03 0.05,0.03 0.03,0.01 0.02,0.02 0.03,0.01 0.03,0.01 0.03,0.01 0.02,0 0.03,0.01 0.03,0.01 0.03,0 0.03,0 0.04,0.01 0.03,0 c 0.05,0 0.29,0 0.5,-0.13 -0.28,-0.05 -0.48,-0.3 -0.48,-0.54 0,-0.16 0.11,-0.35 0.37,-0.35 0.22,0 0.54,0.18 0.54,0.58 0,0.52 -0.58,0.66 -0.92,0.66 -0.58,0 -0.93,-0.53 -1.05,-0.76 -0.25,0.66 -0.78,0.76 -1.07,0.76 -1.04,0 -1.6,-1.29 -1.6,-1.53 0,-0.1 0.1,-0.1 0.12,-0.1 0.07,0 0.1,0.02 0.13,0.11 0.33,1.05 0.99,1.3 1.33,1.3 0.19,0 0.54,-0.09 0.54,-0.67 0,-0.31 -0.17,-0.97 -0.54,-2.36 -0.16,-0.62 -0.51,-1.04 -0.95,-1.04 -0.06,0 -0.29,0 -0.49,0.13 0.24,0.05 0.46,0.26 0.46,0.54 0,0.27 -0.22,0.35 -0.36,0.35 -0.3,0 -0.55,-0.26 -0.55,-0.58 0,-0.46 0.5,-0.65 0.93,-0.65 0.66,0 1.02,0.69 1.05,0.75 0.12,-0.37 0.48,-0.75 1.07,-0.75 1.03,0 1.59,1.28 1.59,1.53 0,0.1 -0.08,0.1 -0.11,0.1 -0.1,0 -0.12,-0.05 -0.13,-0.11 -0.33,-1.07 -1.01,-1.31 -1.33,-1.31 -0.39,0 -0.54,0.32 -0.54,0.66 0,0.22 0.06,0.44 0.16,0.87 z"
         inkscape:connector-curvature="0"
         style="fill:#000000;stroke-width:0;stroke-linecap:square;stroke-linejoin:round" /><path
         id="path4946"
         d="m 305.56,710.37 0.02,0 0.03,0 0.03,0 0.02,0.01 0.01,0 0.02,0 0.01,0 0.01,0 0.02,0 0.01,0.01 0.02,0 0.01,0 0.01,0.01 0.01,0 0.01,0.01 0.02,0 0.01,0.01 0.01,0.01 0.01,0.01 0,0.01 0.01,0.01 0.01,0 0,0.01 0,0 0.01,0.01 0,0.01 0,0 0,0.01 0.01,0.01 0,0 0,0.01 0,0.01 0,0.01 0,0.01 0,0 0,0.01 0,0.01 c 0,0.2 -0.19,0.2 -0.32,0.2 l -5.96,0 c -0.14,0 -0.33,0 -0.33,-0.2 0,-0.2 0.19,-0.2 0.34,-0.2 z"
         inkscape:connector-curvature="0"
         style="fill:#000000;stroke-width:0;stroke-linecap:square;stroke-linejoin:round" /><path
         id="path4948"
         d="m 305.57,708.45 0.01,0 0.01,0 0.03,0 0.03,0 0.01,0 0.02,0 0.01,0 0.01,0 0.02,0 0.01,0.01 0.01,0 0.02,0 0.01,0.01 0.01,0 0.01,0.01 0.02,0 0.01,0.01 0.01,0 0.01,0.01 0.01,0.01 0,0.01 0.01,0 0,0.01 0.01,0.01 0,0 0,0.01 0.01,0 0,0.01 0,0.01 0,0 0.01,0.01 0,0.01 0,0 0,0.01 0,0.01 0,0.01 0,0.01 0,0.01 0,0.01 c 0,0.19 -0.19,0.19 -0.33,0.19 l -5.94,0 c -0.15,0 -0.34,0 -0.34,-0.19 0,-0.2 0.19,-0.2 0.33,-0.2 z"
         inkscape:connector-curvature="0"
         style="fill:#000000;stroke-width:0;stroke-linecap:square;stroke-linejoin:round" /><path
         id="path4950"
         d="m 313.82,710.3 0,0.15 -0.01,0.15 0,0.15 -0.01,0.15 -0.01,0.15 -0.01,0.14 -0.01,0.15 -0.02,0.15 -0.03,0.14 -0.02,0.15 -0.04,0.14 -0.03,0.15 -0.05,0.14 -0.04,0.14 -0.06,0.14 -0.03,0.07 -0.03,0.07 c -0.46,0.95 -1.28,1.11 -1.69,1.11 -0.6,0 -1.33,-0.26 -1.73,-1.18 -0.32,-0.69 -0.37,-1.46 -0.37,-2.26 0,-0.74 0.04,-1.64 0.45,-2.39 0.42,-0.81 1.15,-1 1.64,-1 l 0,0.21 c -0.39,0 -0.98,0.25 -1.16,1.21 -0.11,0.59 -0.11,1.51 -0.11,2.09 0,0.64 0,1.29 0.08,1.83 0.19,1.18 0.94,1.27 1.19,1.27 0.33,0 0.98,-0.18 1.17,-1.16 0.1,-0.56 0.1,-1.31 0.1,-1.94 0,-0.74 0,-1.42 -0.11,-2.05 -0.15,-0.95 -0.71,-1.25 -1.16,-1.25 l 0,0 0,-0.21 c 0.53,0 1.29,0.2 1.73,1.15 0.32,0.68 0.37,1.46 0.37,2.24 z"
         inkscape:connector-curvature="0"
         style="fill:#000000;stroke-width:0;stroke-linecap:square;stroke-linejoin:round" /></g>  </g>
</svg>
