<?xml version="1.0" encoding="UTF-8" standalone="no"?>
<!-- Created with Inkscape (http://www.inkscape.org/) -->

<svg
   xmlns:ns0="http://www.iki.fi/pav/software/textext/"
   xmlns:dc="http://purl.org/dc/elements/1.1/"
   xmlns:cc="http://creativecommons.org/ns#"
   xmlns:rdf="http://www.w3.org/1999/02/22-rdf-syntax-ns#"
   xmlns:svg="http://www.w3.org/2000/svg"
   xmlns="http://www.w3.org/2000/svg"
   xmlns:xlink="http://www.w3.org/1999/xlink"
   xmlns:sodipodi="http://sodipodi.sourceforge.net/DTD/sodipodi-0.dtd"
   xmlns:inkscape="http://www.inkscape.org/namespaces/inkscape"
   width="102.75056mm"
   height="103.5173mm"
   id="svg2"
   version="1.1"
   inkscape:version="0.91 r"
   sodipodi:docname="motion_equation.svg"
   inkscape:export-filename="/home/hadim/Documents/phd/thesis/figures/results/motion_equation.png"
   inkscape:export-xdpi="199.93387"
   inkscape:export-ydpi="199.93387">
  <sodipodi:namedview
     id="base"
     pagecolor="#ffffff"
     bordercolor="#666666"
     borderopacity="1.0"
     inkscape:pageopacity="1"
     inkscape:pageshadow="2"
     inkscape:zoom="1.4142136"
     inkscape:cx="99.125831"
     inkscape:cy="197.06963"
     inkscape:document-units="px"
     inkscape:current-layer="layer1"
     showgrid="false"
     showborder="true"
     inkscape:showpageshadow="false"
     fit-margin-top="5"
     fit-margin-left="5"
     fit-margin-right="5"
     fit-margin-bottom="5"
     inkscape:window-width="1598"
     inkscape:window-height="905"
     inkscape:window-x="0"
     inkscape:window-y="123"
     inkscape:window-maximized="0"
     inkscape:object-nodes="false"
     inkscape:snap-smooth-nodes="true"
     inkscape:snap-nodes="false"
     inkscape:snap-bbox="true"
     units="mm" />
  <defs
     style="stroke-linecap:square;stroke-linejoin:round"
     id="defs4">
    <marker
       inkscape:stockid="TriangleOutL"
       orient="auto"
       refY="0"
       refX="0"
       id="marker6060"
       style="overflow:visible;stroke-linecap:square;stroke-linejoin:round"
       inkscape:isstock="true">
      <path
         inkscape:connector-curvature="0"
         id="path6062"
         d="m 5.77,0 -8.65,5 0,-10 8.65,5 z"
         style="fill:#000000;fill-opacity:1;fill-rule:evenodd;stroke:#000000;stroke-width:1pt;stroke-linecap:square;stroke-linejoin:round;stroke-opacity:1"
         transform="scale(0.8,0.8)" />
    </marker>
    <style
       type="text/css"
       id="style6">
*{stroke-linecap:square;stroke-linejoin:round;}
  </style>
  </defs>
  <metadata
     id="metadata7">
    <rdf:RDF>
      <cc:Work
         rdf:about="">
        <dc:format>image/svg+xml</dc:format>
        <dc:type
           rdf:resource="http://purl.org/dc/dcmitype/StillImage" />
        <dc:title></dc:title>
      </cc:Work>
    </rdf:RDF>
  </metadata>
  <g
     style="stroke-linecap:square;stroke-linejoin:round"
     transform="translate(513.86473,-154.31323)"
     id="layer1"
     inkscape:groupmode="layer"
     inkscape:label="Main">
    <flowRoot
       style="font-style:normal;font-variant:normal;font-weight:normal;font-stretch:normal;font-size:20px;line-height:125%;font-family:Arial;-inkscape-font-specification:Arial;letter-spacing:0px;word-spacing:0px;fill:#000000;fill-opacity:1;stroke:none;stroke-linecap:square;stroke-linejoin:round"
       id="flowRoot6280"
       xml:space="preserve"><flowRegion
         style="stroke-linecap:square;stroke-linejoin:round"
         id="flowRegion6282"><rect
           style="stroke-linecap:square;stroke-linejoin:round"
           y="846.40576"
           x="1107.1272"
           height="125.25892"
           width="175.76654"
           id="rect6284" /></flowRegion><flowPara
         style="stroke-linecap:square;stroke-linejoin:round"
         id="flowPara6286" /></flowRoot>    <text
       sodipodi:linespacing="100%"
       id="text4420"
       y="188.13573"
       x="-375.89185"
       style="color:#000000;font-style:normal;font-variant:normal;font-weight:normal;font-stretch:normal;font-size:22.5px;line-height:100%;font-family:arial;-inkscape-font-specification:arial;text-indent:0;text-align:center;text-decoration:none;text-decoration-line:none;letter-spacing:0px;word-spacing:0px;text-transform:none;direction:ltr;block-progression:tb;writing-mode:lr-tb;baseline-shift:baseline;text-anchor:middle;display:inline;overflow:visible;visibility:visible;fill:#000000;fill-opacity:1;fill-rule:nonzero;stroke:none;stroke-width:1px;stroke-linecap:butt;stroke-linejoin:miter;stroke-opacity:1;marker:none;enable-background:accumulate"
       xml:space="preserve"><tspan
         y="188.13573"
         x="-375.89185"
         style="font-style:normal;font-variant:normal;font-weight:normal;font-stretch:normal;font-size:22.5px;font-family:arial;-inkscape-font-specification:arial;stroke-linecap:square;stroke-linejoin:round"
         id="tspan4422"
         sodipodi:role="line">Equation du mouvement</tspan><tspan
         y="210.63573"
         x="-375.89185"
         style="font-style:normal;font-variant:normal;font-weight:normal;font-stretch:normal;font-size:22.5px;font-family:arial;-inkscape-font-specification:arial;stroke-linecap:square;stroke-linejoin:round"
         sodipodi:role="line"
         id="tspan4346" /></text>
    <rect
       style="color:#000000;clip-rule:nonzero;display:inline;overflow:visible;visibility:visible;opacity:1;isolation:auto;mix-blend-mode:normal;color-interpolation:sRGB;color-interpolation-filters:linearRGB;solid-color:#000000;solid-opacity:1;fill:#f7a0ff;fill-opacity:1;fill-rule:evenodd;stroke:#f04aff;stroke-width:2;stroke-linecap:butt;stroke-linejoin:miter;stroke-miterlimit:4;stroke-dasharray:none;stroke-dashoffset:0;stroke-opacity:1;marker:none;color-rendering:auto;image-rendering:auto;shape-rendering:auto;text-rendering:auto;enable-background:accumulate"
       id="rect6306"
       width="40.734921"
       height="58.803818"
       x="-219.78079"
       y="231.10088"
       rx="0.514633"
       ry="0.486927" />
    <rect
       ry="0.486927"
       rx="0.514633"
       y="231.10088"
       x="-305.31558"
       height="58.803818"
       width="60.069443"
       id="rect6304"
       style="color:#000000;clip-rule:nonzero;display:inline;overflow:visible;visibility:visible;opacity:1;isolation:auto;mix-blend-mode:normal;color-interpolation:sRGB;color-interpolation-filters:linearRGB;solid-color:#000000;solid-opacity:1;fill:#96e0ff;fill-opacity:1;fill-rule:evenodd;stroke:#31c2ff;stroke-width:2;stroke-linecap:butt;stroke-linejoin:miter;stroke-miterlimit:4;stroke-dasharray:none;stroke-dashoffset:0;stroke-opacity:1;marker:none;color-rendering:auto;image-rendering:auto;shape-rendering:auto;text-rendering:auto;enable-background:accumulate" />
    <rect
       style="color:#000000;clip-rule:nonzero;display:inline;overflow:visible;visibility:visible;opacity:1;isolation:auto;mix-blend-mode:normal;color-interpolation:sRGB;color-interpolation-filters:linearRGB;solid-color:#000000;solid-opacity:1;fill:#ffbda4;fill-opacity:1;fill-rule:evenodd;stroke:#ff8759;stroke-width:2;stroke-linecap:butt;stroke-linejoin:miter;stroke-miterlimit:4;stroke-dasharray:none;stroke-dashoffset:0;stroke-opacity:1;marker:none;color-rendering:auto;image-rendering:auto;shape-rendering:auto;text-rendering:auto;enable-background:accumulate"
       id="rect6302"
       width="79.095459"
       height="58.803818"
       x="-409.81558"
       y="231.10088"
       rx="0.514633"
       ry="0.486927" />
    <text
       xml:space="preserve"
       style="color:#000000;font-style:normal;font-variant:normal;font-weight:normal;font-stretch:normal;font-size:16.25px;line-height:100%;font-family:arial;-inkscape-font-specification:arial;text-indent:0;text-align:center;text-decoration:none;text-decoration-line:none;letter-spacing:0px;word-spacing:0px;text-transform:none;direction:ltr;block-progression:tb;writing-mode:lr-tb;baseline-shift:baseline;text-anchor:middle;display:inline;overflow:visible;visibility:visible;fill:#ff8759;fill-opacity:1;fill-rule:nonzero;stroke:none;stroke-width:1px;stroke-linecap:butt;stroke-linejoin:miter;stroke-opacity:1;marker:none;enable-background:accumulate"
       x="-370.23215"
       y="310.22885"
       id="text6312"
       sodipodi:linespacing="100%"><tspan
         sodipodi:role="line"
         id="tspan6314"
         style="font-style:normal;font-variant:normal;font-weight:normal;font-stretch:normal;font-size:16.25px;font-family:arial;-inkscape-font-specification:arial;text-align:center;text-anchor:middle;fill:#ff8759;fill-opacity:1;stroke-linecap:square;stroke-linejoin:round"
         x="-370.23215"
         y="310.22885">force</tspan><tspan
         sodipodi:role="line"
         style="font-style:normal;font-variant:normal;font-weight:normal;font-stretch:normal;font-size:16.25px;font-family:arial;-inkscape-font-specification:arial;text-align:center;text-anchor:middle;fill:#ff8759;fill-opacity:1;stroke-linecap:square;stroke-linejoin:round"
         x="-370.23215"
         y="326.47885"
         id="tspan6322">inertiel</tspan></text>
    <text
       sodipodi:linespacing="100%"
       id="text6316"
       y="307.18991"
       x="-275.04282"
       style="color:#000000;font-style:normal;font-variant:normal;font-weight:normal;font-stretch:normal;font-size:16.25px;line-height:100%;font-family:arial;-inkscape-font-specification:arial;text-indent:0;text-align:center;text-decoration:none;text-decoration-line:none;letter-spacing:0px;word-spacing:0px;text-transform:none;direction:ltr;block-progression:tb;writing-mode:lr-tb;baseline-shift:baseline;text-anchor:middle;display:inline;overflow:visible;visibility:visible;fill:#31c2ff;fill-opacity:1;fill-rule:nonzero;stroke:none;stroke-width:1px;stroke-linecap:butt;stroke-linejoin:miter;stroke-opacity:1;marker:none;enable-background:accumulate"
       xml:space="preserve"><tspan
         y="307.18991"
         x="-275.04282"
         style="font-style:normal;font-variant:normal;font-weight:normal;font-stretch:normal;font-size:16.25px;font-family:arial;-inkscape-font-specification:arial;text-align:center;text-anchor:middle;fill:#31c2ff;fill-opacity:1;stroke-linecap:square;stroke-linejoin:round"
         id="tspan6318"
         sodipodi:role="line">force</tspan><tspan
         y="323.43991"
         x="-275.04282"
         style="font-style:normal;font-variant:normal;font-weight:normal;font-stretch:normal;font-size:16.25px;font-family:arial;-inkscape-font-specification:arial;text-align:center;text-anchor:middle;fill:#31c2ff;fill-opacity:1;stroke-linecap:square;stroke-linejoin:round"
         sodipodi:role="line"
         id="tspan6320">visqueuse</tspan></text>
    <text
       xml:space="preserve"
       style="color:#000000;font-style:normal;font-variant:normal;font-weight:normal;font-stretch:normal;font-size:16.25px;line-height:100%;font-family:arial;-inkscape-font-specification:arial;text-indent:0;text-align:center;text-decoration:none;text-decoration-line:none;letter-spacing:0px;word-spacing:0px;text-transform:none;direction:ltr;block-progression:tb;writing-mode:lr-tb;baseline-shift:baseline;text-anchor:middle;display:inline;overflow:visible;visibility:visible;fill:#f04aff;fill-opacity:1;fill-rule:nonzero;stroke:none;stroke-width:1px;stroke-linecap:butt;stroke-linejoin:miter;stroke-opacity:1;marker:none;enable-background:accumulate"
       x="-199.36969"
       y="307.18991"
       id="text6324"
       sodipodi:linespacing="100%"><tspan
         sodipodi:role="line"
         id="tspan6326"
         style="font-style:normal;font-variant:normal;font-weight:normal;font-stretch:normal;font-size:16.25px;font-family:arial;-inkscape-font-specification:arial;text-align:center;text-anchor:middle;fill:#f04aff;fill-opacity:1;stroke-linecap:square;stroke-linejoin:round"
         x="-199.36969"
         y="307.18991">force</tspan><tspan
         id="tspan6328"
         sodipodi:role="line"
         style="font-style:normal;font-variant:normal;font-weight:normal;font-stretch:normal;font-size:16.25px;font-family:arial;-inkscape-font-specification:arial;text-align:center;text-anchor:middle;fill:#f04aff;fill-opacity:1;stroke-linecap:square;stroke-linejoin:round"
         x="-199.36969"
         y="323.43991">élastique</tspan></text>
    <g
       id="g6808"
       transform="translate(-0.63309094,0)"
       style="stroke-linecap:square;stroke-linejoin:round">
      <rect
         style="color:#000000;clip-rule:nonzero;display:inline;overflow:visible;visibility:visible;opacity:1;isolation:auto;mix-blend-mode:normal;color-interpolation:sRGB;color-interpolation-filters:linearRGB;solid-color:#000000;solid-opacity:1;fill:#96e0ff;fill-opacity:1;fill-rule:evenodd;stroke:#31c2ff;stroke-width:2;stroke-linecap:butt;stroke-linejoin:miter;stroke-miterlimit:4;stroke-dasharray:none;stroke-dashoffset:0;stroke-opacity:1;marker:none;color-rendering:auto;image-rendering:auto;shape-rendering:auto;text-rendering:auto;enable-background:accumulate"
         id="rect6345"
         width="41.17688"
         height="20.796814"
         x="-394.24588"
         y="381.67804"
         rx="0.514633"
         ry="0.486927" />
      <rect
         ry="0.486927"
         rx="0.514633"
         y="357.72479"
         x="-394.24588"
         height="20.796814"
         width="41.17688"
         id="rect6302-6"
         style="color:#000000;clip-rule:nonzero;display:inline;overflow:visible;visibility:visible;opacity:1;isolation:auto;mix-blend-mode:normal;color-interpolation:sRGB;color-interpolation-filters:linearRGB;solid-color:#000000;solid-opacity:1;fill:#ffbda4;fill-opacity:1;fill-rule:evenodd;stroke:#ff8759;stroke-width:2;stroke-linecap:butt;stroke-linejoin:miter;stroke-miterlimit:4;stroke-dasharray:none;stroke-dashoffset:0;stroke-opacity:1;marker:none;color-rendering:auto;image-rendering:auto;shape-rendering:auto;text-rendering:auto;enable-background:accumulate" />
      <g
         ns0:text="$Re = \\frac{\\rho Lv}{\\eta}$"
         ns0:preamble=""
         transform="matrix(2.7339181,0,0,2.7339181,-1076.7204,18.51983)"
         style="stroke-linecap:square;stroke-linejoin:round"
         id="g5063">
        <defs
           id="defs5065">
          <g
             style="stroke-linecap:square;stroke-linejoin:round"
             id="g5067">
            <symbol
               style="overflow:visible;stroke-linecap:square;stroke-linejoin:round"
               overflow="visible"
               id="textext-1236beca-0">
              <path
                 inkscape:connector-curvature="0"
                 style="stroke:none;stroke-linecap:square;stroke-linejoin:round"
                 d=""
                 id="path5070" />
            </symbol>
            <symbol
               style="overflow:visible;stroke-linecap:square;stroke-linejoin:round"
               overflow="visible"
               id="textext-1236beca-1">
              <path
                 inkscape:connector-curvature="0"
                 style="stroke:none;stroke-linecap:square;stroke-linejoin:round"
                 d="m 3.734375,-6.125 c 0.0625,-0.234375 0.09375,-0.328125 0.28125,-0.359375 C 4.109375,-6.5 4.421875,-6.5 4.625,-6.5 c 0.703125,0 1.8125,0 1.8125,0.984375 0,0.34375 -0.15625,1.03125 -0.546875,1.421875 -0.265625,0.25 -0.78125,0.578125 -1.6875,0.578125 l -1.109375,0 z m 1.4375,2.734375 c 1.015625,-0.21875 2.1875,-0.921875 2.1875,-1.921875 0,-0.859375 -0.890625,-1.5 -2.203125,-1.5 l -2.828125,0 c -0.203125,0 -0.296875,0 -0.296875,0.203125 C 2.03125,-6.5 2.125,-6.5 2.3125,-6.5 c 0.015625,0 0.203125,0 0.375,0.015625 0.1875,0.03125 0.265625,0.03125 0.265625,0.171875 0,0.03125 0,0.0625 -0.03125,0.1875 l -1.34375,5.34375 C 1.484375,-0.390625 1.46875,-0.3125 0.671875,-0.3125 0.5,-0.3125 0.40625,-0.3125 0.40625,-0.109375 0.40625,0 0.53125,0 0.546875,0 c 0.28125,0 0.984375,-0.03125 1.25,-0.03125 0.28125,0 1,0.03125 1.28125,0.03125 0.078125,0 0.1875,0 0.1875,-0.203125 0,-0.109375 -0.078125,-0.109375 -0.28125,-0.109375 -0.359375,0 -0.640625,0 -0.640625,-0.171875 0,-0.0625 0.015625,-0.109375 0.03125,-0.171875 l 0.65625,-2.640625 1.1875,0 c 0.90625,0 1.078125,0.5625 1.078125,0.90625 0,0.140625 -0.078125,0.453125 -0.140625,0.6875 C 5.09375,-1.421875 5,-1.0625 5,-0.859375 5,0.21875 6.203125,0.21875 6.328125,0.21875 c 0.84375,0 1.203125,-1 1.203125,-1.140625 0,-0.125 -0.109375,-0.125 -0.125,-0.125 -0.09375,0 -0.109375,0.0625 -0.125,0.140625 C 7.03125,-0.171875 6.59375,0 6.375,0 6.046875,0 5.96875,-0.21875 5.96875,-0.609375 c 0,-0.3125 0.0625,-0.8125 0.109375,-1.140625 0.015625,-0.140625 0.03125,-0.328125 0.03125,-0.46875 0,-0.765625 -0.671875,-1.078125 -0.9375,-1.171875 z m 0,0"
                 id="path5073" />
            </symbol>
            <symbol
               style="overflow:visible;stroke-linecap:square;stroke-linejoin:round"
               overflow="visible"
               id="textext-1236beca-2">
              <path
                 inkscape:connector-curvature="0"
                 style="stroke:none;stroke-linecap:square;stroke-linejoin:round"
                 d="m 1.859375,-2.296875 c 0.296875,0 1.03125,-0.03125 1.53125,-0.234375 0.703125,-0.296875 0.75,-0.890625 0.75,-1.03125 0,-0.4375 -0.375,-0.84375 -1.0625,-0.84375 -1.109375,0 -2.625,0.96875 -2.625,2.71875 0,1.015625 0.59375,1.796875 1.578125,1.796875 1.421875,0 2.25,-1.0625 2.25,-1.171875 0,-0.0625 -0.046875,-0.140625 -0.109375,-0.140625 -0.0625,0 -0.078125,0.03125 -0.140625,0.109375 -0.78125,0.984375 -1.875,0.984375 -1.984375,0.984375 -0.78125,0 -0.875,-0.84375 -0.875,-1.15625 0,-0.125 0.015625,-0.421875 0.15625,-1.03125 z m -0.46875,-0.21875 C 1.78125,-4.03125 2.8125,-4.1875 3.078125,-4.1875 c 0.453125,0 0.734375,0.296875 0.734375,0.625 0,1.046875 -1.59375,1.046875 -2.015625,1.046875 z m 0,0"
                 id="path5076" />
            </symbol>
            <symbol
               style="overflow:visible;stroke-linecap:square;stroke-linejoin:round"
               overflow="visible"
               id="textext-1236beca-3">
              <path
                 inkscape:connector-curvature="0"
                 style="stroke:none;stroke-linecap:square;stroke-linejoin:round"
                 d=""
                 id="path5079" />
            </symbol>
            <symbol
               style="overflow:visible;stroke-linecap:square;stroke-linejoin:round"
               overflow="visible"
               id="textext-1236beca-4">
              <path
                 inkscape:connector-curvature="0"
                 style="stroke:none;stroke-linecap:square;stroke-linejoin:round"
                 d="m 6.84375,-3.265625 c 0.15625,0 0.34375,0 0.34375,-0.1875 C 7.1875,-3.65625 7,-3.65625 6.859375,-3.65625 l -5.96875,0 c -0.140625,0 -0.328125,0 -0.328125,0.203125 0,0.1875 0.1875,0.1875 0.328125,0.1875 z m 0.015625,1.9375 c 0.140625,0 0.328125,0 0.328125,-0.203125 0,-0.1875 -0.1875,-0.1875 -0.34375,-0.1875 l -5.953125,0 c -0.140625,0 -0.328125,0 -0.328125,0.1875 0,0.203125 0.1875,0.203125 0.328125,0.203125 z m 0,0"
                 id="path5082" />
            </symbol>
            <symbol
               style="overflow:visible;stroke-linecap:square;stroke-linejoin:round"
               overflow="visible"
               id="textext-1236beca-5">
              <path
                 inkscape:connector-curvature="0"
                 style="stroke:none;stroke-linecap:square;stroke-linejoin:round"
                 d=""
                 id="path5085" />
            </symbol>
            <symbol
               style="overflow:visible;stroke-linecap:square;stroke-linejoin:round"
               overflow="visible"
               id="textext-1236beca-6">
              <path
                 inkscape:connector-curvature="0"
                 style="stroke:none;stroke-linecap:square;stroke-linejoin:round"
                 d="M 0.375,1.125 C 0.34375,1.21875 0.34375,1.265625 0.34375,1.265625 c 0,0.15625 0.125,0.21875 0.234375,0.21875 0.265625,0 0.3125,-0.203125 0.359375,-0.421875 0.09375,-0.359375 0.296875,-1.15625 0.359375,-1.421875 0.0625,0.09375 0.296875,0.421875 0.765625,0.421875 0.90625,0 1.84375,-0.9375 1.84375,-1.953125 0,-0.75 -0.484375,-1.1875 -1.109375,-1.1875 -0.671875,0 -1.515625,0.609375 -1.765625,1.59375 z m 1.6875,-1.25 c -0.515625,0 -0.671875,-0.515625 -0.671875,-0.609375 0,-0.015625 0.046875,-0.171875 0.0625,-0.25 C 1.671875,-1.84375 1.703125,-2 1.90625,-2.3125 c 0.25,-0.359375 0.609375,-0.5625 0.875,-0.5625 0.296875,0 0.5625,0.203125 0.5625,0.703125 0,0.3125 -0.1875,1.09375 -0.390625,1.4375 C 2.625,-0.234375 2.28125,-0.125 2.0625,-0.125 Z m 0,0"
                 id="path5088" />
            </symbol>
            <symbol
               style="overflow:visible;stroke-linecap:square;stroke-linejoin:round"
               overflow="visible"
               id="textext-1236beca-7">
              <path
                 inkscape:connector-curvature="0"
                 style="stroke:none;stroke-linecap:square;stroke-linejoin:round"
                 d="m 2.875,-4.1875 c 0.0625,-0.25 0.078125,-0.328125 0.71875,-0.328125 0.21875,0 0.28125,0 0.28125,-0.140625 0,-0.015625 0,-0.109375 -0.109375,-0.109375 -0.15625,0 -0.34375,0.015625 -0.515625,0.03125 -0.171875,0 -0.390625,0 -0.5625,0 -0.140625,0 -0.328125,0 -0.484375,0 -0.140625,0 -0.3125,-0.03125 -0.453125,-0.03125 -0.03125,0 -0.140625,0 -0.140625,0.15625 0,0.09375 0.078125,0.09375 0.21875,0.09375 0.015625,0 0.140625,0 0.265625,0.015625 0.15625,0.015625 0.171875,0.03125 0.171875,0.109375 0,0 0,0.046875 -0.03125,0.140625 l -0.9375,3.703125 C 1.234375,-0.3125 1.21875,-0.25 0.6875,-0.25 c -0.109375,0 -0.203125,0 -0.203125,0.140625 C 0.484375,0 0.5625,0 0.6875,0 l 3.5,0 c 0.1875,0 0.1875,0 0.25,-0.140625 0.0625,-0.1875 0.59375,-1.53125 0.59375,-1.59375 0,-0.015625 -0.015625,-0.09375 -0.125,-0.09375 -0.078125,0 -0.09375,0.03125 -0.140625,0.140625 C 4.5,-1.03125 4.1875,-0.25 2.921875,-0.25 l -0.796875,0 c -0.203125,0 -0.21875,-0.015625 -0.21875,-0.078125 0,0 0,-0.03125 0.03125,-0.140625 z m 0,0"
                 id="path5091" />
            </symbol>
            <symbol
               style="overflow:visible;stroke-linecap:square;stroke-linejoin:round"
               overflow="visible"
               id="textext-1236beca-8">
              <path
                 inkscape:connector-curvature="0"
                 style="stroke:none;stroke-linecap:square;stroke-linejoin:round"
                 d="m 3.71875,-2.53125 c 0,-0.546875 -0.328125,-0.546875 -0.34375,-0.546875 -0.1875,0 -0.375,0.1875 -0.375,0.375 0,0.109375 0.0625,0.171875 0.109375,0.203125 0.125,0.109375 0.265625,0.28125 0.265625,0.5625 0,0.3125 -0.46875,1.8125 -1.296875,1.8125 -0.5625,0 -0.5625,-0.5 -0.5625,-0.625 0,-0.3125 0.125,-0.703125 0.390625,-1.359375 C 1.953125,-2.25 2,-2.359375 2,-2.46875 2,-2.84375 1.6875,-3.078125 1.34375,-3.078125 0.640625,-3.078125 0.328125,-2.125 0.328125,-2 c 0,0.078125 0.09375,0.078125 0.125,0.078125 0.09375,0 0.09375,-0.03125 0.125,-0.109375 C 0.734375,-2.59375 1.03125,-2.875 1.3125,-2.875 c 0.125,0 0.171875,0.078125 0.171875,0.234375 0,0.171875 -0.046875,0.3125 -0.125,0.46875 -0.296875,0.78125 -0.375,1.078125 -0.375,1.328125 0,0.6875 0.546875,0.90625 1.078125,0.90625 1.171875,0 1.65625,-2.015625 1.65625,-2.59375 z m 0,0"
                 id="path5094" />
            </symbol>
            <symbol
               style="overflow:visible;stroke-linecap:square;stroke-linejoin:round"
               overflow="visible"
               id="textext-1236beca-9">
              <path
                 inkscape:connector-curvature="0"
                 style="stroke:none;stroke-linecap:square;stroke-linejoin:round"
                 d="M 3.890625,-1.890625 C 3.9375,-2.09375 3.953125,-2.125 3.953125,-2.28125 c 0,-0.109375 0,-0.40625 -0.265625,-0.609375 -0.109375,-0.078125 -0.3125,-0.1875 -0.640625,-0.1875 -0.296875,0 -0.71875,0.078125 -1.171875,0.625 -0.0625,-0.515625 -0.53125,-0.625 -0.75,-0.625 -0.265625,0 -0.4375,0.1875 -0.546875,0.375 -0.140625,0.234375 -0.25,0.65625 -0.25,0.703125 0,0.078125 0.09375,0.078125 0.125,0.078125 0.09375,0 0.09375,-0.015625 0.140625,-0.203125 0.109375,-0.40625 0.25,-0.75 0.515625,-0.75 0.1875,0 0.234375,0.15625 0.234375,0.34375 0,0.125 -0.0625,0.390625 -0.125,0.578125 -0.046875,0.1875 -0.109375,0.46875 -0.140625,0.625 L 0.84375,-0.4375 c -0.015625,0.09375 -0.0625,0.265625 -0.0625,0.28125 0,0.15625 0.125,0.21875 0.234375,0.21875 0.125,0 0.234375,-0.078125 0.28125,-0.140625 0.03125,-0.0625 0.078125,-0.296875 0.125,-0.4375 0.03125,-0.125 0.109375,-0.453125 0.140625,-0.625 0.046875,-0.15625 0.09375,-0.3125 0.125,-0.46875 0.078125,-0.296875 0.078125,-0.3125 0.21875,-0.53125 C 2.125,-2.484375 2.46875,-2.875 3.015625,-2.875 c 0.390625,0 0.40625,0.3125 0.40625,0.484375 0,0.1875 0,0.25 -0.046875,0.390625 L 2.59375,1.125 C 2.5625,1.21875 2.5625,1.265625 2.5625,1.265625 c 0,0.15625 0.125,0.21875 0.234375,0.21875 0.25,0 0.3125,-0.234375 0.34375,-0.328125 z m 0,0"
                 id="path5097" />
            </symbol>
          </g>
        </defs>
        <g
           style="stroke-linecap:square;stroke-linejoin:round"
           id="textext-1236beca-10">
          <g
             style="fill:#000000;fill-opacity:1;stroke-linecap:square;stroke-linejoin:round"
             id="g5100">
            <use
               height="100%"
               width="100%"
               style="stroke-linecap:square;stroke-linejoin:round"
               xlink:href="#textext-1236beca-1"
               x="223.43201"
               y="134.765"
               id="use5102" />
          </g>
          <g
             style="fill:#000000;fill-opacity:1;stroke-linecap:square;stroke-linejoin:round"
             id="g5104">
            <use
               height="100%"
               width="100%"
               style="stroke-linecap:square;stroke-linejoin:round"
               xlink:href="#textext-1236beca-2"
               x="231.07631"
               y="134.765"
               id="use5106" />
          </g>
          <g
             style="fill:#000000;fill-opacity:1;stroke-linecap:square;stroke-linejoin:round"
             id="g5108">
            <use
               height="100%"
               width="100%"
               style="stroke-linecap:square;stroke-linejoin:round"
               xlink:href="#textext-1236beca-4"
               x="238.48"
               y="134.765"
               id="use5110" />
          </g>
          <g
             style="fill:#000000;fill-opacity:1;stroke-linecap:square;stroke-linejoin:round"
             id="g5112">
            <use
               height="100%"
               width="100%"
               style="stroke-linecap:square;stroke-linejoin:round"
               xlink:href="#textext-1236beca-6"
               x="250.19099"
               y="130.32001"
               id="use5114" />
            <use
               height="100%"
               width="100%"
               style="stroke-linecap:square;stroke-linejoin:round"
               xlink:href="#textext-1236beca-7"
               x="254.32437"
               y="130.32001"
               id="use5116" />
            <use
               height="100%"
               width="100%"
               style="stroke-linecap:square;stroke-linejoin:round"
               xlink:href="#textext-1236beca-8"
               x="259.78973"
               y="130.32001"
               id="use5118" />
          </g>
          <path
             inkscape:connector-curvature="0"
             style="fill:none;stroke:#000000;stroke-width:0.398;stroke-linecap:butt;stroke-linejoin:miter;stroke-miterlimit:10;stroke-opacity:1"
             d="m 4.0625e-4,5.625e-4 13.83203075,0"
             transform="matrix(1,0,0,-1,250.191,132.274)"
             id="path5120" />
          <g
             style="fill:#000000;fill-opacity:1;stroke-linecap:square;stroke-linejoin:round"
             id="g5122">
            <use
               height="100%"
               width="100%"
               style="stroke-linecap:square;stroke-linejoin:round"
               xlink:href="#textext-1236beca-9"
               x="254.931"
               y="138.2"
               id="use5124" />
          </g>
        </g>
      </g>
      <text
         sodipodi:linespacing="100%"
         id="text6384"
         y="390.97314"
         x="-314.03949"
         style="color:#000000;font-style:normal;font-variant:normal;font-weight:normal;font-stretch:normal;font-size:27.5px;line-height:100%;font-family:arial;-inkscape-font-specification:arial;text-indent:0;text-align:center;text-decoration:none;text-decoration-line:none;letter-spacing:0px;word-spacing:0px;text-transform:none;direction:ltr;block-progression:tb;writing-mode:lr-tb;baseline-shift:baseline;text-anchor:middle;display:inline;overflow:visible;visibility:visible;fill:#000000;fill-opacity:1;fill-rule:nonzero;stroke:none;stroke-width:1px;stroke-linecap:butt;stroke-linejoin:miter;stroke-opacity:1;marker:none;enable-background:accumulate"
         xml:space="preserve"><tspan
           y="390.97314"
           x="-314.03949"
           style="font-style:normal;font-variant:normal;font-weight:normal;font-stretch:normal;font-size:27.5px;font-family:arial;-inkscape-font-specification:arial;stroke-linecap:square;stroke-linejoin:round"
           id="tspan6386"
           sodipodi:role="line">&lt;&lt; 1</tspan></text>
    </g>
    <rect
       ry="0.486927"
       rx="0.514633"
       y="443.58646"
       x="-334.03317"
       height="58.803818"
       width="40.734921"
       id="rect6308"
       style="color:#000000;clip-rule:nonzero;display:inline;overflow:visible;visibility:visible;opacity:1;isolation:auto;mix-blend-mode:normal;color-interpolation:sRGB;color-interpolation-filters:linearRGB;solid-color:#000000;solid-opacity:1;fill:#f7a0ff;fill-opacity:1;fill-rule:evenodd;stroke:#f04aff;stroke-width:2;stroke-linecap:butt;stroke-linejoin:miter;stroke-miterlimit:4;stroke-dasharray:none;stroke-dashoffset:0;stroke-opacity:1;marker:none;color-rendering:auto;image-rendering:auto;shape-rendering:auto;text-rendering:auto;enable-background:accumulate" />
    <rect
       style="color:#000000;clip-rule:nonzero;display:inline;overflow:visible;visibility:visible;opacity:1;isolation:auto;mix-blend-mode:normal;color-interpolation:sRGB;color-interpolation-filters:linearRGB;solid-color:#000000;solid-opacity:1;fill:#96e0ff;fill-opacity:1;fill-rule:evenodd;stroke:#31c2ff;stroke-width:2;stroke-linecap:butt;stroke-linejoin:miter;stroke-miterlimit:4;stroke-dasharray:none;stroke-dashoffset:0;stroke-opacity:1;marker:none;color-rendering:auto;image-rendering:auto;shape-rendering:auto;text-rendering:auto;enable-background:accumulate"
       id="rect6310"
       width="55.119678"
       height="58.803802"
       x="-412.49692"
       y="443.58646"
       rx="0.514633"
       ry="0.486927" />
    <g
       style="stroke-linecap:square;stroke-linejoin:round"
       transform="matrix(2.7339181,0,0,2.7339181,-1077.2681,111.79942)"
       ns0:text="$F = \xce\xb3\\gamma \\frac{dx}{dt} + kx$"
       ns0:preamble=""
       id="g5484">
      <defs
         id="defs5486">
        <g
           style="stroke-linecap:square;stroke-linejoin:round"
           id="g5488">
          <symbol
             style="overflow:visible;stroke-linecap:square;stroke-linejoin:round"
             overflow="visible"
             id="textext-63646057-0">
            <path
               inkscape:connector-curvature="0"
               style="stroke:none;stroke-linecap:square;stroke-linejoin:round"
               d=""
               id="path5491" />
          </symbol>
          <symbol
             style="overflow:visible;stroke-linecap:square;stroke-linejoin:round"
             overflow="visible"
             id="textext-63646057-1">
            <path
               inkscape:connector-curvature="0"
               style="stroke:none;stroke-linecap:square;stroke-linejoin:round"
               d="m 3.015625,-3.234375 0.96875,0 c 0.75,0 0.828125,0.15625 0.828125,0.4375 0,0.078125 0,0.1875 -0.0625,0.5 C 4.71875,-2.25 4.71875,-2.21875 4.71875,-2.1875 c 0,0.078125 0.0625,0.109375 0.109375,0.109375 0.109375,0 0.109375,-0.03125 0.15625,-0.203125 L 5.53125,-4.453125 C 5.5625,-4.5625 5.5625,-4.578125 5.5625,-4.609375 5.5625,-4.625 5.546875,-4.71875 5.4375,-4.71875 5.34375,-4.71875 5.328125,-4.671875 5.296875,-4.5 5.078125,-3.734375 4.859375,-3.546875 4,-3.546875 l -0.90625,0 0.640625,-2.53125 C 3.828125,-6.4375 3.84375,-6.46875 4.28125,-6.46875 l 1.3125,0 c 1.21875,0 1.453125,0.328125 1.453125,1.09375 0,0.234375 0,0.265625 -0.03125,0.546875 C 7,-4.703125 7,-4.6875 7,-4.65625 c 0,0.046875 0.03125,0.125 0.125,0.125 0.109375,0 0.109375,-0.0625 0.125,-0.25 L 7.453125,-6.515625 C 7.484375,-6.78125 7.4375,-6.78125 7.1875,-6.78125 l -4.890625,0 c -0.1875,0 -0.296875,0 -0.296875,0.203125 0,0.109375 0.09375,0.109375 0.28125,0.109375 0.375,0 0.65625,0 0.65625,0.171875 0,0.046875 0,0.0625 -0.0625,0.25 L 1.5625,-0.78125 c -0.09375,0.390625 -0.109375,0.46875 -0.90625,0.46875 -0.171875,0 -0.28125,0 -0.28125,0.1875 C 0.375,0 0.5,0 0.53125,0 0.8125,0 1.5625,-0.03125 1.84375,-0.03125 2.171875,-0.03125 3,0 3.328125,0 3.421875,0 3.53125,0 3.53125,-0.1875 3.53125,-0.265625 3.484375,-0.296875 3.484375,-0.296875 3.453125,-0.3125 3.421875,-0.3125 3.203125,-0.3125 c -0.21875,0 -0.265625,0 -0.515625,-0.015625 -0.296875,-0.03125 -0.328125,-0.078125 -0.328125,-0.203125 0,-0.015625 0,-0.078125 0.046875,-0.21875 z m 0,0"
               id="path5494" />
          </symbol>
          <symbol
             style="overflow:visible;stroke-linecap:square;stroke-linejoin:round"
             overflow="visible"
             id="textext-63646057-2">
            <path
               inkscape:connector-curvature="0"
               style="stroke:none;stroke-linecap:square;stroke-linejoin:round"
               d="M 0.40625,-2.53125 C 0.796875,-3.671875 1.890625,-3.6875 2,-3.6875 c 1.5,0 1.609375,1.75 1.609375,2.53125 0,0.609375 -0.046875,0.78125 -0.125,0.984375 -0.21875,0.71875 -0.515625,1.875 -0.515625,2.140625 0,0.109375 0.046875,0.171875 0.125,0.171875 0.140625,0 0.21875,-0.21875 0.328125,-0.59375 C 3.65625,0.703125 3.75,0.140625 3.78125,-0.171875 c 0.03125,-0.125 0.046875,-0.25 0.09375,-0.390625 0.3125,-0.984375 0.953125,-2.46875 1.34375,-3.25 0.078125,-0.125 0.1875,-0.34375 0.1875,-0.390625 0,-0.09375 -0.09375,-0.09375 -0.109375,-0.09375 -0.03125,0 -0.09375,0 -0.125,0.0625 C 4.65625,-3.28125 4.25,-2.28125 3.859375,-1.28125 3.84375,-1.578125 3.84375,-2.34375 3.453125,-3.3125 3.203125,-3.921875 2.8125,-4.40625 2.125,-4.40625 c -1.25,0 -1.953125,1.515625 -1.953125,1.828125 0,0.09375 0.09375,0.09375 0.203125,0.09375 z m 0,0"
               id="path5497" />
          </symbol>
          <symbol
             style="overflow:visible;stroke-linecap:square;stroke-linejoin:round"
             overflow="visible"
             id="textext-63646057-3">
            <path
               inkscape:connector-curvature="0"
               style="stroke:none;stroke-linecap:square;stroke-linejoin:round"
               d="m 2.859375,-6.8125 c 0,0 0,-0.109375 -0.125,-0.109375 -0.234375,0 -0.953125,0.078125 -1.21875,0.109375 -0.078125,0 -0.1875,0.015625 -0.1875,0.1875 0,0.125 0.09375,0.125 0.234375,0.125 0.484375,0 0.5,0.0625 0.5,0.171875 L 2.03125,-6.125 0.59375,-0.390625 c -0.046875,0.140625 -0.046875,0.15625 -0.046875,0.21875 0,0.234375 0.203125,0.28125 0.296875,0.28125 0.125,0 0.265625,-0.09375 0.328125,-0.203125 0.046875,-0.09375 0.5,-1.9375 0.5625,-2.1875 0.34375,0.03125 1.15625,0.1875 1.15625,0.84375 0,0.078125 0,0.109375 -0.03125,0.21875 -0.015625,0.109375 -0.03125,0.234375 -0.03125,0.34375 0,0.578125 0.390625,0.984375 0.90625,0.984375 0.296875,0 0.578125,-0.15625 0.796875,-0.53125 0.25,-0.4375 0.359375,-0.984375 0.359375,-1 0,-0.109375 -0.09375,-0.109375 -0.125,-0.109375 -0.09375,0 -0.109375,0.046875 -0.140625,0.1875 -0.203125,0.71875 -0.421875,1.234375 -0.859375,1.234375 -0.203125,0 -0.328125,-0.109375 -0.328125,-0.46875 0,-0.171875 0.046875,-0.40625 0.078125,-0.5625 C 3.5625,-1.3125 3.5625,-1.34375 3.5625,-1.453125 3.5625,-2.09375 2.9375,-2.375 2.078125,-2.5 2.390625,-2.671875 2.71875,-2.984375 2.9375,-3.234375 3.421875,-3.765625 3.875,-4.1875 4.359375,-4.1875 c 0.0625,0 0.078125,0 0.09375,0.015625 0.125,0.015625 0.125,0.015625 0.21875,0.078125 0.015625,0 0.015625,0.015625 0.03125,0.03125 -0.46875,0.03125 -0.5625,0.421875 -0.5625,0.546875 0,0.15625 0.109375,0.34375 0.375,0.34375 0.265625,0 0.546875,-0.21875 0.546875,-0.609375 0,-0.296875 -0.234375,-0.625 -0.671875,-0.625 -0.28125,0 -0.734375,0.078125 -1.453125,0.875 -0.34375,0.375 -0.734375,0.78125 -1.109375,0.921875 z m 0,0"
               id="path5500" />
          </symbol>
          <symbol
             style="overflow:visible;stroke-linecap:square;stroke-linejoin:round"
             overflow="visible"
             id="textext-63646057-4">
            <path
               inkscape:connector-curvature="0"
               style="stroke:none;stroke-linecap:square;stroke-linejoin:round"
               d="M 3.328125,-3.015625 C 3.390625,-3.265625 3.625,-4.1875 4.3125,-4.1875 c 0.046875,0 0.296875,0 0.5,0.125 C 4.53125,-4 4.34375,-3.765625 4.34375,-3.515625 c 0,0.15625 0.109375,0.34375 0.375,0.34375 0.21875,0 0.53125,-0.171875 0.53125,-0.578125 0,-0.515625 -0.578125,-0.65625 -0.921875,-0.65625 -0.578125,0 -0.921875,0.53125 -1.046875,0.75 -0.25,-0.65625 -0.78125,-0.75 -1.078125,-0.75 -1.03125,0 -1.609375,1.28125 -1.609375,1.53125 0,0.109375 0.109375,0.109375 0.125,0.109375 0.078125,0 0.109375,-0.03125 0.125,-0.109375 0.34375,-1.0625 1,-1.3125 1.34375,-1.3125 0.1875,0 0.53125,0.09375 0.53125,0.671875 0,0.3125 -0.171875,0.96875 -0.53125,2.375 -0.15625,0.609375 -0.515625,1.03125 -0.953125,1.03125 -0.0625,0 -0.28125,0 -0.5,-0.125 0.25,-0.0625 0.46875,-0.265625 0.46875,-0.546875 0,-0.265625 -0.21875,-0.34375 -0.359375,-0.34375 -0.3125,0 -0.546875,0.25 -0.546875,0.578125 0,0.453125 0.484375,0.65625 0.921875,0.65625 0.671875,0 1.03125,-0.703125 1.046875,-0.75 0.125,0.359375 0.484375,0.75 1.078125,0.75 1.03125,0 1.59375,-1.28125 1.59375,-1.53125 0,-0.109375 -0.078125,-0.109375 -0.109375,-0.109375 -0.09375,0 -0.109375,0.046875 -0.140625,0.109375 -0.328125,1.078125 -1,1.3125 -1.3125,1.3125 -0.390625,0 -0.546875,-0.3125 -0.546875,-0.65625 0,-0.21875 0.046875,-0.4375 0.15625,-0.875 z m 0,0"
               id="path5503" />
          </symbol>
          <symbol
             style="overflow:visible;stroke-linecap:square;stroke-linejoin:round"
             overflow="visible"
             id="textext-63646057-5">
            <path
               inkscape:connector-curvature="0"
               style="stroke:none;stroke-linecap:square;stroke-linejoin:round"
               d=""
               id="path5506" />
          </symbol>
          <symbol
             style="overflow:visible;stroke-linecap:square;stroke-linejoin:round"
             overflow="visible"
             id="textext-63646057-6">
            <path
               inkscape:connector-curvature="0"
               style="stroke:none;stroke-linecap:square;stroke-linejoin:round"
               d="m 6.84375,-3.265625 c 0.15625,0 0.34375,0 0.34375,-0.1875 C 7.1875,-3.65625 7,-3.65625 6.859375,-3.65625 l -5.96875,0 c -0.140625,0 -0.328125,0 -0.328125,0.203125 0,0.1875 0.1875,0.1875 0.328125,0.1875 z m 0.015625,1.9375 c 0.140625,0 0.328125,0 0.328125,-0.203125 0,-0.1875 -0.1875,-0.1875 -0.34375,-0.1875 l -5.953125,0 c -0.140625,0 -0.328125,0 -0.328125,0.1875 0,0.203125 0.1875,0.203125 0.328125,0.203125 z m 0,0"
               id="path5509" />
          </symbol>
          <symbol
             style="overflow:visible;stroke-linecap:square;stroke-linejoin:round"
             overflow="visible"
             id="textext-63646057-7">
            <path
               inkscape:connector-curvature="0"
               style="stroke:none;stroke-linecap:square;stroke-linejoin:round"
               d="m 4.078125,-2.296875 2.78125,0 C 7,-2.296875 7.1875,-2.296875 7.1875,-2.5 7.1875,-2.6875 7,-2.6875 6.859375,-2.6875 l -2.78125,0 0,-2.796875 c 0,-0.140625 0,-0.328125 -0.203125,-0.328125 -0.203125,0 -0.203125,0.1875 -0.203125,0.328125 l 0,2.796875 -2.78125,0 c -0.140625,0 -0.328125,0 -0.328125,0.1875 0,0.203125 0.1875,0.203125 0.328125,0.203125 l 2.78125,0 0,2.796875 c 0,0.140625 0,0.328125 0.203125,0.328125 0.203125,0 0.203125,-0.1875 0.203125,-0.328125 z m 0,0"
               id="path5512" />
          </symbol>
          <symbol
             style="overflow:visible;stroke-linecap:square;stroke-linejoin:round"
             overflow="visible"
             id="textext-63646057-8">
            <path
               inkscape:connector-curvature="0"
               style="stroke:none;stroke-linecap:square;stroke-linejoin:round"
               d=""
               id="path5515" />
          </symbol>
          <symbol
             style="overflow:visible;stroke-linecap:square;stroke-linejoin:round"
             overflow="visible"
             id="textext-63646057-9">
            <path
               inkscape:connector-curvature="0"
               style="stroke:none;stroke-linecap:square;stroke-linejoin:round"
               d="M 3.984375,-4.625 C 3.984375,-4.640625 4,-4.734375 4,-4.734375 4,-4.78125 3.984375,-4.84375 3.890625,-4.84375 3.75,-4.84375 3.171875,-4.78125 3,-4.765625 c -0.046875,0 -0.15625,0.015625 -0.15625,0.15625 0,0.09375 0.109375,0.09375 0.1875,0.09375 0.328125,0 0.328125,0.0625 0.328125,0.109375 0,0.046875 0,0.09375 -0.015625,0.15625 L 2.9375,-2.65625 c -0.140625,-0.234375 -0.375,-0.421875 -0.71875,-0.421875 -0.890625,0 -1.796875,0.984375 -1.796875,1.984375 0,0.6875 0.453125,1.15625 1.0625,1.15625 0.375,0 0.703125,-0.203125 0.984375,-0.484375 C 2.59375,0 3,0.0625 3.1875,0.0625 c 0.25,0 0.421875,-0.140625 0.546875,-0.359375 0.15625,-0.28125 0.25,-0.671875 0.25,-0.703125 0,-0.09375 -0.09375,-0.09375 -0.109375,-0.09375 -0.109375,0 -0.109375,0.03125 -0.15625,0.21875 C 3.625,-0.53125 3.5,-0.125 3.203125,-0.125 3.03125,-0.125 2.96875,-0.28125 2.96875,-0.46875 c 0,-0.125 0.015625,-0.1875 0.046875,-0.28125 z M 2.5,-0.875 C 2.453125,-0.671875 2.296875,-0.53125 2.140625,-0.40625 2.078125,-0.34375 1.796875,-0.125 1.5,-0.125 c -0.265625,0 -0.515625,-0.1875 -0.515625,-0.671875 0,-0.375 0.203125,-1.140625 0.375,-1.421875 0.3125,-0.5625 0.671875,-0.65625 0.859375,-0.65625 0.484375,0 0.625,0.53125 0.625,0.609375 0,0.015625 -0.015625,0.078125 -0.015625,0.09375 z m 0,0"
               id="path5518" />
          </symbol>
          <symbol
             style="overflow:visible;stroke-linecap:square;stroke-linejoin:round"
             overflow="visible"
             id="textext-63646057-10">
            <path
               inkscape:connector-curvature="0"
               style="stroke:none;stroke-linecap:square;stroke-linejoin:round"
               d="M 1.734375,-0.734375 C 1.671875,-0.5 1.4375,-0.125 1.078125,-0.125 c -0.015625,0 -0.234375,0 -0.375,-0.09375 0.28125,-0.09375 0.3125,-0.34375 0.3125,-0.390625 0,-0.15625 -0.125,-0.25 -0.28125,-0.25 -0.203125,0 -0.40625,0.15625 -0.40625,0.421875 0,0.34375 0.390625,0.5 0.734375,0.5 0.328125,0 0.609375,-0.1875 0.78125,-0.484375 C 2.015625,-0.0625 2.390625,0.0625 2.671875,0.0625 c 0.8125,0 1.234375,-0.859375 1.234375,-1.0625 0,-0.09375 -0.09375,-0.09375 -0.109375,-0.09375 -0.109375,0 -0.109375,0.046875 -0.140625,0.125 -0.140625,0.484375 -0.5625,0.84375 -0.953125,0.84375 -0.28125,0 -0.421875,-0.1875 -0.421875,-0.453125 0,-0.1875 0.171875,-0.8125 0.359375,-1.59375 C 2.78125,-2.703125 3.09375,-2.875 3.328125,-2.875 c 0.015625,0 0.21875,0 0.375,0.09375 -0.21875,0.0625 -0.3125,0.265625 -0.3125,0.390625 0,0.140625 0.125,0.25 0.28125,0.25 0.15625,0 0.390625,-0.125 0.390625,-0.421875 0,-0.390625 -0.453125,-0.515625 -0.71875,-0.515625 -0.359375,0 -0.640625,0.234375 -0.78125,0.5 -0.125,-0.28125 -0.453125,-0.5 -0.84375,-0.5 C 0.9375,-3.078125 0.5,-2.21875 0.5,-2 c 0,0.078125 0.09375,0.078125 0.109375,0.078125 0.09375,0 0.09375,-0.015625 0.140625,-0.109375 C 0.921875,-2.578125 1.359375,-2.875 1.703125,-2.875 1.9375,-2.875 2.125,-2.75 2.125,-2.421875 2.125,-2.28125 2.03125,-1.9375 1.96875,-1.6875 Z m 0,0"
               id="path5521" />
          </symbol>
          <symbol
             style="overflow:visible;stroke-linecap:square;stroke-linejoin:round"
             overflow="visible"
             id="textext-63646057-11">
            <path
               inkscape:connector-curvature="0"
               style="stroke:none;stroke-linecap:square;stroke-linejoin:round"
               d="m 1.71875,-2.75 0.703125,0 c 0.140625,0 0.21875,0 0.21875,-0.15625 C 2.640625,-3 2.5625,-3 2.4375,-3 l -0.65625,0 0.25,-1.03125 C 2.046875,-4.0625 2.0625,-4.109375 2.0625,-4.125 c 0,-0.140625 -0.109375,-0.234375 -0.25,-0.234375 -0.171875,0 -0.265625,0.125 -0.328125,0.296875 C 1.4375,-3.875 1.53125,-4.21875 1.21875,-3 l -0.703125,0 c -0.125,0 -0.21875,0 -0.21875,0.15625 C 0.296875,-2.75 0.375,-2.75 0.5,-2.75 l 0.65625,0 L 0.75,-1.109375 C 0.703125,-0.9375 0.640625,-0.6875 0.640625,-0.59375 c 0,0.40625 0.359375,0.65625 0.75,0.65625 0.78125,0 1.21875,-0.96875 1.21875,-1.0625 0,-0.09375 -0.09375,-0.09375 -0.109375,-0.09375 -0.09375,0 -0.09375,0.015625 -0.15625,0.140625 -0.1875,0.4375 -0.546875,0.828125 -0.921875,0.828125 -0.15625,0 -0.25,-0.09375 -0.25,-0.34375 0,-0.0625 0.03125,-0.21875 0.046875,-0.28125 z m 0,0"
               id="path5524" />
          </symbol>
        </g>
      </defs>
      <g
         style="stroke-linecap:square;stroke-linejoin:round"
         id="textext-63646057-12">
        <g
           style="fill:#000000;fill-opacity:1;stroke-linecap:square;stroke-linejoin:round"
           id="g5527">
          <use
             height="100%"
             width="100%"
             style="stroke-linecap:square;stroke-linejoin:round"
             xlink:href="#textext-63646057-1"
             x="223.43201"
             y="134.765"
             id="use5529" />
        </g>
        <g
           style="fill:#000000;fill-opacity:1;stroke-linecap:square;stroke-linejoin:round"
           id="g5531">
          <use
             height="100%"
             width="100%"
             style="stroke-linecap:square;stroke-linejoin:round"
             xlink:href="#textext-63646057-6"
             x="233.99001"
             y="134.765"
             id="use5533" />
        </g>
        <g
           style="fill:#000000;fill-opacity:1;stroke-linecap:square;stroke-linejoin:round"
           id="g5535">
          <use
             height="100%"
             width="100%"
             style="stroke-linecap:square;stroke-linejoin:round"
             xlink:href="#textext-63646057-2"
             x="244.506"
             y="134.765"
             id="use5537" />
        </g>
        <g
           style="fill:#000000;fill-opacity:1;stroke-linecap:square;stroke-linejoin:round"
           id="g5539">
          <use
             height="100%"
             width="100%"
             style="stroke-linecap:square;stroke-linejoin:round"
             xlink:href="#textext-63646057-9"
             x="251.41299"
             y="130.842"
             id="use5541" />
          <use
             height="100%"
             width="100%"
             style="stroke-linecap:square;stroke-linejoin:round"
             xlink:href="#textext-63646057-10"
             x="255.56032"
             y="130.842"
             id="use5543" />
        </g>
        <path
           inkscape:connector-curvature="0"
           style="fill:none;stroke:#000000;stroke-width:0.398;stroke-linecap:butt;stroke-linejoin:miter;stroke-miterlimit:10;stroke-opacity:1"
           d="m 0.0010625,5.625e-4 8.6640625,0"
           transform="matrix(1,0,0,-1,251.413,132.274)"
           id="path5545" />
        <g
           style="fill:#000000;fill-opacity:1;stroke-linecap:square;stroke-linejoin:round"
           id="g5547">
          <use
             height="100%"
             width="100%"
             style="stroke-linecap:square;stroke-linejoin:round"
             xlink:href="#textext-63646057-9"
             x="252.16701"
             y="138.2"
             id="use5549" />
          <use
             height="100%"
             width="100%"
             style="stroke-linecap:square;stroke-linejoin:round"
             xlink:href="#textext-63646057-11"
             x="256.31433"
             y="138.2"
             id="use5551" />
        </g>
        <g
           style="fill:#000000;fill-opacity:1;stroke-linecap:square;stroke-linejoin:round"
           id="g5553">
          <use
             height="100%"
             width="100%"
             style="stroke-linecap:square;stroke-linejoin:round"
             xlink:href="#textext-63646057-7"
             x="263.487"
             y="134.765"
             id="use5555" />
        </g>
        <g
           style="fill:#000000;fill-opacity:1;stroke-linecap:square;stroke-linejoin:round"
           id="g5557">
          <use
             height="100%"
             width="100%"
             style="stroke-linecap:square;stroke-linejoin:round"
             xlink:href="#textext-63646057-3"
             x="273.45001"
             y="134.765"
             id="use5559" />
        </g>
        <g
           style="fill:#000000;fill-opacity:1;stroke-linecap:square;stroke-linejoin:round"
           id="g5561">
          <use
             height="100%"
             width="100%"
             style="stroke-linecap:square;stroke-linejoin:round"
             xlink:href="#textext-63646057-4"
             x="278.94537"
             y="134.765"
             id="use5563" />
        </g>
      </g>
    </g>
    <rect
       style="color:#000000;clip-rule:nonzero;display:inline;overflow:visible;visibility:visible;opacity:1;isolation:auto;mix-blend-mode:normal;color-interpolation:sRGB;color-interpolation-filters:linearRGB;solid-color:#000000;solid-opacity:1;fill:#f7a0ff;fill-opacity:1;fill-rule:evenodd;stroke:#f04aff;stroke-width:2;stroke-linecap:butt;stroke-linejoin:miter;stroke-miterlimit:4;stroke-dasharray:none;stroke-dashoffset:0;stroke-opacity:1;marker:none;color-rendering:auto;image-rendering:auto;shape-rendering:auto;text-rendering:auto;enable-background:accumulate"
       id="rect6388"
       width="40.734921"
       height="58.803818"
       x="-334.03317"
       y="443.58646"
       rx="0.514633"
       ry="0.486927" />
    <rect
       ry="0.486927"
       rx="0.514633"
       y="443.58646"
       x="-412.49692"
       height="58.803802"
       width="55.119678"
       id="rect6390"
       style="color:#000000;clip-rule:nonzero;display:inline;overflow:visible;visibility:visible;opacity:1;isolation:auto;mix-blend-mode:normal;color-interpolation:sRGB;color-interpolation-filters:linearRGB;solid-color:#000000;solid-opacity:1;fill:#96e0ff;fill-opacity:1;fill-rule:evenodd;stroke:#31c2ff;stroke-width:2;stroke-linecap:butt;stroke-linejoin:miter;stroke-miterlimit:4;stroke-dasharray:none;stroke-dashoffset:0;stroke-opacity:1;marker:none;color-rendering:auto;image-rendering:auto;shape-rendering:auto;text-rendering:auto;enable-background:accumulate" />
    <path
       style="fill:none;fill-rule:evenodd;stroke:#000000;stroke-width:2;stroke-linecap:butt;stroke-linejoin:miter;stroke-miterlimit:4;stroke-dasharray:none;stroke-opacity:1;marker-end:url(#marker6060)"
       d="m -277.70455,380.97116 c 0,0 31.21348,17.06262 32,32.16637 0.78691,15.11123 -28.5,35.33363 -28.5,35.33363"
       id="path6668"
       inkscape:connector-curvature="0"
       sodipodi:nodetypes="csc" />
    <text
       xml:space="preserve"
       style="color:#000000;font-style:normal;font-variant:normal;font-weight:normal;font-stretch:normal;font-size:17.5px;line-height:100%;font-family:arial;-inkscape-font-specification:arial;text-indent:0;text-align:center;text-decoration:none;text-decoration-line:none;letter-spacing:0px;word-spacing:0px;text-transform:none;direction:ltr;block-progression:tb;writing-mode:lr-tb;baseline-shift:baseline;text-anchor:middle;display:inline;overflow:visible;visibility:visible;fill:#000000;fill-opacity:1;fill-rule:nonzero;stroke:none;stroke-width:1px;stroke-linecap:butt;stroke-linejoin:miter;stroke-opacity:1;marker:none;enable-background:accumulate"
       x="-375.89185"
       y="209.34892"
       id="text4348"
       sodipodi:linespacing="100%"><tspan
         id="tspan4352"
         sodipodi:role="line"
         style="font-style:normal;font-variant:normal;font-weight:normal;font-stretch:normal;font-size:17.5px;font-family:arial;-inkscape-font-specification:arial;stroke-linecap:square;stroke-linejoin:round"
         x="-375.89185"
         y="209.34892">(en milieu très visqueux)</tspan></text>
    <g
       ns0:text="$F = m\\frac{dx^2}{dt^2} + \\gamma\\frac{dx}{dt} + \\kappa x$"
       ns0:preamble=""
       transform="matrix(2.9328932,0,0,2.9328932,-1121.8001,-129.45432)"
       style="stroke-linecap:square;stroke-linejoin:round"
       id="g4575">
      <defs
         id="defs4577">
        <g
           id="g4579">
          <symbol
             overflow="visible"
             id="textext-5809f698-0">
            <path
               style="stroke:none;"
               d=""
               id="path4582" />
          </symbol>
          <symbol
             overflow="visible"
             id="textext-5809f698-1">
            <path
               style="stroke:none;"
               d="M 3.015625 -3.234375 L 3.984375 -3.234375 C 4.734375 -3.234375 4.8125 -3.078125 4.8125 -2.796875 C 4.8125 -2.71875 4.8125 -2.609375 4.75 -2.296875 C 4.71875 -2.25 4.71875 -2.21875 4.71875 -2.1875 C 4.71875 -2.109375 4.78125 -2.078125 4.828125 -2.078125 C 4.9375 -2.078125 4.9375 -2.109375 4.984375 -2.28125 L 5.53125 -4.453125 C 5.5625 -4.5625 5.5625 -4.578125 5.5625 -4.609375 C 5.5625 -4.625 5.546875 -4.71875 5.4375 -4.71875 C 5.34375 -4.71875 5.328125 -4.671875 5.296875 -4.5 C 5.078125 -3.734375 4.859375 -3.546875 4 -3.546875 L 3.09375 -3.546875 L 3.734375 -6.078125 C 3.828125 -6.4375 3.84375 -6.46875 4.28125 -6.46875 L 5.59375 -6.46875 C 6.8125 -6.46875 7.046875 -6.140625 7.046875 -5.375 C 7.046875 -5.140625 7.046875 -5.109375 7.015625 -4.828125 C 7 -4.703125 7 -4.6875 7 -4.65625 C 7 -4.609375 7.03125 -4.53125 7.125 -4.53125 C 7.234375 -4.53125 7.234375 -4.59375 7.25 -4.78125 L 7.453125 -6.515625 C 7.484375 -6.78125 7.4375 -6.78125 7.1875 -6.78125 L 2.296875 -6.78125 C 2.109375 -6.78125 2 -6.78125 2 -6.578125 C 2 -6.46875 2.09375 -6.46875 2.28125 -6.46875 C 2.65625 -6.46875 2.9375 -6.46875 2.9375 -6.296875 C 2.9375 -6.25 2.9375 -6.234375 2.875 -6.046875 L 1.5625 -0.78125 C 1.46875 -0.390625 1.453125 -0.3125 0.65625 -0.3125 C 0.484375 -0.3125 0.375 -0.3125 0.375 -0.125 C 0.375 0 0.5 0 0.53125 0 C 0.8125 0 1.5625 -0.03125 1.84375 -0.03125 C 2.171875 -0.03125 3 0 3.328125 0 C 3.421875 0 3.53125 0 3.53125 -0.1875 C 3.53125 -0.265625 3.484375 -0.296875 3.484375 -0.296875 C 3.453125 -0.3125 3.421875 -0.3125 3.203125 -0.3125 C 2.984375 -0.3125 2.9375 -0.3125 2.6875 -0.328125 C 2.390625 -0.359375 2.359375 -0.40625 2.359375 -0.53125 C 2.359375 -0.546875 2.359375 -0.609375 2.40625 -0.75 Z M 3.015625 -3.234375 "
               id="path4585" />
          </symbol>
          <symbol
             overflow="visible"
             id="textext-5809f698-2">
            <path
               style="stroke:none;"
               d="M 0.875 -0.59375 C 0.84375 -0.4375 0.78125 -0.203125 0.78125 -0.15625 C 0.78125 0.015625 0.921875 0.109375 1.078125 0.109375 C 1.203125 0.109375 1.375 0.03125 1.453125 -0.171875 C 1.453125 -0.1875 1.578125 -0.65625 1.640625 -0.90625 L 1.859375 -1.796875 C 1.90625 -2.03125 1.96875 -2.25 2.03125 -2.46875 C 2.0625 -2.640625 2.140625 -2.9375 2.15625 -2.96875 C 2.296875 -3.28125 2.828125 -4.1875 3.78125 -4.1875 C 4.234375 -4.1875 4.3125 -3.8125 4.3125 -3.484375 C 4.3125 -3.234375 4.25 -2.953125 4.171875 -2.65625 L 3.890625 -1.5 L 3.6875 -0.75 C 3.65625 -0.546875 3.5625 -0.203125 3.5625 -0.15625 C 3.5625 0.015625 3.703125 0.109375 3.84375 0.109375 C 4.15625 0.109375 4.21875 -0.140625 4.296875 -0.453125 C 4.4375 -1.015625 4.8125 -2.46875 4.890625 -2.859375 C 4.921875 -2.984375 5.453125 -4.1875 6.546875 -4.1875 C 6.96875 -4.1875 7.078125 -3.84375 7.078125 -3.484375 C 7.078125 -2.921875 6.65625 -1.78125 6.453125 -1.25 C 6.375 -1.015625 6.328125 -0.90625 6.328125 -0.703125 C 6.328125 -0.234375 6.671875 0.109375 7.140625 0.109375 C 8.078125 0.109375 8.453125 -1.34375 8.453125 -1.421875 C 8.453125 -1.53125 8.359375 -1.53125 8.328125 -1.53125 C 8.234375 -1.53125 8.234375 -1.5 8.1875 -1.34375 C 8.03125 -0.8125 7.71875 -0.109375 7.171875 -0.109375 C 7 -0.109375 6.921875 -0.203125 6.921875 -0.4375 C 6.921875 -0.6875 7.015625 -0.921875 7.109375 -1.140625 C 7.296875 -1.671875 7.71875 -2.765625 7.71875 -3.34375 C 7.71875 -3.984375 7.3125 -4.40625 6.5625 -4.40625 C 5.828125 -4.40625 5.3125 -3.96875 4.9375 -3.4375 C 4.9375 -3.5625 4.90625 -3.90625 4.625 -4.140625 C 4.375 -4.359375 4.0625 -4.40625 3.8125 -4.40625 C 2.90625 -4.40625 2.421875 -3.765625 2.25 -3.53125 C 2.203125 -4.109375 1.78125 -4.40625 1.328125 -4.40625 C 0.875 -4.40625 0.6875 -4.015625 0.59375 -3.84375 C 0.421875 -3.484375 0.296875 -2.90625 0.296875 -2.875 C 0.296875 -2.765625 0.390625 -2.765625 0.40625 -2.765625 C 0.515625 -2.765625 0.515625 -2.78125 0.578125 -3 C 0.75 -3.703125 0.953125 -4.1875 1.3125 -4.1875 C 1.46875 -4.1875 1.609375 -4.109375 1.609375 -3.734375 C 1.609375 -3.515625 1.578125 -3.40625 1.453125 -2.890625 Z M 0.875 -0.59375 "
               id="path4588" />
          </symbol>
          <symbol
             overflow="visible"
             id="textext-5809f698-3">
            <path
               style="stroke:none;"
               d="M 0.40625 -2.53125 C 0.796875 -3.671875 1.890625 -3.6875 2 -3.6875 C 3.5 -3.6875 3.609375 -1.9375 3.609375 -1.15625 C 3.609375 -0.546875 3.5625 -0.375 3.484375 -0.171875 C 3.265625 0.546875 2.96875 1.703125 2.96875 1.96875 C 2.96875 2.078125 3.015625 2.140625 3.09375 2.140625 C 3.234375 2.140625 3.3125 1.921875 3.421875 1.546875 C 3.65625 0.703125 3.75 0.140625 3.78125 -0.171875 C 3.8125 -0.296875 3.828125 -0.421875 3.875 -0.5625 C 4.1875 -1.546875 4.828125 -3.03125 5.21875 -3.8125 C 5.296875 -3.9375 5.40625 -4.15625 5.40625 -4.203125 C 5.40625 -4.296875 5.3125 -4.296875 5.296875 -4.296875 C 5.265625 -4.296875 5.203125 -4.296875 5.171875 -4.234375 C 4.65625 -3.28125 4.25 -2.28125 3.859375 -1.28125 C 3.84375 -1.578125 3.84375 -2.34375 3.453125 -3.3125 C 3.203125 -3.921875 2.8125 -4.40625 2.125 -4.40625 C 0.875 -4.40625 0.171875 -2.890625 0.171875 -2.578125 C 0.171875 -2.484375 0.265625 -2.484375 0.375 -2.484375 Z M 0.40625 -2.53125 "
               id="path4591" />
          </symbol>
          <symbol
             overflow="visible"
             id="textext-5809f698-4">
            <path
               style="stroke:none;"
               d="M 0.59375 -0.390625 C 0.546875 -0.25 0.546875 -0.234375 0.546875 -0.15625 C 0.546875 0.015625 0.6875 0.109375 0.84375 0.109375 C 1.140625 0.109375 1.203125 -0.125 1.28125 -0.453125 C 1.375 -0.8125 1.3125 -0.625 1.75 -2.296875 C 2.578125 -2.265625 3.453125 -2.09375 3.453125 -1.453125 C 3.453125 -1.375 3.453125 -1.328125 3.421875 -1.21875 C 3.390625 -1.0625 3.375 -0.953125 3.375 -0.875 C 3.375 -0.296875 3.78125 0.109375 4.296875 0.109375 C 4.609375 0.109375 4.875 -0.0625 5.078125 -0.40625 C 5.328125 -0.828125 5.4375 -1.40625 5.4375 -1.421875 C 5.4375 -1.53125 5.359375 -1.53125 5.328125 -1.53125 C 5.21875 -1.53125 5.21875 -1.484375 5.1875 -1.34375 C 5 -0.65625 4.765625 -0.109375 4.3125 -0.109375 C 4.109375 -0.109375 4 -0.234375 4 -0.59375 C 4 -0.734375 4.03125 -0.984375 4.078125 -1.140625 C 4.09375 -1.234375 4.125 -1.359375 4.125 -1.46875 C 4.125 -2.40625 2.75 -2.484375 2.1875 -2.5 C 2.515625 -2.6875 2.84375 -2.953125 3.109375 -3.1875 C 3.5625 -3.5625 3.859375 -3.8125 4.25 -3.984375 C 4.234375 -3.921875 4.203125 -3.8125 4.203125 -3.765625 C 4.203125 -3.640625 4.28125 -3.40625 4.578125 -3.40625 C 4.90625 -3.40625 5.125 -3.703125 5.125 -3.953125 C 5.125 -4.03125 5.078125 -4.296875 4.71875 -4.296875 C 4.109375 -4.296875 3.53125 -3.796875 3.09375 -3.421875 C 2.40625 -2.84375 2.171875 -2.703125 1.8125 -2.578125 C 1.84375 -2.6875 1.96875 -3.1875 2.015625 -3.359375 C 2.078125 -3.625 2.1875 -4.09375 2.1875 -4.140625 C 2.1875 -4.3125 2.078125 -4.40625 1.90625 -4.40625 C 1.875 -4.40625 1.59375 -4.40625 1.5 -4.046875 Z M 0.59375 -0.390625 "
               id="path4594" />
          </symbol>
          <symbol
             overflow="visible"
             id="textext-5809f698-5">
            <path
               style="stroke:none;"
               d="M 3.328125 -3.015625 C 3.390625 -3.265625 3.625 -4.1875 4.3125 -4.1875 C 4.359375 -4.1875 4.609375 -4.1875 4.8125 -4.0625 C 4.53125 -4 4.34375 -3.765625 4.34375 -3.515625 C 4.34375 -3.359375 4.453125 -3.171875 4.71875 -3.171875 C 4.9375 -3.171875 5.25 -3.34375 5.25 -3.75 C 5.25 -4.265625 4.671875 -4.40625 4.328125 -4.40625 C 3.75 -4.40625 3.40625 -3.875 3.28125 -3.65625 C 3.03125 -4.3125 2.5 -4.40625 2.203125 -4.40625 C 1.171875 -4.40625 0.59375 -3.125 0.59375 -2.875 C 0.59375 -2.765625 0.703125 -2.765625 0.71875 -2.765625 C 0.796875 -2.765625 0.828125 -2.796875 0.84375 -2.875 C 1.1875 -3.9375 1.84375 -4.1875 2.1875 -4.1875 C 2.375 -4.1875 2.71875 -4.09375 2.71875 -3.515625 C 2.71875 -3.203125 2.546875 -2.546875 2.1875 -1.140625 C 2.03125 -0.53125 1.671875 -0.109375 1.234375 -0.109375 C 1.171875 -0.109375 0.953125 -0.109375 0.734375 -0.234375 C 0.984375 -0.296875 1.203125 -0.5 1.203125 -0.78125 C 1.203125 -1.046875 0.984375 -1.125 0.84375 -1.125 C 0.53125 -1.125 0.296875 -0.875 0.296875 -0.546875 C 0.296875 -0.09375 0.78125 0.109375 1.21875 0.109375 C 1.890625 0.109375 2.25 -0.59375 2.265625 -0.640625 C 2.390625 -0.28125 2.75 0.109375 3.34375 0.109375 C 4.375 0.109375 4.9375 -1.171875 4.9375 -1.421875 C 4.9375 -1.53125 4.859375 -1.53125 4.828125 -1.53125 C 4.734375 -1.53125 4.71875 -1.484375 4.6875 -1.421875 C 4.359375 -0.34375 3.6875 -0.109375 3.375 -0.109375 C 2.984375 -0.109375 2.828125 -0.421875 2.828125 -0.765625 C 2.828125 -0.984375 2.875 -1.203125 2.984375 -1.640625 Z M 3.328125 -3.015625 "
               id="path4597" />
          </symbol>
          <symbol
             overflow="visible"
             id="textext-5809f698-6">
            <path
               style="stroke:none;"
               d=""
               id="path4600" />
          </symbol>
          <symbol
             overflow="visible"
             id="textext-5809f698-7">
            <path
               style="stroke:none;"
               d="M 6.84375 -3.265625 C 7 -3.265625 7.1875 -3.265625 7.1875 -3.453125 C 7.1875 -3.65625 7 -3.65625 6.859375 -3.65625 L 0.890625 -3.65625 C 0.75 -3.65625 0.5625 -3.65625 0.5625 -3.453125 C 0.5625 -3.265625 0.75 -3.265625 0.890625 -3.265625 Z M 6.859375 -1.328125 C 7 -1.328125 7.1875 -1.328125 7.1875 -1.53125 C 7.1875 -1.71875 7 -1.71875 6.84375 -1.71875 L 0.890625 -1.71875 C 0.75 -1.71875 0.5625 -1.71875 0.5625 -1.53125 C 0.5625 -1.328125 0.75 -1.328125 0.890625 -1.328125 Z M 6.859375 -1.328125 "
               id="path4603" />
          </symbol>
          <symbol
             overflow="visible"
             id="textext-5809f698-8">
            <path
               style="stroke:none;"
               d="M 4.078125 -2.296875 L 6.859375 -2.296875 C 7 -2.296875 7.1875 -2.296875 7.1875 -2.5 C 7.1875 -2.6875 7 -2.6875 6.859375 -2.6875 L 4.078125 -2.6875 L 4.078125 -5.484375 C 4.078125 -5.625 4.078125 -5.8125 3.875 -5.8125 C 3.671875 -5.8125 3.671875 -5.625 3.671875 -5.484375 L 3.671875 -2.6875 L 0.890625 -2.6875 C 0.75 -2.6875 0.5625 -2.6875 0.5625 -2.5 C 0.5625 -2.296875 0.75 -2.296875 0.890625 -2.296875 L 3.671875 -2.296875 L 3.671875 0.5 C 3.671875 0.640625 3.671875 0.828125 3.875 0.828125 C 4.078125 0.828125 4.078125 0.640625 4.078125 0.5 Z M 4.078125 -2.296875 "
               id="path4606" />
          </symbol>
          <symbol
             overflow="visible"
             id="textext-5809f698-9">
            <path
               style="stroke:none;"
               d=""
               id="path4609" />
          </symbol>
          <symbol
             overflow="visible"
             id="textext-5809f698-10">
            <path
               style="stroke:none;"
               d="M 3.984375 -4.625 C 3.984375 -4.640625 4 -4.734375 4 -4.734375 C 4 -4.78125 3.984375 -4.84375 3.890625 -4.84375 C 3.75 -4.84375 3.171875 -4.78125 3 -4.765625 C 2.953125 -4.765625 2.84375 -4.75 2.84375 -4.609375 C 2.84375 -4.515625 2.953125 -4.515625 3.03125 -4.515625 C 3.359375 -4.515625 3.359375 -4.453125 3.359375 -4.40625 C 3.359375 -4.359375 3.359375 -4.3125 3.34375 -4.25 L 2.9375 -2.65625 C 2.796875 -2.890625 2.5625 -3.078125 2.21875 -3.078125 C 1.328125 -3.078125 0.421875 -2.09375 0.421875 -1.09375 C 0.421875 -0.40625 0.875 0.0625 1.484375 0.0625 C 1.859375 0.0625 2.1875 -0.140625 2.46875 -0.421875 C 2.59375 0 3 0.0625 3.1875 0.0625 C 3.4375 0.0625 3.609375 -0.078125 3.734375 -0.296875 C 3.890625 -0.578125 3.984375 -0.96875 3.984375 -1 C 3.984375 -1.09375 3.890625 -1.09375 3.875 -1.09375 C 3.765625 -1.09375 3.765625 -1.0625 3.71875 -0.875 C 3.625 -0.53125 3.5 -0.125 3.203125 -0.125 C 3.03125 -0.125 2.96875 -0.28125 2.96875 -0.46875 C 2.96875 -0.59375 2.984375 -0.65625 3.015625 -0.75 Z M 2.5 -0.875 C 2.453125 -0.671875 2.296875 -0.53125 2.140625 -0.40625 C 2.078125 -0.34375 1.796875 -0.125 1.5 -0.125 C 1.234375 -0.125 0.984375 -0.3125 0.984375 -0.796875 C 0.984375 -1.171875 1.1875 -1.9375 1.359375 -2.21875 C 1.671875 -2.78125 2.03125 -2.875 2.21875 -2.875 C 2.703125 -2.875 2.84375 -2.34375 2.84375 -2.265625 C 2.84375 -2.25 2.828125 -2.1875 2.828125 -2.171875 Z M 2.5 -0.875 "
               id="path4612" />
          </symbol>
          <symbol
             overflow="visible"
             id="textext-5809f698-11">
            <path
               style="stroke:none;"
               d="M 1.734375 -0.734375 C 1.671875 -0.5 1.4375 -0.125 1.078125 -0.125 C 1.0625 -0.125 0.84375 -0.125 0.703125 -0.21875 C 0.984375 -0.3125 1.015625 -0.5625 1.015625 -0.609375 C 1.015625 -0.765625 0.890625 -0.859375 0.734375 -0.859375 C 0.53125 -0.859375 0.328125 -0.703125 0.328125 -0.4375 C 0.328125 -0.09375 0.71875 0.0625 1.0625 0.0625 C 1.390625 0.0625 1.671875 -0.125 1.84375 -0.421875 C 2.015625 -0.0625 2.390625 0.0625 2.671875 0.0625 C 3.484375 0.0625 3.90625 -0.796875 3.90625 -1 C 3.90625 -1.09375 3.8125 -1.09375 3.796875 -1.09375 C 3.6875 -1.09375 3.6875 -1.046875 3.65625 -0.96875 C 3.515625 -0.484375 3.09375 -0.125 2.703125 -0.125 C 2.421875 -0.125 2.28125 -0.3125 2.28125 -0.578125 C 2.28125 -0.765625 2.453125 -1.390625 2.640625 -2.171875 C 2.78125 -2.703125 3.09375 -2.875 3.328125 -2.875 C 3.34375 -2.875 3.546875 -2.875 3.703125 -2.78125 C 3.484375 -2.71875 3.390625 -2.515625 3.390625 -2.390625 C 3.390625 -2.25 3.515625 -2.140625 3.671875 -2.140625 C 3.828125 -2.140625 4.0625 -2.265625 4.0625 -2.5625 C 4.0625 -2.953125 3.609375 -3.078125 3.34375 -3.078125 C 2.984375 -3.078125 2.703125 -2.84375 2.5625 -2.578125 C 2.4375 -2.859375 2.109375 -3.078125 1.71875 -3.078125 C 0.9375 -3.078125 0.5 -2.21875 0.5 -2 C 0.5 -1.921875 0.59375 -1.921875 0.609375 -1.921875 C 0.703125 -1.921875 0.703125 -1.9375 0.75 -2.03125 C 0.921875 -2.578125 1.359375 -2.875 1.703125 -2.875 C 1.9375 -2.875 2.125 -2.75 2.125 -2.421875 C 2.125 -2.28125 2.03125 -1.9375 1.96875 -1.6875 Z M 1.734375 -0.734375 "
               id="path4615" />
          </symbol>
          <symbol
             overflow="visible"
             id="textext-5809f698-12">
            <path
               style="stroke:none;"
               d="M 1.71875 -2.75 L 2.421875 -2.75 C 2.5625 -2.75 2.640625 -2.75 2.640625 -2.90625 C 2.640625 -3 2.5625 -3 2.4375 -3 L 1.78125 -3 L 2.03125 -4.03125 C 2.046875 -4.0625 2.0625 -4.109375 2.0625 -4.125 C 2.0625 -4.265625 1.953125 -4.359375 1.8125 -4.359375 C 1.640625 -4.359375 1.546875 -4.234375 1.484375 -4.0625 C 1.4375 -3.875 1.53125 -4.21875 1.21875 -3 L 0.515625 -3 C 0.390625 -3 0.296875 -3 0.296875 -2.84375 C 0.296875 -2.75 0.375 -2.75 0.5 -2.75 L 1.15625 -2.75 L 0.75 -1.109375 C 0.703125 -0.9375 0.640625 -0.6875 0.640625 -0.59375 C 0.640625 -0.1875 1 0.0625 1.390625 0.0625 C 2.171875 0.0625 2.609375 -0.90625 2.609375 -1 C 2.609375 -1.09375 2.515625 -1.09375 2.5 -1.09375 C 2.40625 -1.09375 2.40625 -1.078125 2.34375 -0.953125 C 2.15625 -0.515625 1.796875 -0.125 1.421875 -0.125 C 1.265625 -0.125 1.171875 -0.21875 1.171875 -0.46875 C 1.171875 -0.53125 1.203125 -0.6875 1.21875 -0.75 Z M 1.71875 -2.75 "
               id="path4618" />
          </symbol>
          <symbol
             overflow="visible"
             id="textext-5809f698-13">
            <path
               style="stroke:none;"
               d=""
               id="path4621" />
          </symbol>
          <symbol
             overflow="visible"
             id="textext-5809f698-14">
            <path
               style="stroke:none;"
               d="M 2.9375 -0.96875 L 2.71875 -0.96875 C 2.71875 -0.875 2.65625 -0.5625 2.578125 -0.515625 C 2.546875 -0.484375 2.125 -0.484375 2.046875 -0.484375 L 1.078125 -0.484375 C 1.40625 -0.71875 1.765625 -1 2.0625 -1.203125 C 2.515625 -1.515625 2.9375 -1.796875 2.9375 -2.328125 C 2.9375 -2.96875 2.328125 -3.3125 1.625 -3.3125 C 0.953125 -3.3125 0.453125 -2.9375 0.453125 -2.4375 C 0.453125 -2.1875 0.671875 -2.140625 0.75 -2.140625 C 0.875 -2.140625 1.03125 -2.234375 1.03125 -2.4375 C 1.03125 -2.609375 0.90625 -2.71875 0.75 -2.71875 C 0.890625 -2.953125 1.1875 -3.09375 1.515625 -3.09375 C 2 -3.09375 2.40625 -2.8125 2.40625 -2.328125 C 2.40625 -1.90625 2.109375 -1.578125 1.734375 -1.265625 L 0.515625 -0.234375 C 0.46875 -0.1875 0.453125 -0.1875 0.453125 -0.15625 L 0.453125 0 L 2.765625 0 Z M 2.9375 -0.96875 "
               id="path4624" />
          </symbol>
        </g>
      </defs>
      <g
         id="textext-5809f698-15">
        <g
           style="fill:rgb(0%,0%,0%);fill-opacity:1;"
           id="g4627">
          <use
             xlink:href="#textext-5809f698-1"
             x="223.432"
             y="134.942"
             id="use4629" />
        </g>
        <g
           style="fill:rgb(0%,0%,0%);fill-opacity:1;"
           id="g4631">
          <use
             xlink:href="#textext-5809f698-7"
             x="233.99"
             y="134.942"
             id="use4633" />
        </g>
        <g
           style="fill:rgb(0%,0%,0%);fill-opacity:1;"
           id="g4635">
          <use
             xlink:href="#textext-5809f698-2"
             x="244.506"
             y="134.942"
             id="use4637" />
        </g>
        <g
           style="fill:rgb(0%,0%,0%);fill-opacity:1;"
           id="g4639">
          <use
             xlink:href="#textext-5809f698-10"
             x="254.449"
             y="131.019"
             id="use4641" />
          <use
             xlink:href="#textext-5809f698-11"
             x="258.596319"
             y="131.019"
             id="use4643" />
        </g>
        <g
           style="fill:rgb(0%,0%,0%);fill-opacity:1;"
           id="g4645">
          <use
             xlink:href="#textext-5809f698-14"
             x="263.114"
             y="128.012"
             id="use4647" />
        </g>
        <path
           style="fill:none;stroke-width:0.398;stroke-linecap:butt;stroke-linejoin:miter;stroke:rgb(0%,0%,0%);stroke-opacity:1;stroke-miterlimit:10;"
           d="M 0.00021875 0.00178125 L 12.554906 0.00178125 "
           transform="matrix(1,0,0,-1,254.449,132.451)"
           id="path4649" />
        <g
           style="fill:rgb(0%,0%,0%);fill-opacity:1;"
           id="g4651">
          <use
             xlink:href="#textext-5809f698-10"
             x="255.203"
             y="138.377"
             id="use4653" />
          <use
             xlink:href="#textext-5809f698-12"
             x="259.350319"
             y="138.377"
             id="use4655" />
        </g>
        <g
           style="fill:rgb(0%,0%,0%);fill-opacity:1;"
           id="g4657">
          <use
             xlink:href="#textext-5809f698-14"
             x="262.36"
             y="136.385"
             id="use4659" />
        </g>
        <g
           style="fill:rgb(0%,0%,0%);fill-opacity:1;"
           id="g4661">
          <use
             xlink:href="#textext-5809f698-8"
             x="270.411"
             y="134.942"
             id="use4663" />
        </g>
        <g
           style="fill:rgb(0%,0%,0%);fill-opacity:1;"
           id="g4665">
          <use
             xlink:href="#textext-5809f698-3"
             x="280.374"
             y="134.942"
             id="use4667" />
        </g>
        <g
           style="fill:rgb(0%,0%,0%);fill-opacity:1;"
           id="g4669">
          <use
             xlink:href="#textext-5809f698-10"
             x="287.281"
             y="131.019"
             id="use4671" />
          <use
             xlink:href="#textext-5809f698-11"
             x="291.428319"
             y="131.019"
             id="use4673" />
        </g>
        <path
           style="fill:none;stroke-width:0.398;stroke-linecap:butt;stroke-linejoin:miter;stroke:rgb(0%,0%,0%);stroke-opacity:1;stroke-miterlimit:10;"
           d="M 0.00025 0.00178125 L 8.664313 0.00178125 "
           transform="matrix(1,0,0,-1,287.281,132.451)"
           id="path4675" />
        <g
           style="fill:rgb(0%,0%,0%);fill-opacity:1;"
           id="g4677">
          <use
             xlink:href="#textext-5809f698-10"
             x="288.035"
             y="138.377"
             id="use4679" />
          <use
             xlink:href="#textext-5809f698-12"
             x="292.182319"
             y="138.377"
             id="use4681" />
        </g>
        <g
           style="fill:rgb(0%,0%,0%);fill-opacity:1;"
           id="g4683">
          <use
             xlink:href="#textext-5809f698-8"
             x="299.355"
             y="134.942"
             id="use4685" />
        </g>
        <g
           style="fill:rgb(0%,0%,0%);fill-opacity:1;"
           id="g4687">
          <use
             xlink:href="#textext-5809f698-4"
             x="309.318"
             y="134.942"
             id="use4689" />
          <use
             xlink:href="#textext-5809f698-5"
             x="315.05845"
             y="134.942"
             id="use4691" />
        </g>
      </g>
    </g>
    <g
       id="g5167"
       style="stroke-linecap:square;stroke-linejoin:round"
       transform="matrix(2.7339181,0,0,2.7339181,-1077.2681,111.79942)"
       ns0:preamble=""
       ns0:text="$F = \xce\xb3\\gamma \\frac{dx}{dt} + \\kappa x$">
      <defs
         id="defs5169">
        <g
           id="g5171">
          <symbol
             id="textext-6b87b553-0"
             overflow="visible">
            <path
               id="path5174"
               d=""
               style="stroke:none;" />
          </symbol>
          <symbol
             id="textext-6b87b553-1"
             overflow="visible">
            <path
               id="path5177"
               d="M 3.015625 -3.234375 L 3.984375 -3.234375 C 4.734375 -3.234375 4.8125 -3.078125 4.8125 -2.796875 C 4.8125 -2.71875 4.8125 -2.609375 4.75 -2.296875 C 4.71875 -2.25 4.71875 -2.21875 4.71875 -2.1875 C 4.71875 -2.109375 4.78125 -2.078125 4.828125 -2.078125 C 4.9375 -2.078125 4.9375 -2.109375 4.984375 -2.28125 L 5.53125 -4.453125 C 5.5625 -4.5625 5.5625 -4.578125 5.5625 -4.609375 C 5.5625 -4.625 5.546875 -4.71875 5.4375 -4.71875 C 5.34375 -4.71875 5.328125 -4.671875 5.296875 -4.5 C 5.078125 -3.734375 4.859375 -3.546875 4 -3.546875 L 3.09375 -3.546875 L 3.734375 -6.078125 C 3.828125 -6.4375 3.84375 -6.46875 4.28125 -6.46875 L 5.59375 -6.46875 C 6.8125 -6.46875 7.046875 -6.140625 7.046875 -5.375 C 7.046875 -5.140625 7.046875 -5.109375 7.015625 -4.828125 C 7 -4.703125 7 -4.6875 7 -4.65625 C 7 -4.609375 7.03125 -4.53125 7.125 -4.53125 C 7.234375 -4.53125 7.234375 -4.59375 7.25 -4.78125 L 7.453125 -6.515625 C 7.484375 -6.78125 7.4375 -6.78125 7.1875 -6.78125 L 2.296875 -6.78125 C 2.109375 -6.78125 2 -6.78125 2 -6.578125 C 2 -6.46875 2.09375 -6.46875 2.28125 -6.46875 C 2.65625 -6.46875 2.9375 -6.46875 2.9375 -6.296875 C 2.9375 -6.25 2.9375 -6.234375 2.875 -6.046875 L 1.5625 -0.78125 C 1.46875 -0.390625 1.453125 -0.3125 0.65625 -0.3125 C 0.484375 -0.3125 0.375 -0.3125 0.375 -0.125 C 0.375 0 0.5 0 0.53125 0 C 0.8125 0 1.5625 -0.03125 1.84375 -0.03125 C 2.171875 -0.03125 3 0 3.328125 0 C 3.421875 0 3.53125 0 3.53125 -0.1875 C 3.53125 -0.265625 3.484375 -0.296875 3.484375 -0.296875 C 3.453125 -0.3125 3.421875 -0.3125 3.203125 -0.3125 C 2.984375 -0.3125 2.9375 -0.3125 2.6875 -0.328125 C 2.390625 -0.359375 2.359375 -0.40625 2.359375 -0.53125 C 2.359375 -0.546875 2.359375 -0.609375 2.40625 -0.75 Z M 3.015625 -3.234375 "
               style="stroke:none;" />
          </symbol>
          <symbol
             id="textext-6b87b553-2"
             overflow="visible">
            <path
               id="path5180"
               d="M 0.40625 -2.53125 C 0.796875 -3.671875 1.890625 -3.6875 2 -3.6875 C 3.5 -3.6875 3.609375 -1.9375 3.609375 -1.15625 C 3.609375 -0.546875 3.5625 -0.375 3.484375 -0.171875 C 3.265625 0.546875 2.96875 1.703125 2.96875 1.96875 C 2.96875 2.078125 3.015625 2.140625 3.09375 2.140625 C 3.234375 2.140625 3.3125 1.921875 3.421875 1.546875 C 3.65625 0.703125 3.75 0.140625 3.78125 -0.171875 C 3.8125 -0.296875 3.828125 -0.421875 3.875 -0.5625 C 4.1875 -1.546875 4.828125 -3.03125 5.21875 -3.8125 C 5.296875 -3.9375 5.40625 -4.15625 5.40625 -4.203125 C 5.40625 -4.296875 5.3125 -4.296875 5.296875 -4.296875 C 5.265625 -4.296875 5.203125 -4.296875 5.171875 -4.234375 C 4.65625 -3.28125 4.25 -2.28125 3.859375 -1.28125 C 3.84375 -1.578125 3.84375 -2.34375 3.453125 -3.3125 C 3.203125 -3.921875 2.8125 -4.40625 2.125 -4.40625 C 0.875 -4.40625 0.171875 -2.890625 0.171875 -2.578125 C 0.171875 -2.484375 0.265625 -2.484375 0.375 -2.484375 Z M 0.40625 -2.53125 "
               style="stroke:none;" />
          </symbol>
          <symbol
             id="textext-6b87b553-3"
             overflow="visible">
            <path
               id="path5183"
               d="M 0.59375 -0.390625 C 0.546875 -0.25 0.546875 -0.234375 0.546875 -0.15625 C 0.546875 0.015625 0.6875 0.109375 0.84375 0.109375 C 1.140625 0.109375 1.203125 -0.125 1.28125 -0.453125 C 1.375 -0.8125 1.3125 -0.625 1.75 -2.296875 C 2.578125 -2.265625 3.453125 -2.09375 3.453125 -1.453125 C 3.453125 -1.375 3.453125 -1.328125 3.421875 -1.21875 C 3.390625 -1.0625 3.375 -0.953125 3.375 -0.875 C 3.375 -0.296875 3.78125 0.109375 4.296875 0.109375 C 4.609375 0.109375 4.875 -0.0625 5.078125 -0.40625 C 5.328125 -0.828125 5.4375 -1.40625 5.4375 -1.421875 C 5.4375 -1.53125 5.359375 -1.53125 5.328125 -1.53125 C 5.21875 -1.53125 5.21875 -1.484375 5.1875 -1.34375 C 5 -0.65625 4.765625 -0.109375 4.3125 -0.109375 C 4.109375 -0.109375 4 -0.234375 4 -0.59375 C 4 -0.734375 4.03125 -0.984375 4.078125 -1.140625 C 4.09375 -1.234375 4.125 -1.359375 4.125 -1.46875 C 4.125 -2.40625 2.75 -2.484375 2.1875 -2.5 C 2.515625 -2.6875 2.84375 -2.953125 3.109375 -3.1875 C 3.5625 -3.5625 3.859375 -3.8125 4.25 -3.984375 C 4.234375 -3.921875 4.203125 -3.8125 4.203125 -3.765625 C 4.203125 -3.640625 4.28125 -3.40625 4.578125 -3.40625 C 4.90625 -3.40625 5.125 -3.703125 5.125 -3.953125 C 5.125 -4.03125 5.078125 -4.296875 4.71875 -4.296875 C 4.109375 -4.296875 3.53125 -3.796875 3.09375 -3.421875 C 2.40625 -2.84375 2.171875 -2.703125 1.8125 -2.578125 C 1.84375 -2.6875 1.96875 -3.1875 2.015625 -3.359375 C 2.078125 -3.625 2.1875 -4.09375 2.1875 -4.140625 C 2.1875 -4.3125 2.078125 -4.40625 1.90625 -4.40625 C 1.875 -4.40625 1.59375 -4.40625 1.5 -4.046875 Z M 0.59375 -0.390625 "
               style="stroke:none;" />
          </symbol>
          <symbol
             id="textext-6b87b553-4"
             overflow="visible">
            <path
               id="path5186"
               d="M 3.328125 -3.015625 C 3.390625 -3.265625 3.625 -4.1875 4.3125 -4.1875 C 4.359375 -4.1875 4.609375 -4.1875 4.8125 -4.0625 C 4.53125 -4 4.34375 -3.765625 4.34375 -3.515625 C 4.34375 -3.359375 4.453125 -3.171875 4.71875 -3.171875 C 4.9375 -3.171875 5.25 -3.34375 5.25 -3.75 C 5.25 -4.265625 4.671875 -4.40625 4.328125 -4.40625 C 3.75 -4.40625 3.40625 -3.875 3.28125 -3.65625 C 3.03125 -4.3125 2.5 -4.40625 2.203125 -4.40625 C 1.171875 -4.40625 0.59375 -3.125 0.59375 -2.875 C 0.59375 -2.765625 0.703125 -2.765625 0.71875 -2.765625 C 0.796875 -2.765625 0.828125 -2.796875 0.84375 -2.875 C 1.1875 -3.9375 1.84375 -4.1875 2.1875 -4.1875 C 2.375 -4.1875 2.71875 -4.09375 2.71875 -3.515625 C 2.71875 -3.203125 2.546875 -2.546875 2.1875 -1.140625 C 2.03125 -0.53125 1.671875 -0.109375 1.234375 -0.109375 C 1.171875 -0.109375 0.953125 -0.109375 0.734375 -0.234375 C 0.984375 -0.296875 1.203125 -0.5 1.203125 -0.78125 C 1.203125 -1.046875 0.984375 -1.125 0.84375 -1.125 C 0.53125 -1.125 0.296875 -0.875 0.296875 -0.546875 C 0.296875 -0.09375 0.78125 0.109375 1.21875 0.109375 C 1.890625 0.109375 2.25 -0.59375 2.265625 -0.640625 C 2.390625 -0.28125 2.75 0.109375 3.34375 0.109375 C 4.375 0.109375 4.9375 -1.171875 4.9375 -1.421875 C 4.9375 -1.53125 4.859375 -1.53125 4.828125 -1.53125 C 4.734375 -1.53125 4.71875 -1.484375 4.6875 -1.421875 C 4.359375 -0.34375 3.6875 -0.109375 3.375 -0.109375 C 2.984375 -0.109375 2.828125 -0.421875 2.828125 -0.765625 C 2.828125 -0.984375 2.875 -1.203125 2.984375 -1.640625 Z M 3.328125 -3.015625 "
               style="stroke:none;" />
          </symbol>
          <symbol
             id="textext-6b87b553-5"
             overflow="visible">
            <path
               id="path5189"
               d=""
               style="stroke:none;" />
          </symbol>
          <symbol
             id="textext-6b87b553-6"
             overflow="visible">
            <path
               id="path5192"
               d="M 6.84375 -3.265625 C 7 -3.265625 7.1875 -3.265625 7.1875 -3.453125 C 7.1875 -3.65625 7 -3.65625 6.859375 -3.65625 L 0.890625 -3.65625 C 0.75 -3.65625 0.5625 -3.65625 0.5625 -3.453125 C 0.5625 -3.265625 0.75 -3.265625 0.890625 -3.265625 Z M 6.859375 -1.328125 C 7 -1.328125 7.1875 -1.328125 7.1875 -1.53125 C 7.1875 -1.71875 7 -1.71875 6.84375 -1.71875 L 0.890625 -1.71875 C 0.75 -1.71875 0.5625 -1.71875 0.5625 -1.53125 C 0.5625 -1.328125 0.75 -1.328125 0.890625 -1.328125 Z M 6.859375 -1.328125 "
               style="stroke:none;" />
          </symbol>
          <symbol
             id="textext-6b87b553-7"
             overflow="visible">
            <path
               id="path5195"
               d="M 4.078125 -2.296875 L 6.859375 -2.296875 C 7 -2.296875 7.1875 -2.296875 7.1875 -2.5 C 7.1875 -2.6875 7 -2.6875 6.859375 -2.6875 L 4.078125 -2.6875 L 4.078125 -5.484375 C 4.078125 -5.625 4.078125 -5.8125 3.875 -5.8125 C 3.671875 -5.8125 3.671875 -5.625 3.671875 -5.484375 L 3.671875 -2.6875 L 0.890625 -2.6875 C 0.75 -2.6875 0.5625 -2.6875 0.5625 -2.5 C 0.5625 -2.296875 0.75 -2.296875 0.890625 -2.296875 L 3.671875 -2.296875 L 3.671875 0.5 C 3.671875 0.640625 3.671875 0.828125 3.875 0.828125 C 4.078125 0.828125 4.078125 0.640625 4.078125 0.5 Z M 4.078125 -2.296875 "
               style="stroke:none;" />
          </symbol>
          <symbol
             id="textext-6b87b553-8"
             overflow="visible">
            <path
               id="path5198"
               d=""
               style="stroke:none;" />
          </symbol>
          <symbol
             id="textext-6b87b553-9"
             overflow="visible">
            <path
               id="path5201"
               d="M 3.984375 -4.625 C 3.984375 -4.640625 4 -4.734375 4 -4.734375 C 4 -4.78125 3.984375 -4.84375 3.890625 -4.84375 C 3.75 -4.84375 3.171875 -4.78125 3 -4.765625 C 2.953125 -4.765625 2.84375 -4.75 2.84375 -4.609375 C 2.84375 -4.515625 2.953125 -4.515625 3.03125 -4.515625 C 3.359375 -4.515625 3.359375 -4.453125 3.359375 -4.40625 C 3.359375 -4.359375 3.359375 -4.3125 3.34375 -4.25 L 2.9375 -2.65625 C 2.796875 -2.890625 2.5625 -3.078125 2.21875 -3.078125 C 1.328125 -3.078125 0.421875 -2.09375 0.421875 -1.09375 C 0.421875 -0.40625 0.875 0.0625 1.484375 0.0625 C 1.859375 0.0625 2.1875 -0.140625 2.46875 -0.421875 C 2.59375 0 3 0.0625 3.1875 0.0625 C 3.4375 0.0625 3.609375 -0.078125 3.734375 -0.296875 C 3.890625 -0.578125 3.984375 -0.96875 3.984375 -1 C 3.984375 -1.09375 3.890625 -1.09375 3.875 -1.09375 C 3.765625 -1.09375 3.765625 -1.0625 3.71875 -0.875 C 3.625 -0.53125 3.5 -0.125 3.203125 -0.125 C 3.03125 -0.125 2.96875 -0.28125 2.96875 -0.46875 C 2.96875 -0.59375 2.984375 -0.65625 3.015625 -0.75 Z M 2.5 -0.875 C 2.453125 -0.671875 2.296875 -0.53125 2.140625 -0.40625 C 2.078125 -0.34375 1.796875 -0.125 1.5 -0.125 C 1.234375 -0.125 0.984375 -0.3125 0.984375 -0.796875 C 0.984375 -1.171875 1.1875 -1.9375 1.359375 -2.21875 C 1.671875 -2.78125 2.03125 -2.875 2.21875 -2.875 C 2.703125 -2.875 2.84375 -2.34375 2.84375 -2.265625 C 2.84375 -2.25 2.828125 -2.1875 2.828125 -2.171875 Z M 2.5 -0.875 "
               style="stroke:none;" />
          </symbol>
          <symbol
             id="textext-6b87b553-10"
             overflow="visible">
            <path
               id="path5204"
               d="M 1.734375 -0.734375 C 1.671875 -0.5 1.4375 -0.125 1.078125 -0.125 C 1.0625 -0.125 0.84375 -0.125 0.703125 -0.21875 C 0.984375 -0.3125 1.015625 -0.5625 1.015625 -0.609375 C 1.015625 -0.765625 0.890625 -0.859375 0.734375 -0.859375 C 0.53125 -0.859375 0.328125 -0.703125 0.328125 -0.4375 C 0.328125 -0.09375 0.71875 0.0625 1.0625 0.0625 C 1.390625 0.0625 1.671875 -0.125 1.84375 -0.421875 C 2.015625 -0.0625 2.390625 0.0625 2.671875 0.0625 C 3.484375 0.0625 3.90625 -0.796875 3.90625 -1 C 3.90625 -1.09375 3.8125 -1.09375 3.796875 -1.09375 C 3.6875 -1.09375 3.6875 -1.046875 3.65625 -0.96875 C 3.515625 -0.484375 3.09375 -0.125 2.703125 -0.125 C 2.421875 -0.125 2.28125 -0.3125 2.28125 -0.578125 C 2.28125 -0.765625 2.453125 -1.390625 2.640625 -2.171875 C 2.78125 -2.703125 3.09375 -2.875 3.328125 -2.875 C 3.34375 -2.875 3.546875 -2.875 3.703125 -2.78125 C 3.484375 -2.71875 3.390625 -2.515625 3.390625 -2.390625 C 3.390625 -2.25 3.515625 -2.140625 3.671875 -2.140625 C 3.828125 -2.140625 4.0625 -2.265625 4.0625 -2.5625 C 4.0625 -2.953125 3.609375 -3.078125 3.34375 -3.078125 C 2.984375 -3.078125 2.703125 -2.84375 2.5625 -2.578125 C 2.4375 -2.859375 2.109375 -3.078125 1.71875 -3.078125 C 0.9375 -3.078125 0.5 -2.21875 0.5 -2 C 0.5 -1.921875 0.59375 -1.921875 0.609375 -1.921875 C 0.703125 -1.921875 0.703125 -1.9375 0.75 -2.03125 C 0.921875 -2.578125 1.359375 -2.875 1.703125 -2.875 C 1.9375 -2.875 2.125 -2.75 2.125 -2.421875 C 2.125 -2.28125 2.03125 -1.9375 1.96875 -1.6875 Z M 1.734375 -0.734375 "
               style="stroke:none;" />
          </symbol>
          <symbol
             id="textext-6b87b553-11"
             overflow="visible">
            <path
               id="path5207"
               d="M 1.71875 -2.75 L 2.421875 -2.75 C 2.5625 -2.75 2.640625 -2.75 2.640625 -2.90625 C 2.640625 -3 2.5625 -3 2.4375 -3 L 1.78125 -3 L 2.03125 -4.03125 C 2.046875 -4.0625 2.0625 -4.109375 2.0625 -4.125 C 2.0625 -4.265625 1.953125 -4.359375 1.8125 -4.359375 C 1.640625 -4.359375 1.546875 -4.234375 1.484375 -4.0625 C 1.4375 -3.875 1.53125 -4.21875 1.21875 -3 L 0.515625 -3 C 0.390625 -3 0.296875 -3 0.296875 -2.84375 C 0.296875 -2.75 0.375 -2.75 0.5 -2.75 L 1.15625 -2.75 L 0.75 -1.109375 C 0.703125 -0.9375 0.640625 -0.6875 0.640625 -0.59375 C 0.640625 -0.1875 1 0.0625 1.390625 0.0625 C 2.171875 0.0625 2.609375 -0.90625 2.609375 -1 C 2.609375 -1.09375 2.515625 -1.09375 2.5 -1.09375 C 2.40625 -1.09375 2.40625 -1.078125 2.34375 -0.953125 C 2.15625 -0.515625 1.796875 -0.125 1.421875 -0.125 C 1.265625 -0.125 1.171875 -0.21875 1.171875 -0.46875 C 1.171875 -0.53125 1.203125 -0.6875 1.21875 -0.75 Z M 1.71875 -2.75 "
               style="stroke:none;" />
          </symbol>
        </g>
      </defs>
      <g
         id="textext-6b87b553-12">
        <g
           id="g5210"
           style="fill:rgb(0%,0%,0%);fill-opacity:1;">
          <use
             id="use5212"
             y="134.765"
             x="223.432"
             xlink:href="#textext-6b87b553-1" />
        </g>
        <g
           id="g5214"
           style="fill:rgb(0%,0%,0%);fill-opacity:1;">
          <use
             id="use5216"
             y="134.765"
             x="233.99"
             xlink:href="#textext-6b87b553-6" />
        </g>
        <g
           id="g5218"
           style="fill:rgb(0%,0%,0%);fill-opacity:1;">
          <use
             id="use5220"
             y="134.765"
             x="244.506"
             xlink:href="#textext-6b87b553-2" />
        </g>
        <g
           id="g5222"
           style="fill:rgb(0%,0%,0%);fill-opacity:1;">
          <use
             id="use5224"
             y="130.842"
             x="251.413"
             xlink:href="#textext-6b87b553-9" />
          <use
             id="use5226"
             y="130.842"
             x="255.560319"
             xlink:href="#textext-6b87b553-10" />
        </g>
        <path
           id="path5228"
           transform="matrix(1,0,0,-1,251.413,132.274)"
           d="M 0.0010625 0.0005625 L 8.665125 0.0005625 "
           style="fill:none;stroke-width:0.398;stroke-linecap:butt;stroke-linejoin:miter;stroke:rgb(0%,0%,0%);stroke-opacity:1;stroke-miterlimit:10;" />
        <g
           id="g5230"
           style="fill:rgb(0%,0%,0%);fill-opacity:1;">
          <use
             id="use5232"
             y="138.2"
             x="252.167"
             xlink:href="#textext-6b87b553-9" />
          <use
             id="use5234"
             y="138.2"
             x="256.314319"
             xlink:href="#textext-6b87b553-11" />
        </g>
        <g
           id="g5236"
           style="fill:rgb(0%,0%,0%);fill-opacity:1;">
          <use
             id="use5238"
             y="134.765"
             x="263.487"
             xlink:href="#textext-6b87b553-7" />
        </g>
        <g
           id="g5240"
           style="fill:rgb(0%,0%,0%);fill-opacity:1;">
          <use
             id="use5242"
             y="134.765"
             x="273.45"
             xlink:href="#textext-6b87b553-3" />
          <use
             id="use5244"
             y="134.765"
             x="279.19045"
             xlink:href="#textext-6b87b553-4" />
        </g>
      </g>
    </g>
  </g>
</svg>
